<svg xmlns="http://www.w3.org/2000/svg" xmlns:xlink="http://www.w3.org/1999/xlink" viewBox="0 0 1000 1000"><defs><style>.cls-1,.cls-10,.cls-5,.cls-6,.cls-9{fill:none;}.cls-2,.cls-3{isolation:isolate;}.cls-3{opacity:0.58;fill:url(#linear-gradient);}.cls-4{fill:#29abe3;}.cls-5,.cls-6{stroke:#1d3b6c;}.cls-10,.cls-5,.cls-6,.cls-9{stroke-linecap:round;stroke-miterlimit:10;}.cls-5{stroke-width:7.26px;}.cls-6{stroke-width:7.1px;}.cls-7{fill:#1a2441;}.cls-8{fill:#88b7e3;}.cls-9{stroke:#1a2441;stroke-width:5.61px;}.cls-10{stroke:#ea5f5e;stroke-width:12.71px;}.cls-11{fill:#5ec1cd;}.cls-12{fill:#f3988e;}.cls-13{fill:#263239;}.cls-14{fill:#1f364c;}.cls-15{clip-path:url(#clip-path);}.cls-16{fill:url(#linear-gradient-2);}.cls-17{fill:#f1d3b9;}.cls-18{fill:url(#linear-gradient-3);}.cls-19{fill:#1672b9;}.cls-20{fill:#f49b6c;}.cls-21{fill:#db8a65;}.cls-22{fill:url(#linear-gradient-4);}.cls-23{fill:url(#linear-gradient-5);}.cls-24{fill:url(#linear-gradient-6);}.cls-25{fill:url(#linear-gradient-7);}.cls-26{fill:url(#linear-gradient-8);}.cls-27{fill:url(#linear-gradient-9);}.cls-28{fill:url(#linear-gradient-10);}.cls-29{fill:url(#linear-gradient-11);}.cls-30{fill:url(#linear-gradient-12);}.cls-31{fill:url(#linear-gradient-13);}.cls-32{fill:url(#linear-gradient-14);}.cls-33{opacity:0.25;mix-blend-mode:overlay;}.cls-34{fill:#010101;}</style><linearGradient id="linear-gradient" x1="535.77" y1="965.12" x2="404.19" y2="218.91" gradientUnits="userSpaceOnUse"><stop offset="0" stop-color="#c8e5f9"/><stop offset="1" stop-color="#fff"/></linearGradient><clipPath id="clip-path"><path class="cls-1" d="M781.65,805.93s-81.91-83.17-88.25-90.17-32-144.89-33.7-155.22c0,0-25.69-26.17-26.46-47.89l83.4-41.77c3.54,13.33,6.44,13.8,8.85,48.63,1.23,17.76,5.13,90.89,7.91,177.46,0,0,8.61,4.61,21.66,17.31,10.67,10.39,43.15,74.61,43.15,74.61S794.31,801.72,781.65,805.93Z"/></clipPath><linearGradient id="linear-gradient-2" x1="11452.18" y1="331.29" x2="11490.63" y2="331.29" gradientTransform="matrix(-1, 0, 0, 1, 12122.42, 0)" gradientUnits="userSpaceOnUse"><stop offset="0" stop-color="#f0d9c0"/><stop offset="1" stop-color="#fee6cb"/></linearGradient><linearGradient id="linear-gradient-3" x1="11449.43" y1="293.04" x2="11516.43" y2="293.04" xlink:href="#linear-gradient-2"/><linearGradient id="linear-gradient-4" x1="11423.47" y1="453.8" x2="11607.4" y2="453.8" xlink:href="#linear-gradient-2"/><linearGradient id="linear-gradient-5" x1="526.83" y1="685.51" x2="556.2" y2="685.51" gradientUnits="userSpaceOnUse"><stop offset="0" stop-color="#f8bb99"/><stop offset="1" stop-color="#f49e6f"/></linearGradient><linearGradient id="linear-gradient-6" x1="505.67" y1="703.34" x2="521.46" y2="703.34" xlink:href="#linear-gradient-5"/><linearGradient id="linear-gradient-7" x1="520.43" y1="713.66" x2="563.94" y2="713.66" xlink:href="#linear-gradient-5"/><linearGradient id="linear-gradient-8" x1="490.99" y1="726.93" x2="518.35" y2="726.93" xlink:href="#linear-gradient-5"/><linearGradient id="linear-gradient-9" x1="460.13" y1="751.97" x2="523.24" y2="751.97" xlink:href="#linear-gradient-5"/><linearGradient id="linear-gradient-10" x1="529.22" y1="757.72" x2="554.28" y2="757.72" xlink:href="#linear-gradient-5"/><linearGradient id="linear-gradient-11" x1="538.8" y1="790.9" x2="554.32" y2="790.9" xlink:href="#linear-gradient-5"/><linearGradient id="linear-gradient-12" x1="548.03" y1="813.19" x2="574.13" y2="813.19" xlink:href="#linear-gradient-5"/><linearGradient id="linear-gradient-13" x1="475.85" y1="816.29" x2="546.31" y2="816.29" xlink:href="#linear-gradient-5"/><linearGradient id="linear-gradient-14" x1="473.16" y1="783.91" x2="535.12" y2="783.91" xlink:href="#linear-gradient-5"/></defs><g class="cls-2"><g id="Layer_1" data-name="Layer 1"><path class="cls-3" d="M886.06,902.39c22.16,0,42.53-11.81,52.82-30.72,58.81-108,38.41-266.85-40.94-309.46-99.22-53.28,41.1-209-90.71-288.26s-238.12,101.1-416.71,2.73-317.21,51-296.44,158.08c14.48,74.73,52.65,139.75-46.57,235.38C-20.76,736,35.79,828.91,77.71,880.5a60.28,60.28,0,0,0,46.85,21.89Z"/><path class="cls-4" d="M391,688.93a38.75,38.75,0,0,0-14.5-9.11A61.77,61.77,0,0,0,355,582.38a70.06,70.06,0,0,0-112-79.19l0-.05A52.23,52.23,0,0,0,169.12,577L336,743.88a38.86,38.86,0,1,0,54.95-55ZM270.37,623.31l-2.61-2.62c1,.35,2,.68,3.05,1C270.66,622.22,270.52,622.76,270.37,623.31Z"/><path class="cls-5" d="M531.62,533.37H508.21A25.45,25.45,0,0,0,484,550.9L418.08,752.1a12,12,0,0,1-11.46,8.3h-221a12.06,12.06,0,0,1-11.9-10.09l-26-158H470.44"/><path class="cls-6" d="M202.19,760.21h155A86.83,86.83,0,0,1,444,847H212.25"/><path class="cls-7" d="M424.83,874.41A17.89,17.89,0,1,0,407,892.3,17.89,17.89,0,0,0,424.83,874.41Z"/><path class="cls-8" d="M409.48,852.28c-.31,6.5.09,14,5.12,21.22s-6.56,11.73-18.21,4.7c-13.84-8.34-17.71-25.92-17.71-25.92Z"/><path class="cls-7" d="M410.74,874.41A3.8,3.8,0,1,0,407,878.2,3.8,3.8,0,0,0,410.74,874.41Z"/><path class="cls-7" d="M299.76,874.41a17.89,17.89,0,1,0-17.89,17.89A17.89,17.89,0,0,0,299.76,874.41Z"/><path class="cls-8" d="M284.4,852.28c-.31,6.5.09,14,5.12,21.22s-6.55,11.73-18.2,4.7c-13.85-8.34-17.72-25.92-17.72-25.92Z"/><path class="cls-7" d="M285.66,874.41a3.79,3.79,0,1,0-3.79,3.79A3.79,3.79,0,0,0,285.66,874.41Z"/><line class="cls-9" x1="452.02" y1="648.53" x2="156.99" y2="648.53"/><line class="cls-9" x1="433.6" y1="704.73" x2="166.25" y2="704.73"/><line class="cls-10" x1="516.38" y1="533.37" x2="552.94" y2="533.37"/><path class="cls-11" d="M681.39,854.42c1.21,6.08,6.17,20.42,4.75,27.38-6.24,5.28-19.58,5.63-29.59,3.11s-17,2.6-29.62,3.34c-12.32.73-22.6-2.7-25.12-7.86-2.74-5.64,18.79-10,33.46-14.5,16.42-5,24.9-13.13,24.9-13.13Z"/><path class="cls-12" d="M681.39,830.14v24.28a10.89,10.89,0,0,0-4,2.31c-1.18,1.39-2.78,6-4.76,6-7.84.32-12.47-10-12.47-10l-2.95-22.08Z"/><path class="cls-11" d="M811.68,802.73c6,1.51,21.09,3.17,26.77,7.44,2.09,7.89-3.3,20.1-9.87,28.07s-5,16.52-9.68,28.18c-4.63,11.45-12.13,19.26-17.87,19.33-6.27.06-1-21.26,1.24-36.45,2.49-17-1.19-28.12-1.19-28.12Z"/><path class="cls-12" d="M798.21,788.89l13.47,13.84a10.81,10.81,0,0,0,.38,4.59c.74,1.65,4.19,5.06,3.42,6.89-3.07,7.22-14.4,7-14.4,7l-19.43-15.25Z"/><path class="cls-13" d="M634.48,484.22c27.2,0,47.44,2,47.44,2,8.7,3.8,23.62,23.57,28,36.12s2.61,33.52.32,44.32c-12.77,60.14-34.1,94.79-39,118.63-3,14.58,11.4,6.75,11.4,43.72,0,33.07.42,126.17.42,126.17a31.77,31.77,0,0,1-23.65,1.87s-22-138.88-24.28-152.18c-3.63-21.58-4.88-30.63-5.29-68C629.23,584.43,634.48,484.22,634.48,484.22Z"/><path class="cls-14" d="M800.33,825.09S699.74,722.76,693.4,715.76s-32-144.89-33.7-155.22c0,0-25.69-26.17-26.46-47.89l83.4-41.77c3.54,13.33,6.44,13.8,8.85,48.63,1.23,17.76,5.13,90.89,7.91,177.46,0,0,8.61,4.61,21.66,17.31,10.67,10.39,63.43,93.77,63.43,93.77S813,820.87,800.33,825.09Z"/><polygon class="cls-16" points="670.24 333.6 641.95 359.21 631.79 332.62 659.44 303.37 670.24 333.6"/><path class="cls-17" d="M636.25,344.31s27.35-20.94,23.19-40.94l-27.65,29.25Z"/><path class="cls-18" d="M659.35,303.36a71.87,71.87,0,0,1-1.55,7.87c-.95,3.45-23,20.53-29.33,23.17s-15.43,3.75-19.84-18.64-4.18-42.92,7.67-56.95,35.41-9,48.22,2.59S675.62,303.15,659.35,303.36Z"/><path class="cls-19" d="M659.35,303.36l4.22,11.56s4.7-1.89,8.83-11.55c4.52-10.57,13-28.85,9.17-37.85-2.93-6.82-9.82-10.54-16.83-11.85-2.44-.45-3.25.12-4.31-2-2.42-4.87-4.48-9-9.42-11.83a26,26,0,0,0-12.47-3.7c-5.17-.36-10.91,1.11-16,1.94a106,106,0,0,1-32.92.18,1.64,1.64,0,0,0-1.29.16,1.56,1.56,0,0,0-.36,1.41c.92,9.32,7.62,14.19,15.89,17,0,0-12.88,11.7-1.82,14.72S640,266.32,640,266.32s-11.85,8.81-6.85,11.46,21.72-3.72,21.72-3.72l.28,9.24s6.39-4.11,11.43-.64C672.59,286.8,669.79,303.49,659.35,303.36Z"/><path class="cls-20" d="M637,360.54c-2.42,11.16-2.21,29.57-3.73,68.61-1,25.11-3.5,98-3.5,98s19.23,12.6,51.52,10c30.86-2.48,44.17-17.65,44.17-17.65S722.27,417,712.13,376.71c-15-41.6-36.26-48.83-36.26-48.83Z"/><path class="cls-21" d="M631.51,478.55l66-93.58c-2.18,15.17-35.16,98.46-35.16,98.46L657,483s-6.64,15.36-9.51,19.89c-1.9,3-11.69,5.77-17.13,7.46C630.69,501.55,631.09,490.21,631.51,478.55Z"/><path class="cls-17" d="M663.89,286.31a6.63,6.63,0,0,0-5.82.65c-.54.44.39,1.34.91,1.15,3-1.1,6.57-1.25,8,2.2.08.19.21,0,.18-.13A4.84,4.84,0,0,0,663.89,286.31Z"/><path class="cls-17" d="M662.52,286.59c-.33-.16-1.08.66-1,.88a4.09,4.09,0,0,1,1.61,1.42,5.32,5.32,0,0,1,.7,3.34,6,6,0,0,1-4.76,5.73c-.06,0-.14.16-.06.18,2.5.63,5.33-2,5.91-4.2C665.55,291.46,665.38,287.94,662.52,286.59Z"/><path class="cls-22" d="M698.74,376.73c3.24-18.17-31.42-29.67-41.14-6.51-9.54,22.75-33.73,101-33.73,101s-71.07,44.8-78.16,44.13c-9.52-.9-33.33,25.06-30.45,29.15s14.85,7.42,23.36,5c7-2,13.8-14.62,16.53-16.68,13.75-4.62,79.62-26.4,88.37-34S696.63,388.59,698.74,376.73Z"/><path class="cls-20" d="M660.12,361.35a243.14,243.14,0,0,0-12.91,34.35c-4,13.59-21.69,70.26-21.69,70.26s11.54,14.3,28.27,15.76c0,0,13.13-26.85,21.15-43.48s21.44-49.58,24.84-59.38-7.56-26.85-14.14-28.22S664.66,351.18,660.12,361.35Z"/><path class="cls-23" d="M556.2,668.44c-.1,11.34-23.36,18.22-29.37,35.21,1.85-5.2,6.45-27.31,19.76-34.62C549.6,667.3,553.19,666.64,556.2,668.44Z"/><path class="cls-24" d="M506.11,682.61c3.35-.76,6.39,1,8.63,3.54,10.21,11.35,5.85,33.2,5.46,38.1C521.67,706,502.54,693.42,506.11,682.61Z"/><path class="cls-25" d="M563.94,688c-1.4,17.57-36.67,25.2-43.51,53.36C522,735.12,526.78,699,549.2,688,554,685.64,559.52,684.87,563.94,688Z"/><path class="cls-26" d="M491,712.58c2.47-2.08,5.81-1.86,8.76-.62,12.53,5.11,16,21.45,18.6,30.88C513.89,726.25,492.63,722.84,491,712.58Z"/><path class="cls-27" d="M460.13,741.42c3.63-11.67,21.9-11.22,35.09-3.93,15.66,8.56,22,22.1,28,34.17-4.39-8.83-15.44-18-32.88-21.39C477.56,747.79,467,749.16,460.13,741.42Z"/><path class="cls-28" d="M554.15,730c2.27,15-26.11,30.46-23.24,56.1-.7-6.37-7-37.84,10.46-52.89C545,730.06,549.67,728.18,554.15,730Z"/><path class="cls-29" d="M553.94,770.32c3.26,10.67-15.72,23.22-13.26,41.38-.57-4.23-6-26.39,4.61-38C547.55,771.21,550.62,769.48,553.94,770.32Z"/><path class="cls-30" d="M573.94,788.46c2.68,14.07-23.8,27-25.91,50,.65-7-.24-34.75,14.39-47C565.7,788.65,569.83,787,573.94,788.46Z"/><path class="cls-31" d="M475.85,800.1c2.32-10.59,16.68-12.78,29.3-8.5,31,10.48,37.47,41.18,41.16,51.44C533.38,806.47,491.75,815.13,475.85,800.1Z"/><path class="cls-32" d="M473.16,774c4.18-11.44,22-9.41,33.53-3.24,15.5,8.24,22.53,21.76,28.43,31.2-6.65-10.71-20.41-16.65-32.92-18.92S479.39,781.74,473.16,774Z"/><g class="cls-33"><path class="cls-34" d="M549.26,843.7v.62c0,.57,0,1.14,0,1.71h0a1.05,1.05,0,0,1-.47.91,52.36,52.36,0,0,1,1.12,7.42h0a1.07,1.07,0,0,1-1,1.14h-.08a1,1,0,0,1-.67-.25c.08,1.78.12,3.59.12,5.42a133.86,133.86,0,0,1-5.66,37.73,1.06,1.06,0,0,0,.73,1.32,1,1,0,0,0,.3,0,1.07,1.07,0,0,0,1-.77h0a135.9,135.9,0,0,0,5.75-38.33,121.77,121.77,0,0,0-1.19-17M537,807.61l0,0A166.89,166.89,0,0,1,546.34,839c.3.75.58,1.51.84,2.27.08-2.2.25-4.36.51-6.5a155.3,155.3,0,0,0-4.76-17.23,1.07,1.07,0,0,1-.79,1,1.27,1.27,0,0,1-.28,0,1.07,1.07,0,0,1-1-.79,46.35,46.35,0,0,1-1.25-6.29h-.12a1.07,1.07,0,0,1-1-.66q-.68-1.6-1.44-3.18m-3.84-14.92c.19.6.4,1.18.62,1.75h0a1.07,1.07,0,0,1-.62,1.38,1,1,0,0,1-.38.07,1.08,1.08,0,0,1-.69-.25l.15.35A61.81,61.81,0,0,1,539,806.75c-1.9-4.85-3.88-9.52-5.8-14.06M518.35,748.5a97.61,97.61,0,0,0,2.46,16.22c.13.55.27,1.1.41,1.65A75.37,75.37,0,0,1,528,780.48h0a1.06,1.06,0,0,1-.63,1.37,1.19,1.19,0,0,1-.37.06,1.09,1.09,0,0,1-.71-.26c1.52,3.86,3.17,7.78,4.86,11.79a41.77,41.77,0,0,1-1.83-10,138.43,138.43,0,0,1-6.48-19.25,97,97,0,0,1-2.19-13.35,1.08,1.08,0,0,1-1,.76h0a1.07,1.07,0,0,1-1.07-1c0-.47,0-.94,0-1.42V749a1.05,1.05,0,0,1-.22-.45m.58-19.69c-.41,3.29-.67,6.6-.76,9.92.38,1,.73,2.13,1,3.21a52.36,52.36,0,0,1,1.17-5.2q.15-3.12.5-6.23a1.07,1.07,0,0,1-1,.66h-.09a1.07,1.07,0,0,1-1-1.16c0-.4.07-.8.1-1.2m15.87-42.64a1,1,0,0,0-.57.43,98,98,0,0,0-13,29.75c.09,1.5.13,3,.13,4.56,0,2.64-.12,5.34-.34,8.11a100.9,100.9,0,0,1,4.3-19.09,1,1,0,0,1-1,.67,1.13,1.13,0,0,1-.36-.06,1.07,1.07,0,0,1-.64-1.37,96.81,96.81,0,0,1,10.07-21c.45-.67.9-1.32,1.36-2"/><path class="cls-34" d="M550.12,671.29a1,1,0,0,0-.63.2,63.53,63.53,0,0,0-14.69,14.68.89.89,0,0,1,.32,0,1.06,1.06,0,0,1,.89,1.65,94.72,94.72,0,0,0-10.65,22.16l0,0h0a94.29,94.29,0,0,1,9.85-20.57,61.29,61.29,0,0,1,15.51-16.1,1.07,1.07,0,0,0-.62-1.93"/><path class="cls-34" d="M535.12,686.12a.89.89,0,0,0-.32,0c-.46.65-.91,1.3-1.36,2a96.81,96.81,0,0,0-10.07,21,1.07,1.07,0,0,0,.64,1.37,1.13,1.13,0,0,0,.36.06,1,1,0,0,0,1-.67A94.72,94.72,0,0,1,536,687.77a1.06,1.06,0,0,0-.89-1.65"/><path class="cls-34" d="M521.06,729c-.07.5-.13,1-.18,1.49a1.09,1.09,0,0,0,.08-.31c0-.4.06-.79.1-1.18m-10.59-42a1,1,0,0,0-.61.19,1.07,1.07,0,0,0-.27,1.49c7.19,10.27,9.67,20.5,9.68,32.23,0,2.56-.12,5.19-.34,7.9a105.17,105.17,0,0,1,2.34-12.46,53.93,53.93,0,0,0-9.93-28.9,1.07,1.07,0,0,0-.87-.45"/><path class="cls-34" d="M521.27,716.35a105.17,105.17,0,0,0-2.34,12.46c0,.4-.07.8-.1,1.2a1.07,1.07,0,0,0,1,1.16h.09a1.07,1.07,0,0,0,1-.66c0-.5.11-1,.18-1.49.22-2.77.34-5.47.34-8.11,0-1.54,0-3.06-.13-4.56"/><path class="cls-34" d="M554.31,692.28a1.1,1.1,0,0,0-.57.16c-9.06,5.79-17.81,14.72-24.34,24.82a72.3,72.3,0,0,0-9,19.48c-.08,1.64-.12,3.29-.12,4.93q0,4.61.43,9.2a1.34,1.34,0,0,0,0-.35h0c0-.44,0-.89,0-1.34,0-9.95,4.13-20.91,10.5-30.76s14.94-18.6,23.69-24.17a1.08,1.08,0,0,0,.32-1.48,1.06,1.06,0,0,0-.9-.49"/><path class="cls-34" d="M520.38,736.74a52.36,52.36,0,0,0-1.17,5.2,42.42,42.42,0,0,1,1.25,6.21h0a1.07,1.07,0,0,1-.93,1.19h-.13a1,1,0,0,1-.83-.4v.23c0,.48,0,1,0,1.42a1.07,1.07,0,0,0,1.07,1h0a1.08,1.08,0,0,0,1-.76q-.44-4.59-.43-9.2c0-1.64,0-3.29.12-4.93"/><path class="cls-34" d="M496.94,714.25a1,1,0,0,0-.94.55,1.06,1.06,0,0,0,.42,1.45,43.8,43.8,0,0,1,21.92,32.16s0,.06,0,.09q-.23-3.4-.23-6.83c0-1,0-2,0-2.94a46.32,46.32,0,0,0-20.72-24.35,1,1,0,0,0-.51-.13"/><path class="cls-34" d="M518.17,738.73c0,1,0,2,0,2.94q0,3.42.23,6.83a1.05,1.05,0,0,0,.22.45,42,42,0,0,1,.64-7c-.31-1.08-.66-2.16-1-3.21"/><path class="cls-34" d="M519.21,741.94a42,42,0,0,0-.64,7,1,1,0,0,0,.83.4h.13a1.07,1.07,0,0,0,.93-1.19h0a42.42,42.42,0,0,0-1.25-6.21"/><path class="cls-34" d="M472.44,739h-.76a1.07,1.07,0,0,0,0,2.13h.74a53.92,53.92,0,0,1,31.8,9.92c9.26,6.63,16.87,16.62,21.81,30.11a1,1,0,0,0,.29.44,135,135,0,0,1-5.11-15.28,59.49,59.49,0,0,0-15.75-17,56.08,56.08,0,0,0-33-10.32"/><path class="cls-34" d="M521.22,766.37a135,135,0,0,0,5.11,15.28,1.09,1.09,0,0,0,.71.26,1.19,1.19,0,0,0,.37-.06,1.06,1.06,0,0,0,.63-1.37h0a75.37,75.37,0,0,0-6.82-14.11"/><path class="cls-34" d="M531.19,793.44c.19.6.4,1.19.62,1.77a1.13,1.13,0,0,0,.31.43l-.93-2.2M547,735.6a1,1,0,0,0-.78.34c-11.07,11.85-16.94,29-16.95,43.9,0,1.22,0,2.44.13,3.63,1.22,3,2.51,6.09,3.83,9.22a42.9,42.9,0,0,1-1.82-12.85c0-14.29,5.73-31.1,16.37-42.44a1.07,1.07,0,0,0,0-1.51,1.09,1.09,0,0,0-.73-.29"/><path class="cls-34" d="M529.36,783.47a41.77,41.77,0,0,0,1.83,10l.93,2.2a1.08,1.08,0,0,0,.69.25,1,1,0,0,0,.38-.07,1.07,1.07,0,0,0,.62-1.38h0c-.22-.57-.43-1.15-.62-1.75-1.32-3.13-2.61-6.2-3.83-9.22"/><path class="cls-34" d="M549.52,774.6a1.07,1.07,0,0,0-.87.44A52,52,0,0,0,539.16,805c0,.74,0,1.48.05,2.23q.64,1.37,1.23,2.76a1,1,0,0,1,0,.69c.84,2.25,1.66,4.53,2.44,6.86a.8.8,0,0,0,0-.34A47,47,0,0,1,541.3,805a49.65,49.65,0,0,1,9.09-28.69,1.07,1.07,0,0,0-.25-1.49,1,1,0,0,0-.62-.2"/><path class="cls-34" d="M540.49,810.66a1,1,0,0,1-.62.71,1,1,0,0,1-.29.07,46.35,46.35,0,0,0,1.25,6.29,1.07,1.07,0,0,0,1,.79,1.27,1.27,0,0,0,.28,0,1.07,1.07,0,0,0,.79-1c-.78-2.33-1.6-4.61-2.44-6.86"/><path class="cls-34" d="M567.49,793.56a1.06,1.06,0,0,0-.79.34,71.6,71.6,0,0,0-19,40.85c.61,2.91,1.14,5.89,1.57,9,.15-18.65,6.65-35.05,19-48.35a1.07,1.07,0,0,0-.06-1.51,1,1,0,0,0-.72-.28"/><path class="cls-34" d="M547.69,834.75c-.26,2.14-.43,4.3-.51,6.5a55.61,55.61,0,0,1,1.63,5.69,1.05,1.05,0,0,0,.47-.91h0c0-.57,0-1.14,0-1.71v-.62c-.43-3.06-1-6-1.57-9"/><path class="cls-34" d="M489.68,797.51a1.07,1.07,0,0,0-.06,2.13c15.52.85,29.58,8,40,18.17s17.19,23.54,18.17,36.71a1,1,0,0,0,.39.74q-.2-4.29-.68-8.4a1.08,1.08,0,0,1-.37-.78c0-.59,0-1.18,0-1.76v-.48q-.35-2.46-.78-4.86a65.67,65.67,0,0,0-15.21-22.69c-10.76-10.54-25.29-17.89-41.39-18.78h-.06"/><path class="cls-34" d="M547.51,846.86q.48,4.11.68,8.4a1,1,0,0,0,.67.25h.08a1.07,1.07,0,0,0,1-1.14h0a52.36,52.36,0,0,0-1.12-7.42,1,1,0,0,1-.58.18h0a1,1,0,0,1-.7-.26M546.34,839q.43,2.4.78,4.86c0-.87,0-1.73.06-2.59-.26-.76-.54-1.52-.84-2.27"/><path class="cls-34" d="M547.12,843.84v.48c0,.58,0,1.17,0,1.76a1.08,1.08,0,0,0,.37.78c-.11-1-.24-2-.39-3"/><path class="cls-34" d="M547.18,841.25c0,.86,0,1.72-.06,2.59.15,1,.28,2,.39,3a1,1,0,0,0,.7.26h0a1,1,0,0,0,.58-.18,55.61,55.61,0,0,0-1.63-5.69"/><path class="cls-34" d="M539,806.75s0,.09,0,.13.12.3.17.45v-.12c-.07-.15-.15-.3-.22-.46m-54.73-34.61a1.07,1.07,0,1,0,0,2.13A59.8,59.8,0,0,1,537,807.61c-1.56-4-3.17-7.84-4.76-11.62a62,62,0,0,0-48-23.85h0"/><path class="cls-34" d="M532.27,796c1.59,3.78,3.2,7.65,4.76,11.62q.76,1.57,1.44,3.18a1.07,1.07,0,0,0,1,.66h.12c-.18-1.36-.3-2.74-.37-4.11-.05-.15-.11-.3-.17-.45s0-.08,0-.13A61.81,61.81,0,0,0,532.27,796"/><path class="cls-34" d="M539.21,807.21v.12c.43,1.1.86,2.21,1.28,3.33a1,1,0,0,0,0-.69q-.59-1.4-1.23-2.76"/><path class="cls-34" d="M539.21,807.33c.07,1.37.19,2.75.37,4.11a1,1,0,0,0,.29-.07,1,1,0,0,0,.62-.71c-.42-1.12-.85-2.23-1.28-3.33"/></g></g></g></svg>