<?xml version="1.0" encoding="utf-8"?>
<!-- Generator: Adobe Illustrator 22.0.1, SVG Export Plug-In . SVG Version: 6.00 Build 0)  -->
<svg version="1.1" id="Layer_1" xmlns="http://www.w3.org/2000/svg" xmlns:xlink="http://www.w3.org/1999/xlink" x="0px" y="0px"
	 viewBox="0 0 60 60" enable-background="new 0 0 60 60" xml:space="preserve">
<g>
	<g id="Group_5390" transform="translate(-15378 -18517)">
		<g id="Group_5383" transform="translate(18 661)">
			<g id="Group_5297" transform="translate(-6 -9)">
				<g id="Rectangle_2222" transform="translate(331 2577.578)">
					<g>
						<rect x="15047" y="15303.4" fill="#FFFFFF" width="36" height="30"/>
					</g>
					<g>
						<path fill="#137FCF" d="M15083,15333.4h-36v-30h36V15333.4z M15049,15331.4h32v-26h-32V15331.4z"/>
					</g>
				</g>
				<g id="Rectangle_2216" transform="translate(325 2568.578)">
					<g>
						<path fill="#FFFFFF" d="M15049,15303.4h44c1.1,0,2,0.9,2,2v8c0,1.1-0.9,2-2,2h-44c-1.1,0-2-0.9-2-2v-8
							C15047,15304.3,15047.9,15303.4,15049,15303.4z"/>
					</g>
					<g>
						<path fill="#137FCF" d="M15093,15315.4h-44c-1.1,0-2-0.9-2-2v-8c0-1.1,0.9-2,2-2h44c1.1,0,2,0.9,2,2v8
							C15095,15314.5,15094.1,15315.4,15093,15315.4z M15049,15305.4L15049,15305.4v8h44v-8H15049z"/>
					</g>
				</g>
				<g id="Rectangle_2217" transform="translate(325 2585.578)">
					<g>
						<path fill="#FFFFFF" d="M15049,15303.4h44c1.1,0,2,0.9,2,2v8c0,1.1-0.9,2-2,2h-44c-1.1,0-2-0.9-2-2v-8
							C15047,15304.3,15047.9,15303.4,15049,15303.4z"/>
					</g>
					<g>
						<path fill="#137FCF" d="M15093,15315.4h-44c-1.1,0-2-0.9-2-2v-8c0-1.1,0.9-2,2-2h44c1.1,0,2,0.9,2,2v8
							C15095,15314.5,15094.1,15315.4,15093,15315.4z M15049,15305.4L15049,15305.4v8h44v-8H15049z"/>
					</g>
				</g>
				<g id="Rectangle_2218" transform="translate(325 2602.578)">
					<g>
						<path fill="#FFFFFF" d="M15049,15303.4h44c1.1,0,2,0.9,2,2v8c0,1.1-0.9,2-2,2h-44c-1.1,0-2-0.9-2-2v-8
							C15047,15304.3,15047.9,15303.4,15049,15303.4z"/>
					</g>
					<g>
						<path fill="#137FCF" d="M15093,15315.4h-44c-1.1,0-2-0.9-2-2v-8c0-1.1,0.9-2,2-2h44c1.1,0,2,0.9,2,2v8
							C15095,15314.5,15094.1,15315.4,15093,15315.4z M15049,15305.4L15049,15305.4v8h44v-8H15049z"/>
					</g>
				</g>
				<g id="Rectangle_2219">
					<path fill="#D6EEFF" d="M15374,17872h18.2l0,0v12l0,0h-18.2c-1.1,0-2-0.9-2-2v-8C15372,17872.9,15372.9,17872,15374,17872z"/>
				</g>
				<g id="Rectangle_2220">
					<path fill="#D6EEFF" d="M15374,17889h18.2l0,0v12l0,0h-18.2c-1.1,0-2-0.9-2-2v-8C15372,17889.9,15372.9,17889,15374,17889z"/>
				</g>
				<g id="Rectangle_2221">
					<path fill="#D6EEFF" d="M15374,17906h18.2l0,0v12l0,0h-18.2c-1.1,0-2-0.9-2-2v-8C15372,17906.9,15372.9,17906,15374,17906z"/>
				</g>
				<g id="Ellipse_1054">
					<circle fill="#137FCF" cx="15413.5" cy="17912" r="1.5"/>
				</g>
				<g id="Ellipse_1057">
					<circle fill="#137FCF" cx="15408.5" cy="17912" r="1.5"/>
				</g>
				<g id="Rectangle_2225" transform="translate(325 2568.578)">
					<g>
						<path fill="none" d="M15049,15303.4h44c1.1,0,2,0.9,2,2v8c0,1.1-0.9,2-2,2h-44c-1.1,0-2-0.9-2-2v-8
							C15047,15304.3,15047.9,15303.4,15049,15303.4z"/>
					</g>
					<g>
						<path fill="#137FCF" d="M15093,15315.4h-44c-1.1,0-2-0.9-2-2v-8c0-1.1,0.9-2,2-2h44c1.1,0,2,0.9,2,2v8
							C15095,15314.5,15094.1,15315.4,15093,15315.4z M15049,15305.4L15049,15305.4v8h44v-8H15049z"/>
					</g>
				</g>
				<g id="Rectangle_2226" transform="translate(325 2585.578)">
					<g>
						<path fill="none" d="M15049,15303.4h44c1.1,0,2,0.9,2,2v8c0,1.1-0.9,2-2,2h-44c-1.1,0-2-0.9-2-2v-8
							C15047,15304.3,15047.9,15303.4,15049,15303.4z"/>
					</g>
					<g>
						<path fill="#137FCF" d="M15093,15315.4h-44c-1.1,0-2-0.9-2-2v-8c0-1.1,0.9-2,2-2h44c1.1,0,2,0.9,2,2v8
							C15095,15314.5,15094.1,15315.4,15093,15315.4z M15049,15305.4L15049,15305.4v8h44v-8H15049z"/>
					</g>
				</g>
				<g id="Rectangle_2227" transform="translate(325 2602.578)">
					<g>
						<path fill="none" d="M15049,15303.4h44c1.1,0,2,0.9,2,2v8c0,1.1-0.9,2-2,2h-44c-1.1,0-2-0.9-2-2v-8
							C15047,15304.3,15047.9,15303.4,15049,15303.4z"/>
					</g>
					<g>
						<path fill="#137FCF" d="M15093,15315.4h-44c-1.1,0-2-0.9-2-2v-8c0-1.1,0.9-2,2-2h44c1.1,0,2,0.9,2,2v8
							C15095,15314.5,15094.1,15315.4,15093,15315.4z M15049,15305.4L15049,15305.4v8h44v-8H15049z"/>
					</g>
				</g>
				<g id="Ellipse_1062">
					<circle fill="#137FCF" cx="15413.5" cy="17895" r="1.5"/>
				</g>
				<g id="Ellipse_1063">
					<circle fill="#137FCF" cx="15408.5" cy="17895" r="1.5"/>
				</g>
				<g id="Ellipse_1064">
					<circle fill="#137FCF" cx="15413.5" cy="17878" r="1.5"/>
				</g>
				<g id="Ellipse_1065">
					<circle fill="#137FCF" cx="15408.5" cy="17878" r="1.5"/>
				</g>
			</g>
		</g>
	</g>
</g>
</svg>
