<svg xmlns="http://www.w3.org/2000/svg" xmlns:xlink="http://www.w3.org/1999/xlink" viewBox="0 0 400 400"><defs><style>.a{isolation:isolate;}.b{fill:url(#a);}.c{opacity:0.64;fill:url(#b);}.d{fill:#005b9f;}.e{fill:#f59b6b;}.f{fill:#fffffb;}.g{fill:url(#c);}.h{fill:url(#d);}.i{fill:url(#e);}.j{fill:url(#f);}.k{fill:url(#g);}.l{fill:url(#h);}.m{fill:url(#i);}.n{fill:url(#j);}.o{fill:#288ed9;}.p{fill:url(#k);}.q{fill:url(#l);}.r{opacity:0.45;mix-blend-mode:overlay;fill:url(#m);}.s{fill:#fff;}.t{fill:url(#n);}.u{fill:#21e2e2;}.v{fill:#28aae1;}</style><linearGradient id="a" x1="-1438.38" y1="-88.56" x2="-1438.39" y2="-87.92" gradientTransform="matrix(740.56, 0, 0, -612.51, 1065416.4, -53827.03)" gradientUnits="userSpaceOnUse"><stop offset="0" stop-color="#c6e6ff"/><stop offset="1" stop-color="#fff"/></linearGradient><linearGradient id="b" x1="718.08" y1="851.07" x2="50.21" y2="40.99" gradientTransform="matrix(0.86, 0.01, -0.01, 0.85, 10.25, 11.89)" gradientUnits="userSpaceOnUse"><stop offset="0" stop-color="#4255b3"/><stop offset="1" stop-color="#e9ffff"/></linearGradient><linearGradient id="c" x1="246.69" y1="212.87" x2="207.28" y2="256.67" gradientTransform="translate(7.8 -71.2) rotate(0)" xlink:href="#b"/><linearGradient id="d" x1="223.2" y1="266.44" x2="216.3" y2="237.85" gradientTransform="translate(7.8 -71.2) rotate(0)" xlink:href="#b"/><linearGradient id="e" x1="223.2" y1="270.13" x2="216.3" y2="241.54" gradientTransform="translate(7.8 -71.2) rotate(0)" xlink:href="#b"/><linearGradient id="f" x1="223.2" y1="273.82" x2="216.3" y2="245.23" gradientTransform="translate(7.8 -71.2) rotate(0)" xlink:href="#b"/><linearGradient id="g" x1="223.2" y1="277.51" x2="216.3" y2="248.92" gradientTransform="translate(7.8 -71.2) rotate(0)" xlink:href="#b"/><linearGradient id="h" x1="223.2" y1="281.2" x2="216.3" y2="252.61" gradientTransform="translate(7.8 -71.2) rotate(0)" xlink:href="#b"/><linearGradient id="i" x1="215.91" y1="274.76" x2="212.03" y2="258.7" gradientTransform="translate(7.8 -71.2) rotate(0)" xlink:href="#b"/><linearGradient id="j" x1="202.04" y1="175.7" x2="161.84" y2="276.51" gradientTransform="translate(7.8 -71.2) rotate(0)" xlink:href="#b"/><linearGradient id="k" x1="165.22" y1="257.04" x2="200.17" y2="224.79" gradientTransform="translate(7.8 -71.2) rotate(0)" gradientUnits="userSpaceOnUse"><stop offset="0" stop-color="#3e2b7a"/><stop offset="1" stop-color="#9266ff"/></linearGradient><linearGradient id="l" x1="251.87" y1="141.71" x2="217.35" y2="207.08" gradientTransform="translate(4.8 -2.6) rotate(0.8)" gradientUnits="userSpaceOnUse"><stop offset="0" stop-color="#44989f"/><stop offset="0.21" stop-color="#39b0b4"/><stop offset="0.52" stop-color="#2ccbcd"/><stop offset="0.8" stop-color="#24dcdd"/><stop offset="1" stop-color="#21e2e2"/></linearGradient><linearGradient id="m" x1="256.99" y1="142.66" x2="192.54" y2="233.37" gradientTransform="translate(4.8 -2.6) rotate(0.8)" gradientUnits="userSpaceOnUse"><stop offset="0"/><stop offset="1" stop-opacity="0"/></linearGradient><linearGradient id="n" x1="318.12" y1="175" x2="277.92" y2="275.81" gradientTransform="translate(7.8 -71.2) rotate(0)" xlink:href="#b"/></defs><title>direct-admin-host</title><g class="a"><path class="b" d="M198.3,82.5c61.3,39.1,131.4,56.7,131.4,56.7s77.1,11.7,48.8,99.6-32.1,119.4-76.6,121.6c-42.3,1.2-66-16.2-107.7-13.2-36.7,2.8-62,19.4-123.3-4.8C-27.3,299-19.9-55.2,198.3,82.5Z"/><path class="c" d="M343.8,127.6V308.9a5.7,5.7,0,0,1-5.8,5.7H47a5.7,5.7,0,0,1-5.7-5.6V127.7A5.8,5.8,0,0,1,47,122H338.1A5.6,5.6,0,0,1,343.8,127.6Z"/><path class="d" d="M343.8,127.6v8.7H41.3v-8.7A5.8,5.8,0,0,1,47,122H338.1A5.6,5.6,0,0,1,343.8,127.6Z"/><path class="e" d="M332.8,129.1a1.7,1.7,0,0,1-1.7,1.7,1.7,1.7,0,1,1,0-3.3A1.7,1.7,0,0,1,332.8,129.1Z"/><path class="e" d="M321.5,129.2a1.7,1.7,0,0,1-1.7,1.6,1.7,1.7,0,1,1,1.7-1.6Z"/><path class="e" d="M310.2,129.2a1.7,1.7,0,0,1-1.7,1.6,1.7,1.7,0,1,1,1.7-1.6Z"/><path class="f" d="M236.2,162l-5.1-5.1H211a1.3,1.3,0,0,0-1.3,1.4v42.2a1.3,1.3,0,0,0,1.3,1.3h28.9a1.2,1.2,0,0,0,1.3-1.3V167.1Z"/><path class="g" d="M232.7,167.1h8.5l-5-5.1-5.1-5.1v8.6A1.6,1.6,0,0,0,232.7,167.1Z"/><rect class="h" x="215.6" y="171.8" width="19.6" height="0.6"/><rect class="i" x="215.6" y="175.5" width="19.6" height="0.6"/><rect class="j" x="215.6" y="179.2" width="19.6" height="0.6"/><rect class="k" x="215.6" y="182.9" width="19.6" height="0.6"/><rect class="l" x="215.6" y="186.5" width="19.6" height="0.6"/><rect class="m" x="215.6" y="190.2" width="9.9" height="0.6"/><path class="f" d="M186,164.2l-5-5H160.8a1.3,1.3,0,0,0-1.3,1.3v42.3a1.3,1.3,0,0,0,1.3,1.3h29a1.3,1.3,0,0,0,1.3-1.3V169.3Z"/><path class="n" d="M182.6,169.3h8.5l-5.1-5.1-5-5v8.5A1.6,1.6,0,0,0,182.6,169.3Z"/><path class="o" d="M192.5,167.9l-5.1-5.1H167.3a1.3,1.3,0,0,0-1.3,1.3v42.3a1.3,1.3,0,0,0,1.3,1.3h29a1.3,1.3,0,0,0,1.3-1.3V172.9Z"/><path class="p" d="M189,172.9h8.6l-5.1-5-5.1-5.1v8.5A1.6,1.6,0,0,0,189,172.9Z"/><path class="q" d="M242,167.8l-5.1-5H216.8a1.3,1.3,0,0,0-1.3,1.3v42.3a1.3,1.3,0,0,0,1.3,1.3h29a1.3,1.3,0,0,0,1.3-1.3V172.9Z"/><path class="r" d="M238.5,172.9h8.6l-5.1-5.1-5.1-5v8.5A1.6,1.6,0,0,0,238.5,172.9Z"/><rect class="s" x="221.5" y="177.6" width="19.6" height="0.6"/><rect class="s" x="221.5" y="181.3" width="19.6" height="0.6"/><rect class="s" x="221.5" y="185" width="19.6" height="0.6"/><rect class="s" x="221.5" y="188.7" width="19.6" height="0.6"/><rect class="s" x="221.5" y="192.4" width="19.6" height="0.6"/><rect class="s" x="221.5" y="196.1" width="9.9" height="0.6"/><rect class="f" x="166" y="245.9" width="29.9" height="37.8"/><path class="e" d="M202.1,256.4v30.8a1.8,1.8,0,0,1-1.8,1.8H161.7a1.8,1.8,0,0,1-1.8-1.8V263.9a1.8,1.8,0,0,1,1.8-1.8h18.1a1.9,1.9,0,0,0,1.7-1l2.5-5.4a1.8,1.8,0,0,1,1.7-1.1h14.6A1.8,1.8,0,0,1,202.1,256.4Z"/><rect class="f" x="224.4" y="245.9" width="29.9" height="37.8"/><path class="o" d="M260.4,256.4v30.7a1.9,1.9,0,0,1-1.8,1.9H220a1.8,1.8,0,0,1-1.8-1.8V263.9a1.8,1.8,0,0,1,1.8-1.8h18.2a1.8,1.8,0,0,0,1.6-1l2.6-5.5a1.8,1.8,0,0,1,1.6-1h14.6A1.8,1.8,0,0,1,260.4,256.4Z"/><path class="f" d="M302.1,163.5l-5.1-5.1H276.9a1.3,1.3,0,0,0-1.3,1.4V202a1.3,1.3,0,0,0,1.3,1.4h29a1.3,1.3,0,0,0,1.3-1.3V168.6Z"/><path class="t" d="M298.6,168.6h8.6l-5.1-5.1-5.1-5.1V167A1.6,1.6,0,0,0,298.6,168.6Z"/><path class="u" d="M308.6,167.1l-5.1-5H283.4a1.3,1.3,0,0,0-1.3,1.3v42.2a1.3,1.3,0,0,0,1.3,1.4h29a1.3,1.3,0,0,0,1.3-1.4V172.2Z"/><path class="u" d="M305.1,172.2h8.6l-5.1-5.1-5.1-5v8.5A1.6,1.6,0,0,0,305.1,172.2Z"/><rect class="f" x="282.1" y="245.2" width="29.9" height="37.8"/><path class="e" d="M318.2,255.7v30.7a1.8,1.8,0,0,1-1.8,1.8H277.8a1.9,1.9,0,0,1-1.8-1.9V263.2a1.8,1.8,0,0,1,1.8-1.8h18.1a1.9,1.9,0,0,0,1.7-1l2.5-5.5a1.9,1.9,0,0,1,1.7-1h14.6A1.8,1.8,0,0,1,318.2,255.7Z"/><circle class="v" cx="97.7" cy="221.1" r="28"/><path class="s" d="M120,218.7l-12.4-12.4-9.9,9.9h0l-9.9-9.9L75.5,218.6l9.8,9.9h0l12.4,12.4,12.4-12.3h0Zm-12.4-7.4,7.4,7.4-7.4,7.4-7.4-7.4Zm-19.8-.1,7.4,7.5-7.4,7.4-7.4-7.5ZM97.7,236l-7.4-7.5,7.4-7.4,7.4,7.5Z"/></g></svg>