<svg xmlns="http://www.w3.org/2000/svg" xmlns:xlink="http://www.w3.org/1999/xlink" viewBox="0 0 400 400"><defs><style>.a{fill:url(#a);}.b{fill:#137fcf;}.c{fill:#288ed9;}.d,.e,.f,.m,.t,.v{fill:none;}.e,.f{stroke:#288ed9;}.e{stroke-width:0.37px;}.f,.m{stroke-linecap:round;stroke-miterlimit:10;stroke-width:1.46px;}.g{fill:url(#b);}.h{fill:#024679;}.i,.o{fill:#005b9f;}.i{opacity:0.57;isolation:isolate;}.j{opacity:0.5;}.k{fill:#1f364c;}.l{fill:#043c67;}.m{stroke:#1f364c;}.n{fill:#166eaf;}.p{fill:#21e2e2;}.q{fill:#ffbc98;}.r{fill:#0e71bb;}.s{fill:#52acea;}.t{stroke:#ffbc98;}.t,.v{stroke-width:0.73px;}.u{fill:#80c9ff;}.v{stroke:#21e2e2;}.w{fill:#d6eeff;}.x{fill:#fff;}.y{fill:#191919;}.z{fill:#c91b1b;}.aa{fill:#f9c7a5;}.ab{fill:#0876ba;}.ac{fill:#ffe7cb;}.ad{fill:#152735;}.ae{fill:#adb3ba;}.af{fill:#6d7a85;}.ag{fill:#565656;}</style><linearGradient id="a" x1="1.19" y1="-88.53" x2="1.19" y2="-87.88" gradientTransform="matrix(740.56, 0, 0, -612.51, -677.44, -53827.03)" gradientUnits="userSpaceOnUse"><stop offset="0" stop-color="#c6e6ff"/><stop offset="1" stop-color="#fff"/></linearGradient><linearGradient id="b" x1="1.06" y1="-90.4" x2="1.06" y2="-91.41" gradientTransform="matrix(531, 0, 0, -95, -352.26, -8320.65)" gradientUnits="userSpaceOnUse"><stop offset="0" stop-color="#288ed9"/><stop offset="1" stop-color="#137fcf" stop-opacity="0.05"/></linearGradient></defs><title>foreign-host</title><path class="a" d="M204.2,59.3C265.6,98.4,335.8,116,335.8,116s77.4,11.8,48.9,99.9S352.6,335.5,308,337.7c-42.3,1.2-66.1-16.2-107.9-13.2-36.8,2.8-62.1,19.4-123.5-4.8C-21.8,276.2-14.5-78.7,204.2,59.3Z"/><rect class="b" x="43.1" y="283.1" width="16.7" height="16.74" rx="2.5"/><path class="c" d="M51.7,287.6a4.1,4.1,0,1,1,0,8.1,4.1,4.1,0,0,1,0-8.1Z"/><circle class="d" cx="51.7" cy="291.7" r="5.6"/><circle class="e" cx="51.7" cy="291.7" r="5.3"/><path class="f" d="M106.1,274.5H75.2c-4.2,0-6.2,2.3-6.1,6.4,0,1,.1,18.1.1,21.4s-2.5,5.3-6.7,5.3H56.6c-3.1,0-5-2.1-5-4.4v-7.7"/><ellipse class="g" cx="209" cy="339.5" rx="134.4" ry="24.1"/><rect class="h" x="103.9" y="161" width="95.2" height="178.25" rx="5.1"/><path class="i" d="M109.5,161H155V339.3H109.5a5.1,5.1,0,0,1-5.1-5.1V166.1A5.1,5.1,0,0,1,109.5,161Z"/><g class="j"><rect class="k" x="130.2" y="172.2" width="43" height="1.52"/><rect class="k" x="130.2" y="176.2" width="43" height="1.52"/><rect class="k" x="130.2" y="180.3" width="43" height="1.52"/><rect class="k" x="130.2" y="184.3" width="43" height="1.52"/><rect class="k" x="130.2" y="188.4" width="43" height="1.52"/></g><g class="j"><rect class="k" x="129.7" y="315" width="43" height="1.52"/><rect class="k" x="129.7" y="319" width="43" height="1.52"/><rect class="k" x="129.7" y="323.1" width="43" height="1.52"/><rect class="k" x="129.7" y="327.1" width="43" height="1.52"/></g><rect class="l" x="129.7" y="201.5" width="50.6" height="93.68"/><path class="m" d="M155,210.5v11.1c0,2.3,1.2,3.4,3.3,3.4h3.3c2.1,0,2.7,1.4,2.7,3.7v65.3"/><path class="m" d="M151.5,213.8v4.7c0,2.4,1.2,3.5,3.4,3.4h3.2c2.1,0,2.8,1.4,2.8,3.7v68.3"/><path class="m" d="M161.2,208.8v8.9c0,2,1,2.9,2.9,2.9h5.3c1.8,0,2.3,1.2,2.3,3.2v3.4"/><path class="m" d="M180.1,208H158.3c-2.4,0-3.4,1.2-3.4,3.4,0,.6.1,1.6.1,3.3"/><path class="m" d="M151.5,215.1v-3.3c.1-2.2-1-3.4-3.4-3.4H131"/><path class="m" d="M137.9,208.4v43.7c0,2.3,1.2,3.4,3.4,3.4h3.2c2.2,0,2.8,1.4,2.8,3.7v34.7h0"/><path class="m" d="M141.1,208.5v14.1c0,2.3,1.2,3.4,3.4,3.4h3.3c2.1,0,2.7,1.4,2.7,3.8v29.6"/><path class="m" d="M144.3,208.8v55.5c0,2.3,1.2,3.4,3.3,3.4h3.3c2.1,0,2.8,1.4,2.8,3.7v22.6"/><rect class="n" x="112.7" y="242.8" width="9.1" height="34.27" rx="4.5"/><path class="o" d="M116.6,266.3v-12a2.2,2.2,0,0,1,2.2-2.2h0a2.2,2.2,0,0,1,2.2,2.2v12a2.2,2.2,0,0,1-2.2,2.2h0A2.2,2.2,0,0,1,116.6,266.3Z"/><path class="p" d="M145.3,306.5h0a1.7,1.7,0,0,1,1.6,1.7h0a1.6,1.6,0,0,1-1.6,1.7h0a1.6,1.6,0,0,1-1.7-1.7h0A1.7,1.7,0,0,1,145.3,306.5Z"/><path class="q" d="M150.1,306.5h0a1.7,1.7,0,0,1,1.7,1.7h0a1.6,1.6,0,0,1-1.7,1.7h0a1.6,1.6,0,0,1-1.6-1.7h0A1.7,1.7,0,0,1,150.1,306.5Z"/><path class="c" d="M154.9,306.5h0a1.8,1.8,0,0,1,1.7,1.7h0a1.7,1.7,0,0,1-1.7,1.7h0a1.7,1.7,0,0,1-1.7-1.7h0A1.8,1.8,0,0,1,154.9,306.5Z"/><path class="b" d="M159.8,306.5h0a1.7,1.7,0,0,1,1.6,1.7h0a1.6,1.6,0,0,1-1.6,1.7h0a1.6,1.6,0,0,1-1.7-1.7h0A1.7,1.7,0,0,1,159.8,306.5Z"/><path class="c" d="M164.5,306.5h0a1.8,1.8,0,0,1,1.7,1.7h0a1.7,1.7,0,0,1-1.7,1.7h0a1.7,1.7,0,0,1-1.7-1.7h0A1.8,1.8,0,0,1,164.5,306.5Z"/><rect class="p" x="110.5" y="219.5" width="3.5" height="3.61" rx="1.7"/><rect class="q" x="115.6" y="219.5" width="3.5" height="3.61" rx="1.7"/><rect class="c" x="110.5" y="224.2" width="3.5" height="3.61" rx="1.7"/><rect class="b" x="115.6" y="224.2" width="3.5" height="3.61" rx="1.7"/><rect class="c" x="120.5" y="224.2" width="3.5" height="3.61" rx="1.7"/><rect class="c" x="120.5" y="219.5" width="3.5" height="3.61" rx="1.7"/><rect class="p" x="110.5" y="228.9" width="3.5" height="3.61" rx="1.7"/><rect class="c" x="115.6" y="228.9" width="3.5" height="3.61" rx="1.7"/><rect class="c" x="110.5" y="233.6" width="3.5" height="3.61" rx="1.7"/><rect class="b" x="115.6" y="233.6" width="3.5" height="3.61" rx="1.7"/><rect class="c" x="120.5" y="233.6" width="3.5" height="3.61" rx="1.7"/><rect class="c" x="120.5" y="228.9" width="3.5" height="3.61" rx="1.7"/><rect class="k" x="175.7" y="209.5" width="127.9" height="9.93"/><path class="r" d="M174.4,182.7H305.1c2.6,0,4.7,1.5,4.7,3.4v21.7c0,1.9-2.1,3.4-4.7,3.4H174.4c-2.6,0-4.7-1.5-4.7-3.4V186.1C169.7,184.2,171.8,182.7,174.4,182.7Z"/><path class="o" d="M171.7,182.7H217v28.5H171.7a2,2,0,0,1-2-2V184.7A2,2,0,0,1,171.7,182.7Z"/><path class="s" d="M257.9,192.9h0a1.5,1.5,0,0,1,1.5,1.5h0a1.5,1.5,0,0,1-1.5,1.5h0a1.5,1.5,0,0,1-1.5-1.5h0A1.5,1.5,0,0,1,257.9,192.9Z"/><path class="p" d="M261.5,198.8h0a1.5,1.5,0,0,1,1.5,1.5h0a1.5,1.5,0,0,1-1.5,1.5h0a1.5,1.5,0,0,1-1.5-1.5h0A1.5,1.5,0,0,1,261.5,198.8Z"/><path class="s" d="M263.9,192.9h0a1.5,1.5,0,0,1,1.4,1.5h0a1.5,1.5,0,0,1-1.4,1.5h0a1.5,1.5,0,0,1-1.5-1.5h0A1.5,1.5,0,0,1,263.9,192.9Z"/><path class="s" d="M267.4,198.8h0a1.5,1.5,0,0,1,1.5,1.5h0a1.5,1.5,0,0,1-1.5,1.5h0a1.5,1.5,0,0,1-1.5-1.5h0A1.5,1.5,0,0,1,267.4,198.8Z"/><path class="q" d="M269.8,192.9h0a1.5,1.5,0,0,1,1.5,1.5h0a1.5,1.5,0,0,1-1.5,1.5h0a1.5,1.5,0,0,1-1.5-1.5h0A1.5,1.5,0,0,1,269.8,192.9Z"/><path class="s" d="M273.4,198.8h0a1.5,1.5,0,0,1,1.4,1.5h0a1.5,1.5,0,0,1-1.4,1.5h0a1.5,1.5,0,0,1-1.5-1.5h0A1.5,1.5,0,0,1,273.4,198.8Z"/><path class="s" d="M275.7,192.9h0a1.5,1.5,0,0,1,1.5,1.5h0a1.5,1.5,0,0,1-1.5,1.5h0a1.5,1.5,0,0,1-1.5-1.5h0A1.5,1.5,0,0,1,275.7,192.9Z"/><path class="p" d="M279.3,198.8h0a1.5,1.5,0,0,1,1.5,1.5h0a1.5,1.5,0,0,1-1.5,1.5h0a1.5,1.5,0,0,1-1.5-1.5h0A1.5,1.5,0,0,1,279.3,198.8Z"/><path class="s" d="M281.7,192.9h0a1.5,1.5,0,0,1,1.4,1.5h0a1.5,1.5,0,0,1-1.4,1.5h0a1.5,1.5,0,0,1-1.5-1.5h0A1.5,1.5,0,0,1,281.7,192.9Z"/><path class="s" d="M285.2,198.8h0a1.5,1.5,0,0,1,1.5,1.5h0a1.5,1.5,0,0,1-1.5,1.5h0a1.5,1.5,0,0,1-1.5-1.5h0A1.5,1.5,0,0,1,285.2,198.8Z"/><circle class="d" cx="295.6" cy="197.1" r="2.5"/><circle class="t" cx="295.6" cy="197.1" r="2"/><path class="s" d="M251,191.8h0a1.1,1.1,0,0,1,1.1,1.1v8.4a1.1,1.1,0,0,1-1.1,1.1h0a1.1,1.1,0,0,1-1.1-1.1v-8.4A1.1,1.1,0,0,1,251,191.8Z"/><path class="s" d="M246.5,191.8h0a1.1,1.1,0,0,1,1.2,1.1v8.4a1.1,1.1,0,0,1-1.2,1.1h0a1.1,1.1,0,0,1-1.1-1.1v-8.4A1.1,1.1,0,0,1,246.5,191.8Z"/><rect class="o" x="224.1" y="191.8" width="17.9" height="4.48"/><rect class="o" x="224.1" y="197.9" width="17.9" height="4.48"/><path class="q" d="M249.9,194h2.2v7.3a1.1,1.1,0,0,1-1.1,1.1h0a1.1,1.1,0,0,1-1.1-1.1V194Z"/><path class="p" d="M245.4,198.3h2.3v3a1.1,1.1,0,0,1-1.2,1.1h0a1.1,1.1,0,0,1-1.1-1.1h0v-3Z"/><rect class="u" x="224.1" y="191.8" width="4.5" height="4.48"/><rect class="u" x="224.1" y="197.9" width="4.5" height="4.48"/><rect class="c" x="230.8" y="193.5" width="9" height="1.12"/><rect class="c" x="230.8" y="199.6" width="9" height="1.12"/><circle class="d" cx="295.6" cy="197.1" r="5.3"/><circle class="v" cx="295.6" cy="197.1" r="4.8"/><path class="c" d="M204.2,200.9h0a2,2,0,0,1,1.9,1.9h0a1.9,1.9,0,0,1-1.9,1.9h0a1.8,1.8,0,0,1-1.8-1.9h0A1.9,1.9,0,0,1,204.2,200.9Z"/><path class="b" d="M204.3,190.1h0a.9.9,0,0,1,.9.8v7.3a.9.9,0,0,1-.9.9h0a.9.9,0,0,1-.8-.9v-7.3A.9.9,0,0,1,204.3,190.1Z"/><path class="w" d="M198.6,200.9h0a2,2,0,0,1,1.9,1.9h0a1.9,1.9,0,0,1-1.9,1.9h0a1.9,1.9,0,0,1-1.9-1.9h0A2,2,0,0,1,198.6,200.9Z"/><path class="x" d="M198.7,193.5h0a.8.8,0,0,1,.9.8v3.9a.9.9,0,0,1-.9.9h0a.8.8,0,0,1-.8-.9v-3.9A.7.7,0,0,1,198.7,193.5Z"/><path class="c" d="M193,200.9h0a1.9,1.9,0,0,1,1.8,1.9h0a1.8,1.8,0,0,1-1.8,1.9h0a1.9,1.9,0,0,1-1.9-1.9h0A2,2,0,0,1,193,200.9Z"/><path class="b" d="M193.1,188.8h0a.8.8,0,0,1,.8.8v8.6a.8.8,0,0,1-.8.9h0a.8.8,0,0,1-.8-.9v-8.6A.8.8,0,0,1,193.1,188.8Z"/><path class="q" d="M187.4,200.9h0a1.9,1.9,0,0,1,1.8,1.9h0a1.8,1.8,0,0,1-1.8,1.9h0a1.9,1.9,0,0,1-1.9-1.9h0A2,2,0,0,1,187.4,200.9Z"/><path class="q" d="M187.5,190.9h0a.8.8,0,0,1,.8.9v6.4a.8.8,0,0,1-.8.9h0a.8.8,0,0,1-.8-.9v-6.4A.8.8,0,0,1,187.5,190.9Z"/><path class="p" d="M181.8,200.9h0a1.9,1.9,0,0,1,1.8,1.9h0a1.8,1.8,0,0,1-1.8,1.9h0a1.9,1.9,0,0,1-1.9-1.9h0A2,2,0,0,1,181.8,200.9Z"/><path class="p" d="M181.9,194.6h0a.8.8,0,0,1,.8.8v2.8a.8.8,0,0,1-.8.9h0a.8.8,0,0,1-.8-.9v-2.8A.8.8,0,0,1,181.9,194.6Z"/><rect class="k" x="175.7" y="243.5" width="127.9" height="9.93"/><path class="r" d="M174.4,216.6H305.1c2.6,0,4.7,1.5,4.7,3.4v21.7c0,1.9-2.1,3.4-4.7,3.4H174.4c-2.6,0-4.7-1.5-4.7-3.4V220C169.7,218.1,171.8,216.6,174.4,216.6Z"/><path class="o" d="M171.7,216.6H217v28.5H171.7a2,2,0,0,1-2-2V218.6A2,2,0,0,1,171.7,216.6Z"/><path class="s" d="M257.9,226.8h0a1.5,1.5,0,0,1,1.5,1.5h0a1.5,1.5,0,0,1-1.5,1.5h0a1.5,1.5,0,0,1-1.5-1.5h0A1.5,1.5,0,0,1,257.9,226.8Z"/><path class="p" d="M261.5,232.8h0a1.5,1.5,0,0,1,1.5,1.4h0a1.5,1.5,0,0,1-1.5,1.5h0a1.5,1.5,0,0,1-1.5-1.5h0A1.5,1.5,0,0,1,261.5,232.8Z"/><path class="s" d="M263.9,226.8h0a1.5,1.5,0,0,1,1.4,1.5h0a1.5,1.5,0,0,1-1.4,1.5h0a1.5,1.5,0,0,1-1.5-1.5h0A1.5,1.5,0,0,1,263.9,226.8Z"/><path class="s" d="M267.4,232.8h0a1.5,1.5,0,0,1,1.5,1.4h0a1.5,1.5,0,0,1-1.5,1.5h0a1.5,1.5,0,0,1-1.5-1.5h0A1.5,1.5,0,0,1,267.4,232.8Z"/><path class="q" d="M269.8,226.8h0a1.5,1.5,0,0,1,1.5,1.5h0a1.5,1.5,0,0,1-1.5,1.5h0a1.5,1.5,0,0,1-1.5-1.5h0A1.5,1.5,0,0,1,269.8,226.8Z"/><path class="s" d="M273.4,232.8h0a1.4,1.4,0,0,1,1.4,1.4h0a1.4,1.4,0,0,1-1.4,1.5h0a1.4,1.4,0,0,1-1.5-1.5h0A1.4,1.4,0,0,1,273.4,232.8Z"/><path class="s" d="M275.7,226.8h0a1.5,1.5,0,0,1,1.5,1.5h0a1.5,1.5,0,0,1-1.5,1.5h0a1.5,1.5,0,0,1-1.5-1.5h0A1.5,1.5,0,0,1,275.7,226.8Z"/><path class="p" d="M279.3,232.8h0a1.5,1.5,0,0,1,1.5,1.4h0a1.5,1.5,0,0,1-1.5,1.5h0a1.5,1.5,0,0,1-1.5-1.5h0A1.5,1.5,0,0,1,279.3,232.8Z"/><path class="s" d="M281.7,226.8h0a1.5,1.5,0,0,1,1.4,1.5h0a1.5,1.5,0,0,1-1.4,1.5h0a1.5,1.5,0,0,1-1.5-1.5h0A1.5,1.5,0,0,1,281.7,226.8Z"/><path class="s" d="M285.2,232.8h0a1.5,1.5,0,0,1,1.5,1.4h0a1.5,1.5,0,0,1-1.5,1.5h0a1.5,1.5,0,0,1-1.5-1.5h0A1.5,1.5,0,0,1,285.2,232.8Z"/><circle class="d" cx="295.6" cy="231" r="2.5"/><circle class="t" cx="295.6" cy="231" r="2"/><path class="s" d="M251,225.7h0a1.1,1.1,0,0,1,1.1,1.1v8.4a1.1,1.1,0,0,1-1.1,1.2h0a1.1,1.1,0,0,1-1.1-1.2v-8.4A1.1,1.1,0,0,1,251,225.7Z"/><path class="s" d="M246.5,225.7h0a1.1,1.1,0,0,1,1.2,1.1v8.4a1.2,1.2,0,0,1-1.2,1.2h0a1.1,1.1,0,0,1-1.1-1.2v-8.4A1.1,1.1,0,0,1,246.5,225.7Z"/><rect class="o" x="224.1" y="225.7" width="17.9" height="4.48"/><rect class="o" x="224.1" y="231.9" width="17.9" height="4.48"/><path class="q" d="M249.9,227.9h2.2v7.3a1.1,1.1,0,0,1-1.1,1.2h0a1.1,1.1,0,0,1-1.1-1.2v-7.3Z"/><path class="p" d="M245.4,232.2h2.3v3a1.2,1.2,0,0,1-1.2,1.2h0a1.1,1.1,0,0,1-1.1-1.2h0v-3Z"/><rect class="u" x="224.1" y="225.7" width="4.5" height="4.48"/><rect class="u" x="224.1" y="231.9" width="4.5" height="4.48"/><rect class="c" x="230.8" y="227.4" width="9" height="1.12"/><rect class="c" x="230.8" y="233.6" width="9" height="1.12"/><circle class="d" cx="295.6" cy="231" r="5.3"/><circle class="v" cx="295.6" cy="231" r="4.8"/><path class="c" d="M204.2,235.4h0a1.9,1.9,0,0,1,1.9,1.8v.2a1.9,1.9,0,0,1-1.9,1.8h0a1.8,1.8,0,0,1-1.8-1.8v-.2A1.8,1.8,0,0,1,204.2,235.4Z"/><path class="b" d="M204.3,224.5h0a.9.9,0,0,1,.9.9v7.3a.9.9,0,0,1-.9.8h0a.9.9,0,0,1-.8-.8v-7.3A.9.9,0,0,1,204.3,224.5Z"/><path class="w" d="M198.6,235.4h0a1.9,1.9,0,0,1,1.9,1.8v.2a1.9,1.9,0,0,1-1.9,1.8h0a1.9,1.9,0,0,1-1.9-1.8v-.2A1.9,1.9,0,0,1,198.6,235.4Z"/><path class="x" d="M198.7,227.9h0a.9.9,0,0,1,.9.8v4a.9.9,0,0,1-.9.8h0a.8.8,0,0,1-.8-.8v-4A.8.8,0,0,1,198.7,227.9Z"/><path class="c" d="M193,235.4h0a1.8,1.8,0,0,1,1.8,1.8v.2a1.8,1.8,0,0,1-1.8,1.8h0a1.9,1.9,0,0,1-1.9-1.8v-.2A1.9,1.9,0,0,1,193,235.4Z"/><path class="b" d="M193.1,223.2h0a.8.8,0,0,1,.8.9v8.6a.8.8,0,0,1-.8.8h0a.8.8,0,0,1-.8-.8v-8.6A.8.8,0,0,1,193.1,223.2Z"/><path class="q" d="M187.4,235.4h0a1.8,1.8,0,0,1,1.8,1.8v.2a1.8,1.8,0,0,1-1.8,1.8h0a1.9,1.9,0,0,1-1.9-1.8v-.2A1.9,1.9,0,0,1,187.4,235.4Z"/><path class="q" d="M187.5,225.4h0a.8.8,0,0,1,.8.8v6.5a.8.8,0,0,1-.8.8h0a.8.8,0,0,1-.8-.8v-6.5A.8.8,0,0,1,187.5,225.4Z"/><path class="p" d="M181.8,235.4h0a1.8,1.8,0,0,1,1.8,1.8v.2a1.8,1.8,0,0,1-1.8,1.8h0a1.9,1.9,0,0,1-1.9-1.8v-.2A1.9,1.9,0,0,1,181.8,235.4Z"/><path class="p" d="M181.9,229h0a.8.8,0,0,1,.8.9v2.8a.8.8,0,0,1-.8.8h0a.8.8,0,0,1-.8-.8v-2.8A.8.8,0,0,1,181.9,229Z"/><rect class="k" x="175.7" y="277.4" width="127.9" height="9.93"/><path class="r" d="M174.4,250.6H305.1c2.6,0,4.7,1.5,4.7,3.3v21.8c0,1.8-2.1,3.3-4.7,3.3H174.4c-2.6,0-4.7-1.5-4.7-3.3V253.9C169.7,252.1,171.8,250.6,174.4,250.6Z"/><path class="o" d="M171.7,250.6H217V279H171.7a2,2,0,0,1-2-2V252.6A2,2,0,0,1,171.7,250.6Z"/><path class="s" d="M257.9,260.8h0a1.4,1.4,0,0,1,1.5,1.4h0a1.4,1.4,0,0,1-1.5,1.5h0a1.5,1.5,0,0,1-1.5-1.5h0A1.5,1.5,0,0,1,257.9,260.8Z"/><path class="p" d="M261.5,266.7h0a1.5,1.5,0,0,1,1.5,1.5h0a1.5,1.5,0,0,1-1.5,1.5h0a1.5,1.5,0,0,1-1.5-1.5h0A1.5,1.5,0,0,1,261.5,266.7Z"/><path class="s" d="M263.9,260.8h0a1.4,1.4,0,0,1,1.4,1.4h0a1.4,1.4,0,0,1-1.4,1.5h0a1.4,1.4,0,0,1-1.5-1.5h0A1.4,1.4,0,0,1,263.9,260.8Z"/><path class="s" d="M267.4,266.7h0a1.5,1.5,0,0,1,1.5,1.5h0a1.5,1.5,0,0,1-1.5,1.5h0a1.5,1.5,0,0,1-1.5-1.5h0A1.5,1.5,0,0,1,267.4,266.7Z"/><path class="q" d="M269.8,260.8h0a1.5,1.5,0,0,1,1.5,1.4h0a1.5,1.5,0,0,1-1.5,1.5h0a1.5,1.5,0,0,1-1.5-1.5h0A1.5,1.5,0,0,1,269.8,260.8Z"/><path class="s" d="M273.4,266.7h0a1.4,1.4,0,0,1,1.4,1.5h0a1.5,1.5,0,0,1-1.4,1.5h0a1.5,1.5,0,0,1-1.5-1.5h0A1.4,1.4,0,0,1,273.4,266.7Z"/><path class="s" d="M275.7,260.8h0a1.5,1.5,0,0,1,1.5,1.4h0a1.5,1.5,0,0,1-1.5,1.5h0a1.5,1.5,0,0,1-1.5-1.5h0A1.5,1.5,0,0,1,275.7,260.8Z"/><path class="p" d="M279.3,266.7h0a1.5,1.5,0,0,1,1.5,1.5h0a1.5,1.5,0,0,1-1.5,1.5h0a1.5,1.5,0,0,1-1.5-1.5h0A1.5,1.5,0,0,1,279.3,266.7Z"/><path class="s" d="M281.7,260.8h0a1.4,1.4,0,0,1,1.4,1.4h0a1.4,1.4,0,0,1-1.4,1.5h0a1.4,1.4,0,0,1-1.5-1.5h0A1.4,1.4,0,0,1,281.7,260.8Z"/><path class="s" d="M285.2,266.7h0a1.5,1.5,0,0,1,1.5,1.5h0a1.5,1.5,0,0,1-1.5,1.5h0a1.5,1.5,0,0,1-1.5-1.5h0A1.5,1.5,0,0,1,285.2,266.7Z"/><circle class="d" cx="295.6" cy="265" r="2.5"/><circle class="t" cx="295.6" cy="265" r="2"/><path class="s" d="M251,259.6h0a1.1,1.1,0,0,1,1.1,1.2v8.4a1.1,1.1,0,0,1-1.1,1.1h0a1.1,1.1,0,0,1-1.1-1.1v-8.4A1.1,1.1,0,0,1,251,259.6Z"/><path class="s" d="M246.5,259.6h0a1.2,1.2,0,0,1,1.2,1.2v8.4a1.1,1.1,0,0,1-1.2,1.1h0a1.1,1.1,0,0,1-1.1-1.1v-8.4A1.1,1.1,0,0,1,246.5,259.6Z"/><rect class="o" x="224.1" y="259.6" width="17.9" height="4.48"/><rect class="o" x="224.1" y="265.8" width="17.9" height="4.48"/><path class="q" d="M249.9,261.9h2.2v7.3a1.1,1.1,0,0,1-1.1,1.1h0a1.1,1.1,0,0,1-1.1-1.1v-7.3Z"/><path class="p" d="M245.4,266.1h2.3v3.1a1.1,1.1,0,0,1-1.2,1.1h0a1.1,1.1,0,0,1-1.1-1.1h0v-3.1Z"/><rect class="u" x="224.1" y="259.6" width="4.5" height="4.48"/><rect class="u" x="224.1" y="265.8" width="4.5" height="4.48"/><rect class="c" x="230.8" y="261.3" width="9" height="1.12"/><rect class="c" x="230.8" y="267.5" width="9" height="1.12"/><circle class="d" cx="295.6" cy="265" r="5.3"/><circle class="v" cx="295.6" cy="265" r="4.8"/><path class="c" d="M204.2,269.3h0a1.9,1.9,0,0,1,1.9,1.8v.2a1.9,1.9,0,0,1-1.9,1.8h0a1.8,1.8,0,0,1-1.8-1.8v-.2A1.8,1.8,0,0,1,204.2,269.3Z"/><path class="b" d="M204.3,258.5h0a.8.8,0,0,1,.9.8v7.3a.9.9,0,0,1-.9.8h0a.9.9,0,0,1-.8-.8v-7.3A.8.8,0,0,1,204.3,258.5Z"/><path class="w" d="M198.6,269.3h0a1.9,1.9,0,0,1,1.9,1.8v.2a1.9,1.9,0,0,1-1.9,1.8h0a1.9,1.9,0,0,1-1.9-1.8v-.2A1.9,1.9,0,0,1,198.6,269.3Z"/><path class="x" d="M198.7,261.8h0a.9.9,0,0,1,.9.9v3.9a.9.9,0,0,1-.9.8h0a.8.8,0,0,1-.8-.8v-3.9A.8.8,0,0,1,198.7,261.8Z"/><path class="c" d="M193,269.3h0a1.8,1.8,0,0,1,1.8,1.8v.2a1.8,1.8,0,0,1-1.8,1.8h0a1.9,1.9,0,0,1-1.9-1.8v-.2A1.9,1.9,0,0,1,193,269.3Z"/><path class="b" d="M193.1,257.2h0a.7.7,0,0,1,.8.8v8.6a.8.8,0,0,1-.8.8h0a.8.8,0,0,1-.8-.8V258A.7.7,0,0,1,193.1,257.2Z"/><path class="q" d="M187.4,269.3h0a1.8,1.8,0,0,1,1.8,1.8v.2a1.8,1.8,0,0,1-1.8,1.8h0a1.9,1.9,0,0,1-1.9-1.8v-.2A1.9,1.9,0,0,1,187.4,269.3Z"/><path class="q" d="M187.5,259.3h0a.8.8,0,0,1,.8.8v6.5a.8.8,0,0,1-.8.8h0a.8.8,0,0,1-.8-.8v-6.5A.8.8,0,0,1,187.5,259.3Z"/><path class="p" d="M181.8,269.3h0a1.8,1.8,0,0,1,1.8,1.8v.2a1.8,1.8,0,0,1-1.8,1.8h0a1.9,1.9,0,0,1-1.9-1.8v-.2A1.9,1.9,0,0,1,181.8,269.3Z"/><path class="p" d="M181.9,262.9h0a.8.8,0,0,1,.8.9v2.8a.8.8,0,0,1-.8.8h0a.8.8,0,0,1-.8-.8v-2.8A.8.8,0,0,1,181.9,262.9Z"/><rect class="k" x="175.7" y="311.3" width="127.9" height="9.93"/><path class="r" d="M174.4,284.5H305.1c2.6,0,4.7,1.5,4.7,3.4v21.7c0,1.9-2.1,3.4-4.7,3.4H174.4c-2.6,0-4.7-1.5-4.7-3.4V287.9C169.7,286,171.8,284.5,174.4,284.5Z"/><path class="o" d="M171.7,284.5H217V313H171.7a2,2,0,0,1-2-2.1V286.5A2,2,0,0,1,171.7,284.5Z"/><path class="s" d="M257.9,294.7h0a1.4,1.4,0,0,1,1.5,1.5h0a1.4,1.4,0,0,1-1.5,1.4h0a1.5,1.5,0,0,1-1.5-1.4h0A1.5,1.5,0,0,1,257.9,294.7Z"/><path class="p" d="M261.5,300.6h0a1.5,1.5,0,0,1,1.5,1.5h0a1.5,1.5,0,0,1-1.5,1.5h0a1.5,1.5,0,0,1-1.5-1.5h0A1.5,1.5,0,0,1,261.5,300.6Z"/><path class="s" d="M263.9,294.7h0a1.4,1.4,0,0,1,1.4,1.5h0a1.4,1.4,0,0,1-1.4,1.4h0a1.4,1.4,0,0,1-1.5-1.4h0A1.4,1.4,0,0,1,263.9,294.7Z"/><path class="s" d="M267.4,300.6h0a1.5,1.5,0,0,1,1.5,1.5h0a1.5,1.5,0,0,1-1.5,1.5h0a1.5,1.5,0,0,1-1.5-1.5h0A1.5,1.5,0,0,1,267.4,300.6Z"/><path class="q" d="M269.8,294.7h0a1.5,1.5,0,0,1,1.5,1.5h0a1.5,1.5,0,0,1-1.5,1.4h0a1.5,1.5,0,0,1-1.5-1.4h0A1.5,1.5,0,0,1,269.8,294.7Z"/><path class="s" d="M273.4,300.6h0a1.5,1.5,0,0,1,1.4,1.5h0a1.5,1.5,0,0,1-1.4,1.5h0a1.5,1.5,0,0,1-1.5-1.5h0A1.5,1.5,0,0,1,273.4,300.6Z"/><path class="s" d="M275.7,294.7h0a1.5,1.5,0,0,1,1.5,1.5h0a1.5,1.5,0,0,1-1.5,1.4h0a1.5,1.5,0,0,1-1.5-1.4h0A1.5,1.5,0,0,1,275.7,294.7Z"/><path class="p" d="M279.3,300.6h0a1.5,1.5,0,0,1,1.5,1.5h0a1.5,1.5,0,0,1-1.5,1.5h0a1.5,1.5,0,0,1-1.5-1.5h0A1.5,1.5,0,0,1,279.3,300.6Z"/><path class="s" d="M281.7,294.7h0a1.4,1.4,0,0,1,1.4,1.5h0a1.4,1.4,0,0,1-1.4,1.4h0a1.4,1.4,0,0,1-1.5-1.4h0A1.4,1.4,0,0,1,281.7,294.7Z"/><path class="s" d="M285.2,300.6h0a1.5,1.5,0,0,1,1.5,1.5h0a1.5,1.5,0,0,1-1.5,1.5h0a1.5,1.5,0,0,1-1.5-1.5h0A1.5,1.5,0,0,1,285.2,300.6Z"/><circle class="d" cx="295.6" cy="298.9" r="2.5"/><circle class="t" cx="295.6" cy="298.9" r="2"/><path class="s" d="M251,293.6h0a1.1,1.1,0,0,1,1.1,1.1v8.4a1.1,1.1,0,0,1-1.1,1.1h0a1.1,1.1,0,0,1-1.1-1.1v-8.4A1.1,1.1,0,0,1,251,293.6Z"/><path class="s" d="M246.5,293.6h0a1.1,1.1,0,0,1,1.2,1.1v8.4a1.1,1.1,0,0,1-1.2,1.1h0a1.1,1.1,0,0,1-1.1-1.1v-8.4A1.1,1.1,0,0,1,246.5,293.6Z"/><rect class="o" x="224.1" y="293.6" width="17.9" height="4.48"/><rect class="o" x="224.1" y="299.7" width="17.9" height="4.48"/><path class="q" d="M249.9,295.8h2.2v7.3a1.1,1.1,0,0,1-1.1,1.1h0a1.1,1.1,0,0,1-1.1-1.1v-7.3Z"/><path class="p" d="M245.4,300.1h2.3v3a1.1,1.1,0,0,1-1.2,1.1h0a1.1,1.1,0,0,1-1.1-1.1h0v-3Z"/><rect class="u" x="224.1" y="293.6" width="4.5" height="4.48"/><rect class="u" x="224.1" y="299.7" width="4.5" height="4.48"/><rect class="c" x="230.8" y="295.2" width="9" height="1.12"/><rect class="c" x="230.8" y="301.4" width="9" height="1.12"/><circle class="d" cx="295.6" cy="298.9" r="5.3"/><circle class="v" cx="295.6" cy="298.9" r="4.8"/><path class="c" d="M204.2,303.2h0a2,2,0,0,1,1.9,1.9h0a2,2,0,0,1-1.9,1.9h0a1.9,1.9,0,0,1-1.8-1.9h0A1.9,1.9,0,0,1,204.2,303.2Z"/><path class="b" d="M204.3,292.4h0a.9.9,0,0,1,.9.8v7.3a.9.9,0,0,1-.9.9h0a.9.9,0,0,1-.8-.9v-7.3A.9.9,0,0,1,204.3,292.4Z"/><path class="w" d="M198.6,303.2h0a2,2,0,0,1,1.9,1.9h0a2,2,0,0,1-1.9,1.9h0a2,2,0,0,1-1.9-1.9h0A2,2,0,0,1,198.6,303.2Z"/><path class="x" d="M198.7,295.7h0a.9.9,0,0,1,.9.9v3.9a.9.9,0,0,1-.9.9h0a.8.8,0,0,1-.8-.9v-3.9A.8.8,0,0,1,198.7,295.7Z"/><path class="c" d="M193,303.2h0a1.9,1.9,0,0,1,1.8,1.9h0a1.9,1.9,0,0,1-1.8,1.9h0a2,2,0,0,1-1.9-1.9h0A2,2,0,0,1,193,303.2Z"/><path class="b" d="M193.1,291.1h0a.8.8,0,0,1,.8.8v8.6a.8.8,0,0,1-.8.9h0a.8.8,0,0,1-.8-.9v-8.6A.8.8,0,0,1,193.1,291.1Z"/><path class="q" d="M187.4,303.2h0a1.9,1.9,0,0,1,1.8,1.9h0a1.9,1.9,0,0,1-1.8,1.9h0a2,2,0,0,1-1.9-1.9h0A2,2,0,0,1,187.4,303.2Z"/><path class="q" d="M187.5,293.2h0a.8.8,0,0,1,.8.9v6.4a.8.8,0,0,1-.8.9h0a.8.8,0,0,1-.8-.9v-6.4A.8.8,0,0,1,187.5,293.2Z"/><path class="p" d="M181.8,303.2h0a1.9,1.9,0,0,1,1.8,1.9h0a1.9,1.9,0,0,1-1.8,1.9h0a2,2,0,0,1-1.9-1.9h0A2,2,0,0,1,181.8,303.2Z"/><path class="p" d="M181.9,296.9h0a.7.7,0,0,1,.8.8v2.8a.8.8,0,0,1-.8.9h0a.8.8,0,0,1-.8-.9v-2.8A.7.7,0,0,1,181.9,296.9Z"/><path class="r" d="M174.4,318.4H305.1c2.6,0,4.7,1.5,4.7,3.4v21.7c0,1.9-2.1,3.4-4.7,3.4H174.4c-2.6,0-4.7-1.5-4.7-3.4V321.8C169.7,319.9,171.8,318.4,174.4,318.4Z"/><path class="o" d="M171.7,318.4H217v28.5H171.7a2,2,0,0,1-2-2V320.4A2,2,0,0,1,171.7,318.4Z"/><path class="s" d="M257.9,328.6h0a1.5,1.5,0,0,1,1.5,1.5h0a1.5,1.5,0,0,1-1.5,1.5h0a1.5,1.5,0,0,1-1.5-1.5h0A1.5,1.5,0,0,1,257.9,328.6Z"/><path class="p" d="M261.5,334.5h0A1.5,1.5,0,0,1,263,336h0a1.5,1.5,0,0,1-1.5,1.5h0A1.5,1.5,0,0,1,260,336h0A1.5,1.5,0,0,1,261.5,334.5Z"/><path class="s" d="M263.9,328.6h0a1.5,1.5,0,0,1,1.4,1.5h0a1.5,1.5,0,0,1-1.4,1.5h0a1.5,1.5,0,0,1-1.5-1.5h0A1.5,1.5,0,0,1,263.9,328.6Z"/><path class="s" d="M267.4,334.5h0a1.5,1.5,0,0,1,1.5,1.5h0a1.5,1.5,0,0,1-1.5,1.5h0a1.5,1.5,0,0,1-1.5-1.5h0A1.5,1.5,0,0,1,267.4,334.5Z"/><path class="q" d="M269.8,328.6h0a1.5,1.5,0,0,1,1.5,1.5h0a1.5,1.5,0,0,1-1.5,1.5h0a1.5,1.5,0,0,1-1.5-1.5h0A1.5,1.5,0,0,1,269.8,328.6Z"/><path class="s" d="M273.4,334.5h0a1.5,1.5,0,0,1,1.4,1.5h0a1.5,1.5,0,0,1-1.4,1.5h0a1.5,1.5,0,0,1-1.5-1.5h0A1.5,1.5,0,0,1,273.4,334.5Z"/><path class="s" d="M275.7,328.6h0a1.5,1.5,0,0,1,1.5,1.5h0a1.5,1.5,0,0,1-1.5,1.5h0a1.5,1.5,0,0,1-1.5-1.5h0A1.5,1.5,0,0,1,275.7,328.6Z"/><path class="p" d="M279.3,334.5h0a1.5,1.5,0,0,1,1.5,1.5h0a1.5,1.5,0,0,1-1.5,1.5h0a1.5,1.5,0,0,1-1.5-1.5h0A1.5,1.5,0,0,1,279.3,334.5Z"/><path class="s" d="M281.7,328.6h0a1.5,1.5,0,0,1,1.4,1.5h0a1.5,1.5,0,0,1-1.4,1.5h0a1.5,1.5,0,0,1-1.5-1.5h0A1.5,1.5,0,0,1,281.7,328.6Z"/><path class="s" d="M285.2,334.5h0a1.5,1.5,0,0,1,1.5,1.5h0a1.5,1.5,0,0,1-1.5,1.5h0a1.5,1.5,0,0,1-1.5-1.5h0A1.5,1.5,0,0,1,285.2,334.5Z"/><circle class="d" cx="295.6" cy="332.8" r="2.5"/><circle class="t" cx="295.6" cy="332.8" r="2"/><path class="s" d="M251,327.5h0a1.1,1.1,0,0,1,1.1,1.1V337a1.1,1.1,0,0,1-1.1,1.1h0a1.1,1.1,0,0,1-1.1-1.1v-8.4A1.1,1.1,0,0,1,251,327.5Z"/><path class="s" d="M246.5,327.5h0a1.1,1.1,0,0,1,1.2,1.1V337a1.1,1.1,0,0,1-1.2,1.1h0a1.1,1.1,0,0,1-1.1-1.1v-8.4A1.1,1.1,0,0,1,246.5,327.5Z"/><rect class="o" x="224.1" y="327.5" width="17.9" height="4.48"/><rect class="o" x="224.1" y="333.7" width="17.9" height="4.48"/><path class="q" d="M249.9,329.7h2.2V337a1.1,1.1,0,0,1-1.1,1.1h0a1.1,1.1,0,0,1-1.1-1.1v-7.3Z"/><path class="p" d="M245.4,334h2.3v3a1.1,1.1,0,0,1-1.2,1.1h0a1.1,1.1,0,0,1-1.1-1.1h0v-3Z"/><rect class="u" x="224.1" y="327.5" width="4.5" height="4.48"/><rect class="u" x="224.1" y="333.7" width="4.5" height="4.48"/><rect class="c" x="230.8" y="329.2" width="9" height="1.12"/><rect class="c" x="230.8" y="335.3" width="9" height="1.12"/><circle class="d" cx="295.6" cy="332.8" r="5.3"/><circle class="v" cx="295.6" cy="332.8" r="4.8"/><path class="c" d="M204.2,336.6h0a2,2,0,0,1,1.9,1.9h0a1.9,1.9,0,0,1-1.9,1.9h0a1.8,1.8,0,0,1-1.8-1.9h0A1.9,1.9,0,0,1,204.2,336.6Z"/><path class="b" d="M204.3,325.8h0a.9.9,0,0,1,.9.8v7.3a.9.9,0,0,1-.9.9h0a.9.9,0,0,1-.8-.9v-7.3A.9.9,0,0,1,204.3,325.8Z"/><path class="w" d="M198.6,336.6h0a2,2,0,0,1,1.9,1.9h0a1.9,1.9,0,0,1-1.9,1.9h0a1.9,1.9,0,0,1-1.9-1.9h0A2,2,0,0,1,198.6,336.6Z"/><path class="x" d="M198.7,329.2h0a.8.8,0,0,1,.9.8v3.9a.9.9,0,0,1-.9.9h0a.8.8,0,0,1-.8-.9V330A.7.7,0,0,1,198.7,329.2Z"/><path class="c" d="M193,336.6h0a1.9,1.9,0,0,1,1.8,1.9h0a1.8,1.8,0,0,1-1.8,1.9h0a1.9,1.9,0,0,1-1.9-1.9h0A2,2,0,0,1,193,336.6Z"/><path class="b" d="M193.1,324.5h0a.8.8,0,0,1,.8.9v8.5a.8.8,0,0,1-.8.9h0a.8.8,0,0,1-.8-.9v-8.5A.8.8,0,0,1,193.1,324.5Z"/><path class="q" d="M187.4,336.6h0a1.9,1.9,0,0,1,1.8,1.9h0a1.8,1.8,0,0,1-1.8,1.9h0a1.9,1.9,0,0,1-1.9-1.9h0A2,2,0,0,1,187.4,336.6Z"/><path class="q" d="M187.5,326.7h0a.7.7,0,0,1,.8.8v6.4a.8.8,0,0,1-.8.9h0a.8.8,0,0,1-.8-.9v-6.4A.7.7,0,0,1,187.5,326.7Z"/><path class="p" d="M181.8,336.6h0a1.9,1.9,0,0,1,1.8,1.9h0a1.8,1.8,0,0,1-1.8,1.9h0a1.9,1.9,0,0,1-1.9-1.9h0A2,2,0,0,1,181.8,336.6Z"/><path class="p" d="M181.9,330.3h0a.8.8,0,0,1,.8.8v2.8a.8.8,0,0,1-.8.9h0a.8.8,0,0,1-.8-.9v-2.8A.8.8,0,0,1,181.9,330.3Z"/><rect class="y" x="177.9" y="167.3" width="25.2" height="5.33"/><rect class="z" x="179.3" y="168.7" width="10.9" height="2.65"/><path class="aa" d="M96.1,127.6c-6.8,1.5-7.4,7-5.4,12.9s19.3,34.4,21.4,35.1,11.3-2.6,11.6-5.4-10.4-29.1-13-33.7S103.9,125.8,96.1,127.6Z"/><path class="aa" d="M149,163.5l2.5-.5a7.5,7.5,0,0,1,4.2,0c1.8.5,6.8,2.1,7.7,2.1s1.7.8.3,1.2-14.9.5-14.9.5Z"/><path class="aa" d="M110.6,175.5c1.2,7.4,12.9,4.6,18.5,2.9s21.3-9,21.3-9l-1.4-6a117.2,117.2,0,0,0-31.5,2.5C115.9,166.3,109.3,167.9,110.6,175.5Z"/><path class="p" d="M57.4,370s4.7,8.7,4,10.5-4,4.5-8.9,3.8-8.9-5.2-9.9-5.5.4-12.3.4-12.3Z"/><path class="ab" d="M102.2,127.9c2.5.8,8.1,3.6,12,12.7,2.5,6,7.1,17.7,7.1,17.7a24.2,24.2,0,0,1-9.6,5.5,25.3,25.3,0,0,1-11.9.8s-10.2-24.2-9.4-29.4C90.6,133.6,95.3,125.6,102.2,127.9Z"/><path class="ac" d="M76.9,100.5s-.9,20-2.1,20.9c-3.6,3-16.7,5.6-19.2,10.8S68.9,167.1,71,176.5s-2.4,24-3.8,33.2,27.6,20.5,28.6,20.5,10.5-8.7,12.3-11.7,0-26.7.1-32.8,1.4-27.2,1.7-28.6a41.8,41.8,0,0,0-.9-18.5c-.3-1.9-.2-5.2-1.2-6.4s-12.8-5.8-13-7.1-1.6-18.6-1.6-18.6Z"/><polygon class="aa" points="93.8 118.1 76.4 105.3 74.8 121.4 79.4 124.9 93.8 118.1"/><path class="ac" d="M103.8,85.9c-3.3-5.1-15.1-11.9-23.4-5.2s-7.8,15.7-5.7,21.7,3.6,7.5,8.1,11.1c.9.7,9.8,4.7,11.9,4.6s4.7-9.2,5.1-9.1a1.6,1.6,0,0,0,1.8-.9c.3-1.1.8-8.1,1.3-8.7S107.6,91.7,103.8,85.9Z"/><rect class="p" x="83.9" y="370.6" width="11.3" height="2.11"/><path class="p" d="M84.3,355.7a18.8,18.8,0,0,0-2.6,7.9c-.2,2.3,1.2,7,2.6,7a107.5,107.5,0,0,1,13.8.8c4.5.5,6.1,3.1,17.4,3.1,3.3,0,9.1-.2,9.1-1.6,0-5.8-10.8-3.8-14.3-6.9-8.7-8.1-14.5-10-14.5-10S84.6,355.3,84.3,355.7Z"/><path class="ad" d="M89.7,201.3S74.6,216.4,73.9,223s5.7,27.6,7.9,44.2,3.7,19.9,3.1,23.8-5,19.7-4.8,30.3c.2,12.3-.5,37.4-.5,37.4s3.3,2.6,11.8,2.6c5.4,0,10.1-3.9,10.1-3.9s3.4-61.8,4.1-68.3c.5-4.2,3.9-33.2,4.9-56.9.4-7.6-1.4-29.3-1.4-32.5Z"/><path class="k" d="M66.2,200.3s-6,14.8-8.4,24.6-5.3,61.1-6.1,65.9-3.9,19.5-6.2,34-3.7,43.8-3.7,43.8l18.6,2.9s11.1-61.2,12.8-70.9,20.2-77.8,20.2-77.8l8.2-23.1Z"/><path class="ad" d="M66.8,242.1c-1.6,6.5-6.1,51-6.5,53.5s-11.9,70.8-12.4,73.9l-6.1-.9s1.4-29.2,3.7-43.8,5.3-29.2,6.2-34,3.7-56,6.1-65.9,8.4-24.6,8.4-24.6l16.3.5S68.3,235.5,66.8,242.1Z"/><path class="c" d="M74.8,121.4s11.2,9.3,17.4,8.8,2.6-5.1,2.6-5.1,11.5,3.6,13,6.1,2.2,8.8,2.7,10.8.7,11.3-.1,19.3c-.5,4.7-.3,10.9-1.1,18.9s.1,23.8.1,23.8-6.5.3-16.6-.2c-11.8-.6-23.6-2.4-24.1-2.9-2.3-1.8.9-20,.5-22s-14.7-36.8-14.9-41.3,1.5-7.8,4.9-9.5S74.8,121.4,74.8,121.4Z"/><path class="ab" d="M61.6,127.5s-11.5,6.3-.2,15.1c4.9,3.7,17.9,22.2,22.3,23.6,15.7,4.8,1.8,27.1-.1,29.7a11.3,11.3,0,0,0-1.8,6.2l-15.2-1.7c-4.7.9,2.5-21.6.8-26.5s-13.2-32.7-13.1-36.3A10.3,10.3,0,0,1,61.6,127.5Z"/><path class="ac" d="M58.3,129.6c-6.7,2.5-6.7,8.6-4.1,14.9s26,40.1,28.2,40.6,11.3-4.1,11.2-7.3-16.3-35.5-19.4-40.2S66.2,126.7,58.3,129.6Z"/><path class="c" d="M64.4,128.7c2.6.6,8.5,3.1,10.6,7.9,2.9,6.7,11.7,23.8,11.7,23.8a24.7,24.7,0,0,1-9.1,7.2c-6.9,3.1-12.1,2.3-12.1,2.3s-12.8-26-13.2-32S57.1,126.9,64.4,128.7Z"/><rect class="ae" x="118.6" y="166.2" width="96.5" height="10.36" rx="0.8"/><rect class="y" x="122.4" y="168.6" width="27" height="5.67"/><rect class="af" x="123.9" y="170" width="11.3" height="2.82"/><path class="ag" d="M172,168.6a.9.9,0,0,1-.8.8.8.8,0,0,1-.8-.8.7.7,0,0,1,.8-.8A.8.8,0,0,1,172,168.6Z"/><path class="ag" d="M175.5,168.6a.8.8,0,0,1-.8.8.9.9,0,0,1-.8-.8.8.8,0,0,1,.8-.8A.7.7,0,0,1,175.5,168.6Z"/><path class="ag" d="M179.1,168.6a.8.8,0,0,1-.8.8.9.9,0,0,1-.8-.8.8.8,0,0,1,.8-.8A.7.7,0,0,1,179.1,168.6Z"/><path class="ag" d="M182.7,168.6a.8.8,0,0,1-.8.8.9.9,0,0,1-.8-.8.8.8,0,0,1,.8-.8A.7.7,0,0,1,182.7,168.6Z"/><path class="ag" d="M186.3,168.6a.8.8,0,0,1-.8.8.9.9,0,0,1-.8-.8.8.8,0,0,1,.8-.8A.7.7,0,0,1,186.3,168.6Z"/><path class="ag" d="M189.9,168.6a.8.8,0,0,1-.8.8.9.9,0,0,1-.8-.8.8.8,0,0,1,.8-.8A.7.7,0,0,1,189.9,168.6Z"/><path class="ag" d="M193.5,168.6a.8.8,0,0,1-.8.8.9.9,0,0,1-.8-.8.8.8,0,0,1,.8-.8A.7.7,0,0,1,193.5,168.6Z"/><path class="ag" d="M197.1,168.6a.8.8,0,0,1-1.6,0,.8.8,0,0,1,1.6,0Z"/><path class="ag" d="M200.7,168.6a.8.8,0,0,1-1.6,0,.8.8,0,0,1,1.6,0Z"/><path class="ag" d="M204.3,168.6a.9.9,0,0,1-.8.8.8.8,0,0,1-.8-.8.7.7,0,0,1,.8-.8A.8.8,0,0,1,204.3,168.6Z"/><path class="ag" d="M172,171.5a.8.8,0,0,1-.8.8.7.7,0,0,1-.8-.8.8.8,0,0,1,.8-.8A.9.9,0,0,1,172,171.5Z"/><path class="ag" d="M175.5,171.5a.7.7,0,0,1-.8.8.8.8,0,0,1-.8-.8.9.9,0,0,1,.8-.8A.8.8,0,0,1,175.5,171.5Z"/><path class="ag" d="M179.1,171.5a.7.7,0,0,1-.8.8.8.8,0,0,1-.8-.8.9.9,0,0,1,.8-.8A.8.8,0,0,1,179.1,171.5Z"/><path class="ag" d="M182.7,171.5a.7.7,0,0,1-.8.8.8.8,0,0,1-.8-.8.9.9,0,0,1,.8-.8A.8.8,0,0,1,182.7,171.5Z"/><path class="ag" d="M186.3,171.5a.7.7,0,0,1-.8.8.8.8,0,0,1-.8-.8.9.9,0,0,1,.8-.8A.8.8,0,0,1,186.3,171.5Z"/><path class="ag" d="M189.9,171.5a.7.7,0,0,1-.8.8.8.8,0,0,1-.8-.8.9.9,0,0,1,.8-.8A.8.8,0,0,1,189.9,171.5Z"/><path class="ag" d="M193.5,171.5a.7.7,0,0,1-.8.8.8.8,0,0,1-.8-.8.9.9,0,0,1,.8-.8A.8.8,0,0,1,193.5,171.5Z"/><path class="ag" d="M197.1,171.5a.8.8,0,1,1-1.6,0,.8.8,0,0,1,1.6,0Z"/><path class="ag" d="M200.7,171.5a.8.8,0,0,1-1.6,0,.8.8,0,0,1,1.6,0Z"/><path class="ag" d="M204.3,171.5a.8.8,0,0,1-.8.8.7.7,0,0,1-.8-.8.8.8,0,0,1,.8-.8A.9.9,0,0,1,204.3,171.5Z"/><path class="ag" d="M172,174.5a.8.8,0,0,1-.8.8.7.7,0,0,1-.8-.8.8.8,0,0,1,.8-.8A.9.9,0,0,1,172,174.5Z"/><path class="ag" d="M175.5,174.5a.7.7,0,0,1-.8.8.8.8,0,0,1-.8-.8.9.9,0,0,1,.8-.8A.8.8,0,0,1,175.5,174.5Z"/><path class="ag" d="M179.1,174.5a.7.7,0,0,1-.8.8.8.8,0,0,1-.8-.8.9.9,0,0,1,.8-.8A.8.8,0,0,1,179.1,174.5Z"/><path class="ag" d="M182.7,174.5a.7.7,0,0,1-.8.8.8.8,0,0,1-.8-.8.9.9,0,0,1,.8-.8A.8.8,0,0,1,182.7,174.5Z"/><path class="ag" d="M186.3,174.5a.7.7,0,0,1-.8.8.8.8,0,0,1-.8-.8.9.9,0,0,1,.8-.8A.8.8,0,0,1,186.3,174.5Z"/><path class="ag" d="M189.9,174.5a.7.7,0,0,1-.8.8.8.8,0,0,1-.8-.8.9.9,0,0,1,.8-.8A.8.8,0,0,1,189.9,174.5Z"/><path class="ag" d="M193.5,174.5a.7.7,0,0,1-.8.8.8.8,0,0,1-.8-.8.9.9,0,0,1,.8-.8A.8.8,0,0,1,193.5,174.5Z"/><path class="ag" d="M197.1,174.5a.8.8,0,1,1-1.6,0,.8.8,0,0,1,1.6,0Z"/><path class="ag" d="M200.7,174.5a.8.8,0,0,1-1.6,0,.8.8,0,0,1,1.6,0Z"/><path class="ag" d="M204.3,174.5a.8.8,0,0,1-.8.8.7.7,0,0,1-.8-.8.8.8,0,0,1,.8-.8A.9.9,0,0,1,204.3,174.5Z"/><path class="ac" d="M81.8,183c.3,7.6,15.8,5.6,23.3,4.3s29-7.5,29-7.5l.4-7s-17.7-.7-38.9-.2C88.1,172.8,81.5,175.4,81.8,183Z"/><path class="ac" d="M131.7,179.5c3.7,2.1,8.5,2.1,10.3,2.4s17.9-3.8,18-4.3.4-1.5-3.6-1.4c-6.7.1-10.3,1.6-12.2-.1s-3.9-3.6-7.3-4S129.8,178.4,131.7,179.5Z"/><path class="ac" d="M137.8,177s12-4.1,12.3-5.1.3-1.5-1.1-1.4-6.6,1.4-7.8,1.2-5.2-.1-6.3,1.1S137.8,177,137.8,177Z"/><path class="r" d="M83.8,96.3c1.9-8.4-8.8-2.7-2.6,4.6-2.2,7.3-15.3,6.1-8.8-12,3.2-10.3,8.5-15.2,16.5-12.2,4,2.1,4.2-2.8,3.5-8.1,5.5.4,10.7,3.1,15.1,9.1,6.8,10.1-.2,21.3-17,9.1C89.8,95.5,88,100.1,83.8,96.3Z"/></svg>