<?xml version="1.0" encoding="utf-8"?>
<!-- Generator: Adobe Illustrator 22.0.1, SVG Export Plug-In . SVG Version: 6.00 Build 0)  -->
<svg version="1.1" id="Layer_1" xmlns="http://www.w3.org/2000/svg" xmlns:xlink="http://www.w3.org/1999/xlink" x="0px" y="0px"
	 viewBox="0 0 60 60" enable-background="new 0 0 60 60" xml:space="preserve">
<g>
	<g id="Group_8038" transform="translate(-15375 -17863)">
		<g id="Path_4726">
			<path fill="#D6EEFF" d="M15425.4,17874.4v38.4c0,0.9-0.7,1.6-1.6,1.6l0,0h2.4c0.9,0,1.6-0.7,1.6-1.6l0,0v-38.4H15425.4z"/>
		</g>
		<g id="Group_8037">
			<g id="Group_8036">
				<g id="Rectangle_2229" transform="translate(333.762 2414.928)">
					<g>
						<path fill="#D6EEFF" d="M15050.6,15452.1h42c1.7,0,3,1.3,3,3v8l0,0h-48l0,0v-8C15047.6,15453.4,15049,15452.1,15050.6,15452.1
							z"/>
					</g>
					<g>
						<path fill="#137FCF" d="M15093.6,15463.1h-44c-1.1,0-2-0.9-2-2v-6c0-1.7,1.3-3,3-3h42c1.7,0,3,1.3,3,3v6
							C15095.6,15462.2,15094.7,15463.1,15093.6,15463.1z M15050.6,15454.1c-0.6,0-1,0.4-1,1v6h44v-6c0-0.6-0.4-1-1-1H15050.6z"/>
					</g>
				</g>
				<g id="Group_5311" transform="translate(-384 101)">
					<g id="Path_4734">
						<path fill="#137FCF" d="M15772.8,17771.4c0,0.6-0.4,1-1,1s-1-0.4-1-1s0.4-1,1-1S15772.8,17770.9,15772.8,17771.4"/>
					</g>
					<g id="Path_4735">
						<path fill="#137FCF" d="M15776,17771.4c0,0.6-0.4,1-1,1s-1-0.4-1-1s0.4-1,1-1C15775.6,17770.4,15776,17770.9,15776,17771.4"/>
					</g>
					<g id="Path_4736">
						<path fill="#137FCF" d="M15779.2,17771.4c0,0.6-0.4,1-1,1s-1-0.4-1-1s0.4-1,1-1
							C15778.8,17770.4,15779.2,17770.9,15779.2,17771.4"/>
					</g>
				</g>
			</g>
			<g id="Group_8031">
				<g id="Rectangle_2228" transform="translate(333.762 2414.928)">
					<g>
						<path fill="none" d="M15050.6,15452.1h42c1.7,0,3,1.3,3,3v42c0,1.7-1.3,3-3,3h-42c-1.7,0-3-1.3-3-3v-42
							C15047.6,15453.4,15049,15452.1,15050.6,15452.1z"/>
					</g>
					<g>
						<path fill="#137FCF" d="M15092.6,15500.1h-42c-1.7,0-3-1.3-3-3v-42c0-1.7,1.3-3,3-3h42c1.7,0,3,1.3,3,3v42
							C15095.6,15498.7,15094.3,15500.1,15092.6,15500.1z M15050.6,15454.1c-0.6,0-1,0.4-1,1v42c0,0.6,0.4,1,1,1h42c0.6,0,1-0.4,1-1
							v-42c0-0.6-0.4-1-1-1H15050.6z"/>
					</g>
				</g>
				<g enable-background="new    ">
					<path fill="#137FCF" d="M15400.5,17901.1h-1.3v-4.6c0-1.7-0.6-2.5-1.9-2.5c-0.6,0-1.2,0.2-1.6,0.7s-0.6,1.1-0.6,1.9v4.5h-1.3
						v-11.8h1.3v5.2l0,0c0.6-1,1.5-1.5,2.6-1.5c1.8,0,2.7,1.1,2.7,3.3L15400.5,17901.1L15400.5,17901.1z"/>
					<path fill="#137FCF" d="M15406.6,17901c-0.3,0.2-0.7,0.3-1.2,0.3c-1.4,0-2.1-0.8-2.1-2.3v-4.7h-1.4v-1.1h1.4v-2l1.3-0.4v2.4h2
						v1.1h-2v4.5c0,0.5,0.1,0.9,0.3,1.1s0.5,0.3,0.9,0.3c0.3,0,0.6-0.1,0.8-0.3V17901z"/>
					<path fill="#137FCF" d="M15411.9,17901c-0.3,0.2-0.7,0.3-1.2,0.3c-1.4,0-2.1-0.8-2.1-2.3v-4.7h-1.4v-1.1h1.4v-2l1.3-0.4v2.4h2
						v1.1h-2v4.5c0,0.5,0.1,0.9,0.3,1.1s0.5,0.3,0.9,0.3c0.3,0,0.6-0.1,0.8-0.3V17901z"/>
					<path fill="#137FCF" d="M15414.8,17899.9L15414.8,17899.9v4.8h-1.3v-11.7h1.3v1.4l0,0c0.6-1.1,1.6-1.6,2.8-1.6
						c1,0,1.8,0.4,2.4,1.1s0.9,1.7,0.9,2.9c0,1.3-0.3,2.4-1,3.2s-1.5,1.2-2.7,1.2C15416.2,17901.3,15415.4,17900.8,15414.8,17899.9z
						 M15414.8,17896.7v1.1c0,0.7,0.2,1.2,0.6,1.7s1,0.7,1.6,0.7c0.8,0,1.4-0.3,1.8-0.9s0.7-1.4,0.7-2.5c0-0.9-0.2-1.6-0.6-2.1
						s-1-0.8-1.7-0.8s-1.3,0.3-1.8,0.8S15414.8,17895.9,15414.8,17896.7z"/>
				</g>
				<g enable-background="new    ">
					<path fill="none" stroke="#137FCF" stroke-width="0.4" d="M15400.5,17901.1h-1.3v-4.6c0-1.7-0.6-2.5-1.9-2.5
						c-0.6,0-1.2,0.2-1.6,0.7s-0.6,1.1-0.6,1.9v4.5h-1.3v-11.8h1.3v5.2l0,0c0.6-1,1.5-1.5,2.6-1.5c1.8,0,2.7,1.1,2.7,3.3
						L15400.5,17901.1L15400.5,17901.1z"/>
					<path fill="none" stroke="#137FCF" stroke-width="0.4" d="M15406.6,17901c-0.3,0.2-0.7,0.3-1.2,0.3c-1.4,0-2.1-0.8-2.1-2.3
						v-4.7h-1.4v-1.1h1.4v-2l1.3-0.4v2.4h2v1.1h-2v4.5c0,0.5,0.1,0.9,0.3,1.1s0.5,0.3,0.9,0.3c0.3,0,0.6-0.1,0.8-0.3V17901z"/>
					<path fill="none" stroke="#137FCF" stroke-width="0.4" d="M15411.9,17901c-0.3,0.2-0.7,0.3-1.2,0.3c-1.4,0-2.1-0.8-2.1-2.3
						v-4.7h-1.4v-1.1h1.4v-2l1.3-0.4v2.4h2v1.1h-2v4.5c0,0.5,0.1,0.9,0.3,1.1s0.5,0.3,0.9,0.3c0.3,0,0.6-0.1,0.8-0.3V17901z"/>
					<path fill="none" stroke="#137FCF" stroke-width="0.4" d="M15414.8,17899.9L15414.8,17899.9v4.8h-1.3v-11.7h1.3v1.4l0,0
						c0.6-1.1,1.6-1.6,2.8-1.6c1,0,1.8,0.4,2.4,1.1s0.9,1.7,0.9,2.9c0,1.3-0.3,2.4-1,3.2s-1.5,1.2-2.7,1.2
						C15416.2,17901.3,15415.4,17900.8,15414.8,17899.9z M15414.8,17896.7v1.1c0,0.7,0.2,1.2,0.6,1.7s1,0.7,1.6,0.7
						c0.8,0,1.4-0.3,1.8-0.9s0.7-1.4,0.7-2.5c0-0.9-0.2-1.6-0.6-2.1s-1-0.8-1.7-0.8s-1.3,0.3-1.8,0.8
						S15414.8,17895.9,15414.8,17896.7z"/>
				</g>
			</g>
		</g>
	</g>
</g>
</svg>
