<svg xmlns="http://www.w3.org/2000/svg" xmlns:xlink="http://www.w3.org/1999/xlink" viewBox="0 0 400 400"><defs><style>.a{fill:url(#a);}.b{fill:#00aeef;}.c{font-size:53px;font-family:AdobeArabic-Regular, Adobe Arabic;}.c,.e{fill:#fff;}.d{fill:#106a9f;opacity:0.25;}.f{fill:#ed1a22;}.g{fill:#0070bd;}.h{fill:#f15a24;}.i{fill:#8bc53e;}</style><linearGradient id="a" x1="-2416.27" y1="-88.56" x2="-2416.27" y2="-87.93" gradientTransform="matrix(740.56, 0, 0, -612.51, 1789597.91, -53827.03)" gradientUnits="userSpaceOnUse"><stop offset="0" stop-color="#c6e6ff"/><stop offset="1" stop-color="#fff"/></linearGradient></defs><title>joomla-host</title><path class="a" d="M195,89.1c59.8,38.1,128.3,55.3,128.3,55.3s75.4,11.5,47.6,97.3-31.3,116.6-74.8,118.8c-41.2,1.2-64.4-15.8-105.2-12.9-35.8,2.8-60.5,18.9-120.4-4.7C-25.4,300.6-18.3-45.4,195,89.1Z"/><path class="b" d="M361.6,219.1a43.4,43.4,0,0,1-43.5,43.4H115a46.2,46.2,0,0,1-9.9-1A47.3,47.3,0,0,1,115,168a46.5,46.5,0,0,1,15.4,2.6,61.1,61.1,0,0,1,6.7-18.8c.1-.1.1-.2.2-.2a59.5,59.5,0,0,1,108.2,11.1,40.2,40.2,0,0,1,16.6-3.5A40.7,40.7,0,0,1,298,180.6a42.7,42.7,0,0,1,20.1-4.9A43.4,43.4,0,0,1,361.6,219.1Z"/><text class="c" transform="translate(193.6 -28.6)">لموج تساه</text><path d="M216.4,324.7h-4c0-.7-.1-1.4-.1-2,0-3.9.1-7.7,0-11.6-.1-6.8-4.6-9.9-11.1-7.8-5,1.6-7.1,4.7-7.1,10.7-.1,3.5,0,7,0,10.7h-2c-1.6.2-2.1-.4-2-2.1v-20c-.1-1.6.4-2.1,2-2.1s2.1.6,2,2.1a6.8,6.8,0,0,0,.1,1.9,15.8,15.8,0,0,1,11.2-4.6c4.2.1,8.1,1.1,10.3,5.6l1.4-1.3c4.4-4.2,9.7-5.2,15.4-3.5s6.1,4.7,6.2,9,0,9,.1,13.6c0,1.6-1.1,1.4-2.1,1.4s-2.1.1-2-1.5V311.4c0-5.9-1.7-8-6.8-8.6s-10.2,2.5-11,7.2a65.5,65.5,0,0,0-.5,8.9C216.3,320.8,216.4,322.6,216.4,324.7Z"/><path d="M279.2,320.9l-1.7,1.1a20.4,20.4,0,0,1-22,.4c-3.8-2.4-6.2-5.7-6-10.3s3.3-8.1,7.5-10c7.4-3.3,14.6-3.1,21.2,2l1,.6a20.6,20.6,0,0,0,.2-2.1c-.3-1.7.6-2,2.1-2s2,.5,2,2.1c-.1,6.6,0,13.2,0,19.9,0,1.3,0,2.2-1.9,2.2s-2.5-.4-2.2-2.2A14.9,14.9,0,0,0,279.2,320.9ZM266,302.7a33.6,33.6,0,0,0-5,1c-3.7,1.4-6.6,3.8-7.2,8s1.3,6.1,3.9,8.1c4.9,3.8,13.5,3.7,18.4-.2s4.7-9.8.1-13.7C273.4,303.6,270.2,302.9,266,302.7Z"/><path d="M134.8,300c5.3.2,10.6,1.6,14.3,6.5a9.8,9.8,0,0,1-.2,12.5c-4.3,5.3-10.2,6.8-16.6,6.3s-9.4-2.1-12.6-6.1a10.2,10.2,0,0,1,0-13C123,302.2,128,300,134.8,300Zm-.5,3c-4,0-7,1-9.5,3.3-4.5,3.9-4.3,9.7.3,13.4s13.2,4,18.2.1,5-9.6.5-13.5A12.8,12.8,0,0,0,134.3,303Z"/><path d="M170,325.5c-4-.3-7.9-.9-11.3-3.3-7.3-4.9-7.6-13.1-.7-18.5s18.2-4.9,24.4.4,5.7,14.2-1.9,18.6A24.2,24.2,0,0,1,170,325.5Zm0-2.8c3.5-.2,6.8-1,9.6-3.4s4.2-8.6.6-12.3c-5.4-5.7-15.8-5.5-20.9.4a7.9,7.9,0,0,0-.4,10.2C161.6,321.4,165.7,322.4,170,322.7Z"/><path d="M92.1,321.9c1.1-2.1,2.3-2.4,4.4-1.2s4.8,2.4,7.7,1.8,4.5-2.3,4.7-5.3.1-8.5.1-12.8.1-7.1,0-10.7c0-1.5.7-1.7,2-1.7s2.2-.1,2.2,1.7c0,7.5.1,15-.1,22.5s-3.1,9.1-9.4,9.4A17.2,17.2,0,0,1,92.1,321.9Z"/><path d="M242.7,291.5h3.9v33l-.5.2c-3.4.2-3.4.2-3.4-3.2v-30Z"/><path d="M290.6,316.3V300.2c0-2.1.1-4.2-.1-6.3s.6-2.8,2.6-2.5l1.6.2v24.7Z"/><path d="M292.6,320.1c2.2,0,3.7,1.1,3.7,2.6s-1.7,2.7-3.5,2.8-3.6-1.3-3.6-2.8S290.5,320.1,292.6,320.1Z"/><path class="d" d="M184.1,261.7a20.7,20.7,0,0,0-16.3-19h-.3c2.9-12.4-.2-23.3-9.3-32.2l-1.7-1.6A33.3,33.3,0,0,0,167,175.7a20.4,20.4,0,0,0,16.9-19.5c.3-10.5-8.1-20.3-18-21-11.7-.8-20.6,5.7-22.7,16.4a42.2,42.2,0,0,0-5.9-.9l-.2.3a59.7,59.7,0,0,0-6.7,18.7,49.3,49.3,0,0,0-15.4-2.6,47.3,47.3,0,0,0-9.9,93.5l2.3-2,2.5-2.5a29.4,29.4,0,0,0,6.1,5.6,33.6,33.6,0,0,0,27,5.1,20.7,20.7,0,0,0,19.8,16.8h.5a21,21,0,0,0,20.6-18,13.2,13.2,0,0,0,.2-2.8Z"/><path class="e" d="M161.8,247.1h-.3c2.9-12.4-.2-23.3-9.3-32.2l-1.7-1.6A33.3,33.3,0,0,0,161,180.1a20.4,20.4,0,0,0,16.9-19.5c.3-10.5-8.1-20.3-18-21-11.7-.8-20.6,5.7-22.7,16.4-11.7-2.8-22.2-.2-30.2,7.4l-3.7,3.6a33.2,33.2,0,0,0-33.1-10.5,20.4,20.4,0,0,0-19.5-16.9h-.5c-10.2,0-19.7,8.3-20.5,18h0c-.8,11.7,5.7,20.6,16.5,22.6-2.8,11.8-.3,22.3,7.3,30.3l3.3,3.4c-10,10-13.5,21-10.4,33.2-10.3,1.9-17.1,10.3-16.7,21.4s9.3,19.1,20.1,19.4h.5a20.8,20.8,0,0,0,19.9-16.7c11.7,3,22.5.2,31.2-8.2l2.5-2.5A33.3,33.3,0,0,0,137,271.2,20.7,20.7,0,0,0,156.8,288h.5a21,21,0,0,0,20.6-17.9h0A20.6,20.6,0,0,0,161.8,247.1Z"/><path class="f" d="M116.2,185.5,131,200.1,149.1,218c8.4,8.2,10.8,18.1,7.8,29.3a34,34,0,0,1-.9,3.3l4.9.8a16.4,16.4,0,0,1,12.7,18.3,16.6,16.6,0,0,1-16.7,14.1,16.1,16.1,0,0,1-15.8-15.3c-.2-2.9-1.5-2.4-3.3-1.9-11.9,3.5-24.7-.6-31.7-10.2l10.5-10.3c2.8,1.2,5.5,2.8,8.4,3.5,5.2,1.2,10.5-1.7,13.4-6.5s2.5-10.4-1-14.4-8-8.2-12.1-12.2l-18.6-18.3c-1.5-1.4-1.5-2.3,0-3.7C109.8,191.7,112.8,188.8,116.2,185.5Z"/><path class="g" d="M61,216c3.4,3.4,6.6,6.5,9.6,9.8a2.5,2.5,0,0,1,0,2.4c-7.4,8.8-1.4,20,7.9,22,5.6,1.2,9.8-1.6,13.4-5.2,9-9.1,17.9-18.3,26.9-27.5l1.8-1.6,10.6,10.4a7.7,7.7,0,0,1-.9,1.3c-10.6,10.8-21,21.9-31.9,32.4-7.9,7.6-17.5,9.9-28.1,6.8-3.9-1.1-3.8-1.1-4.3,2.8a16.1,16.1,0,0,1-16.1,14c-8.5-.2-15.6-7-15.9-15.2s5.8-16.5,15.4-17.1c2.7-.2,2.3-1.5,1.7-3.2C47.3,235.4,51.4,225.1,61,216Z"/><path class="h" d="M146.2,211.2,136,200.4c.4-.5.8-1.3,1.3-1.9a13,13,0,0,0-1.5-17.6c-5.2-4.8-12.6-5.2-17.8-.6-2.7,2.4-5.1,5.3-7.7,7.9L86.7,211.8l-11-11.7a45.6,45.6,0,0,0,5.3-4.3c9.7-9.7,19.1-19.7,29-29.1,7.8-7.4,17.4-8.7,27.6-6,3.2.9,3.3.9,3.7-2.5,1.2-9.3,8.4-14.8,18.3-14.1,7.5.5,14.2,8.4,14,16.5s-7.1,15.3-15.2,15.5c-2.6.1-2.8,1.1-2.1,3.2A28.9,28.9,0,0,1,146.2,211.2Z"/><path class="i" d="M101.2,171.4,90.4,181.6l-1.9-1.3a13,13,0,0,0-17.6,1.5c-4.8,5.2-5.2,12.6-.6,17.8,2.4,2.7,5.3,5.1,7.9,7.7l23.6,23.6-11.6,11a47.3,47.3,0,0,0-4.4-5.3c-9.7-9.7-19.7-19.1-29.1-29-7.4-7.8-8.7-17.4-6-27.6.9-3.2,1-3.3-2.5-3.7-9.3-1.2-14.8-8.4-14.1-18.3.5-7.5,8.4-14.2,16.5-14s15.3,7.1,15.5,15.2c.1,2.6,1.1,2.8,3.2,2.1A28.9,28.9,0,0,1,101.2,171.4Z"/></svg>