<svg xmlns="http://www.w3.org/2000/svg" xmlns:xlink="http://www.w3.org/1999/xlink" viewBox="0 0 400 400"><defs><style>.a{isolation:isolate;}.b{fill:url(#a);}.c{fill:#1f364c;}.d{fill:#0e71bb;}.e{fill:#005b9f;}.f{fill:#52acea;}.g{fill:#21e2e2;}.h{fill:#ffbc98;}.i,.j,.m{fill:none;}.j{stroke:#ffbc98;}.j,.m{stroke-width:0.92px;}.k{fill:#80c9ff;}.l{fill:#288ed9;}.m{stroke:#21e2e2;}.n{fill:#137fcf;}.o{fill:#d6eeff;}.ac,.p{fill:#fff;}.q{fill:#00409e;opacity:0.17;mix-blend-mode:multiply;}.r{fill:#333;}.s{fill:#c0c2c1;}.t{fill:#e6e6e6;}.u{fill:#000100;}.v{fill:#fe9a0f;}.w{fill:#e2810c;}.x{fill:#dd7f10;}.y{fill:#ae4e32;}.z{fill:#9e402b;}.aa{fill:#fe9b0e;}.ab{fill:url(#b);}.ac{opacity:0.57;mix-blend-mode:overlay;}.ad{fill:url(#c);}.ae{fill:url(#d);}.af{fill:url(#e);}.ag{fill:url(#f);}.ah{fill:url(#g);}</style><linearGradient id="a" x1="196.14" y1="353.05" x2="196.14" y2="43.09" gradientUnits="userSpaceOnUse"><stop offset="0" stop-color="#c6e6ff"/><stop offset="1" stop-color="#fff"/></linearGradient><linearGradient id="b" x1="-5333.41" y1="-377.97" x2="-5366.64" y2="-435.53" gradientTransform="matrix(-1, 0.06, -0.06, -1, -5274.21, 129.66)" gradientUnits="userSpaceOnUse"><stop offset="0" stop-color="#ffbc98"/><stop offset="1" stop-color="#ff9f6c"/></linearGradient><linearGradient id="c" x1="129.33" y1="-116.88" x2="153.59" y2="-102.26" gradientTransform="translate(-45.3 310.2) rotate(7.1)" gradientUnits="userSpaceOnUse"><stop offset="0" stop-color="#419ee3"/><stop offset="1" stop-color="#0d79c9"/></linearGradient><linearGradient id="d" x1="95.9" y1="-3.34" x2="52" y2="-79.39" gradientTransform="translate(-32.3 243.1) rotate(5.5)" xlink:href="#b"/><linearGradient id="e" x1="111.39" y1="-22.28" x2="60.49" y2="-110.43" gradientTransform="translate(-32.3 243.1) rotate(5.5)" xlink:href="#c"/><linearGradient id="f" x1="138.32" y1="-54.44" x2="100.05" y2="-120.72" gradientTransform="matrix(0.99, 0.16, -0.16, 0.99, -49.25, 267.08)" gradientUnits="userSpaceOnUse"><stop offset="0" stop-color="#44989f"/><stop offset="0.21" stop-color="#39b0b4"/><stop offset="0.52" stop-color="#2ccbcd"/><stop offset="0.8" stop-color="#24dcdd"/><stop offset="1" stop-color="#21e2e2"/></linearGradient><linearGradient id="g" x1="76.43" y1="247.87" x2="76.43" y2="387.42" gradientTransform="matrix(1, 0, 0, 1, 0, 0)" xlink:href="#b"/></defs><title>linux-host</title><g class="a"><path class="b" d="M376.7,185.6c-5.1,46.2-26.3,96-79.7,129.7l-5.5,3.4-7.6,4.3a233.9,233.9,0,0,1-36.3,16.6l-7.3,2.6-7.2,2.2a229.6,229.6,0,0,1-30.4,6.5c-58.6,8.4-111.7-8.7-146.2-38.4a129.5,129.5,0,0,1-17.1-17.7,112.1,112.1,0,0,1-11.6-17.4C-2.3,222,20.9,155.5,70,138.8c53.9-18.4,79.1-2.8,141.8-54.6s125.9-57.8,151.5.2c4.3,9.6,8.3,22.6,11,37.6A223.8,223.8,0,0,1,376.7,185.6Z"/><rect class="c" x="131" y="160.8" width="172.2" height="13.38"/><path class="d" d="M129.2,124.6h176c3.5,0,6.3,2.1,6.3,4.6v29.2c0,2.5-2.8,4.6-6.3,4.6h-176c-3.5,0-6.3-2.1-6.3-4.6V129.2C122.9,126.7,125.7,124.6,129.2,124.6Z"/><path class="e" d="M125.6,124.6h60.9V163H125.6a2.7,2.7,0,0,1-2.7-2.7v-33A2.7,2.7,0,0,1,125.6,124.6Z"/><path class="f" d="M241.7,138.4h0a2,2,0,0,1,2,2h0a2,2,0,0,1-2,2h0a2,2,0,0,1-2-2h0A2,2,0,0,1,241.7,138.4Z"/><path class="g" d="M246.5,146.4h0a1.9,1.9,0,0,1,2,1.9h0a1.9,1.9,0,0,1-2,2h0a1.9,1.9,0,0,1-2-2h0A1.9,1.9,0,0,1,246.5,146.4Z"/><path class="f" d="M249.7,138.4h0a2,2,0,0,1,2,2h0a2,2,0,0,1-2,2h0a2,2,0,0,1-2-2h0A2,2,0,0,1,249.7,138.4Z"/><path class="f" d="M254.5,146.4h0a1.9,1.9,0,0,1,2,1.9h0a1.9,1.9,0,0,1-2,2h0a1.9,1.9,0,0,1-2-2h0A1.9,1.9,0,0,1,254.5,146.4Z"/><path class="h" d="M257.7,138.4h0a2,2,0,0,1,2,2h0a2,2,0,0,1-2,2h0a2,2,0,0,1-2-2h0A2,2,0,0,1,257.7,138.4Z"/><path class="f" d="M262.5,146.4h0a1.9,1.9,0,0,1,2,1.9h0a1.9,1.9,0,0,1-2,2h0a1.9,1.9,0,0,1-2-2h0A1.9,1.9,0,0,1,262.5,146.4Z"/><path class="f" d="M265.7,138.4h0a2,2,0,0,1,2,2h0a2,2,0,0,1-2,2h0a2,2,0,0,1-2-2h0A2,2,0,0,1,265.7,138.4Z"/><path class="g" d="M270.5,146.4h0a1.9,1.9,0,0,1,2,1.9h0a1.9,1.9,0,0,1-2,2h0a1.9,1.9,0,0,1-2-2h0A1.9,1.9,0,0,1,270.5,146.4Z"/><path class="f" d="M273.7,138.4h0a2,2,0,0,1,2,2h0a2,2,0,0,1-2,2h0a2,2,0,0,1-2-2h0A2,2,0,0,1,273.7,138.4Z"/><path class="f" d="M278.4,146.4h0a1.9,1.9,0,0,1,2,1.9h0a1.9,1.9,0,0,1-2,2h0a1.9,1.9,0,0,1-2-2h0A1.9,1.9,0,0,1,278.4,146.4Z"/><circle class="i" cx="292.4" cy="144" r="3.4"/><circle class="j" cx="292.4" cy="144" r="2.7"/><path class="f" d="M232.4,136.9h0a1.5,1.5,0,0,1,1.5,1.5v11.3a1.5,1.5,0,0,1-1.5,1.5h0a1.5,1.5,0,0,1-1.5-1.5V138.4A1.5,1.5,0,0,1,232.4,136.9Z"/><path class="f" d="M226.3,136.9h0a1.5,1.5,0,0,1,1.6,1.5v11.3a1.6,1.6,0,0,1-1.6,1.5h0a1.5,1.5,0,0,1-1.5-1.5V138.4A1.5,1.5,0,0,1,226.3,136.9Z"/><rect class="e" x="196.1" y="136.9" width="24.2" height="6.04"/><rect class="e" x="196.1" y="145.2" width="24.2" height="6.04"/><path class="h" d="M230.9,139.9h3v9.8a1.5,1.5,0,0,1-1.5,1.5h0a1.5,1.5,0,0,1-1.5-1.5v-9.8Z"/><path class="g" d="M224.8,145.6h3.1v4.1a1.6,1.6,0,0,1-1.6,1.5h0a1.5,1.5,0,0,1-1.5-1.5h0v-4.1Z"/><rect class="k" x="196.1" y="136.9" width="6" height="6.04"/><rect class="k" x="196.1" y="145.2" width="6" height="6.04"/><rect class="l" x="205.2" y="139.1" width="12.1" height="1.51"/><rect class="l" x="205.2" y="147.4" width="12.1" height="1.51"/><circle class="i" cx="292.4" cy="144" r="7.2"/><circle class="m" cx="292.4" cy="144" r="6.5"/><path class="l" d="M169.3,149.9h0a2.5,2.5,0,0,1,2.5,2.5v.2a2.5,2.5,0,0,1-2.5,2.4h0a2.5,2.5,0,0,1-2.5-2.4v-.2A2.5,2.5,0,0,1,169.3,149.9Z"/><path class="n" d="M169.5,135.3h0a1.1,1.1,0,0,1,1.1,1.1v9.8a1.1,1.1,0,0,1-1.1,1.1h0a1.1,1.1,0,0,1-1.1-1.1v-9.8A1.1,1.1,0,0,1,169.5,135.3Z"/><path class="o" d="M161.8,149.9h0a2.5,2.5,0,0,1,2.5,2.5v.2a2.5,2.5,0,0,1-2.5,2.4h0a2.5,2.5,0,0,1-2.5-2.4v-.2A2.5,2.5,0,0,1,161.8,149.9Z"/><path class="p" d="M161.9,139.8h0a1.1,1.1,0,0,1,1.2,1.1v5.3a1.1,1.1,0,0,1-1.2,1.1h0a1.1,1.1,0,0,1-1.1-1.1v-5.3A1.1,1.1,0,0,1,161.9,139.8Z"/><path class="l" d="M154.2,149.9h0a2.5,2.5,0,0,1,2.5,2.5v.2a2.5,2.5,0,0,1-2.5,2.4h0a2.5,2.5,0,0,1-2.5-2.4v-.2A2.5,2.5,0,0,1,154.2,149.9Z"/><path class="n" d="M154.4,133.5h0a1.1,1.1,0,0,1,1.1,1.2v11.5a1.1,1.1,0,0,1-1.1,1.1h0a1.1,1.1,0,0,1-1.1-1.1V134.7A1.1,1.1,0,0,1,154.4,133.5Z"/><path class="h" d="M146.7,149.9h0a2.5,2.5,0,0,1,2.5,2.5v.2a2.5,2.5,0,0,1-2.5,2.4h0a2.5,2.5,0,0,1-2.5-2.4v-.2A2.5,2.5,0,0,1,146.7,149.9Z"/><path class="h" d="M146.8,136.4h0a1.1,1.1,0,0,1,1.2,1.1v8.7a1.1,1.1,0,0,1-1.2,1.1h0a1.1,1.1,0,0,1-1.1-1.1v-8.7A1.1,1.1,0,0,1,146.8,136.4Z"/><path class="g" d="M139.1,149.9h0a2.5,2.5,0,0,1,2.5,2.5v.2a2.5,2.5,0,0,1-2.5,2.4h0a2.5,2.5,0,0,1-2.5-2.4v-.2A2.5,2.5,0,0,1,139.1,149.9Z"/><path class="g" d="M139.3,141.3h0a1.1,1.1,0,0,1,1.1,1.1v3.8a1.1,1.1,0,0,1-1.1,1.1h0a1.1,1.1,0,0,1-1.1-1.1v-3.8A1.1,1.1,0,0,1,139.3,141.3Z"/><rect class="c" x="131" y="206.5" width="172.2" height="13.38"/><path class="d" d="M129.2,170.3h176c3.5,0,6.3,2.1,6.3,4.6v29.2c0,2.5-2.8,4.6-6.3,4.6h-176c-3.5,0-6.3-2.1-6.3-4.6V174.9C122.9,172.4,125.7,170.3,129.2,170.3Z"/><path class="e" d="M125.6,170.3h60.9v38.4H125.6a2.7,2.7,0,0,1-2.7-2.7V173A2.7,2.7,0,0,1,125.6,170.3Z"/><path class="f" d="M241.7,184.1h0a2,2,0,0,1,2,2h0a2,2,0,0,1-2,2h0a2,2,0,0,1-2-2h0A2,2,0,0,1,241.7,184.1Z"/><path class="g" d="M246.5,192h0a2,2,0,0,1,2,2h0a2,2,0,0,1-2,2h0a2,2,0,0,1-2-2h0A2,2,0,0,1,246.5,192Z"/><path class="f" d="M249.7,184.1h0a2,2,0,0,1,2,2h0a2,2,0,0,1-2,2h0a2,2,0,0,1-2-2h0A2,2,0,0,1,249.7,184.1Z"/><path class="f" d="M254.5,192h0a2,2,0,0,1,2,2h0a2,2,0,0,1-2,2h0a2,2,0,0,1-2-2h0A2,2,0,0,1,254.5,192Z"/><path class="h" d="M257.7,184.1h0a2,2,0,0,1,2,2h0a2,2,0,0,1-2,2h0a2,2,0,0,1-2-2h0A2,2,0,0,1,257.7,184.1Z"/><path class="f" d="M262.5,192h0a2,2,0,0,1,2,2h0a2,2,0,0,1-2,2h0a2,2,0,0,1-2-2h0A2,2,0,0,1,262.5,192Z"/><path class="f" d="M265.7,184.1h0a2,2,0,0,1,2,2h0a2,2,0,0,1-2,2h0a2,2,0,0,1-2-2h0A2,2,0,0,1,265.7,184.1Z"/><path class="g" d="M270.5,192h0a2,2,0,0,1,2,2h0a2,2,0,0,1-2,2h0a2,2,0,0,1-2-2h0A2,2,0,0,1,270.5,192Z"/><path class="f" d="M273.7,184.1h0a2,2,0,0,1,2,2h0a2,2,0,0,1-2,2h0a2,2,0,0,1-2-2h0A2,2,0,0,1,273.7,184.1Z"/><path class="f" d="M278.4,192h0a1.9,1.9,0,0,1,2,2h0a1.9,1.9,0,0,1-2,2h0a2,2,0,0,1-2-2h0A2,2,0,0,1,278.4,192Z"/><circle class="i" cx="292.4" cy="189.7" r="3.4"/><circle class="j" cx="292.4" cy="189.7" r="2.7"/><path class="f" d="M232.4,182.5h0a1.6,1.6,0,0,1,1.5,1.6v11.3a1.5,1.5,0,0,1-1.5,1.5h0a1.5,1.5,0,0,1-1.5-1.5V184.1A1.6,1.6,0,0,1,232.4,182.5Z"/><path class="f" d="M226.3,182.5h0a1.6,1.6,0,0,1,1.6,1.6v11.3a1.6,1.6,0,0,1-1.6,1.5h0a1.5,1.5,0,0,1-1.5-1.5V184.1A1.6,1.6,0,0,1,226.3,182.5Z"/><rect class="e" x="196.1" y="182.5" width="24.2" height="6.04"/><rect class="e" x="196.1" y="190.9" width="24.2" height="6.04"/><path class="h" d="M230.9,185.6h3v9.8a1.5,1.5,0,0,1-1.5,1.5h0a1.5,1.5,0,0,1-1.5-1.5v-9.8Z"/><path class="g" d="M224.8,191.3h3.1v4.1a1.6,1.6,0,0,1-1.6,1.5h0a1.5,1.5,0,0,1-1.5-1.5h0v-4.1Z"/><rect class="k" x="196.1" y="182.5" width="6" height="6.04"/><rect class="k" x="196.1" y="190.9" width="6" height="6.04"/><rect class="l" x="205.2" y="184.8" width="12.1" height="1.51"/><rect class="l" x="205.2" y="193.1" width="12.1" height="1.51"/><circle class="i" cx="292.4" cy="189.7" r="7.2"/><circle class="m" cx="292.4" cy="189.7" r="6.5"/><path class="l" d="M169.3,195.6h0a2.5,2.5,0,0,1,2.5,2.5v.2a2.5,2.5,0,0,1-2.5,2.4h0a2.5,2.5,0,0,1-2.5-2.4v-.2A2.5,2.5,0,0,1,169.3,195.6Z"/><path class="n" d="M169.5,181h0a1.1,1.1,0,0,1,1.1,1.1v9.8a1.1,1.1,0,0,1-1.1,1.1h0a1.1,1.1,0,0,1-1.1-1.1v-9.8A1.1,1.1,0,0,1,169.5,181Z"/><path class="o" d="M161.8,195.6h0a2.5,2.5,0,0,1,2.5,2.5v.2a2.5,2.5,0,0,1-2.5,2.4h0a2.5,2.5,0,0,1-2.5-2.4v-.2A2.5,2.5,0,0,1,161.8,195.6Z"/><path class="p" d="M161.9,185.5h0a1.1,1.1,0,0,1,1.2,1.1v5.3a1.1,1.1,0,0,1-1.2,1.1h0a1.1,1.1,0,0,1-1.1-1.1v-5.3A1.1,1.1,0,0,1,161.9,185.5Z"/><path class="l" d="M154.2,195.6h0a2.5,2.5,0,0,1,2.5,2.5v.2a2.5,2.5,0,0,1-2.5,2.4h0a2.5,2.5,0,0,1-2.5-2.4v-.2A2.5,2.5,0,0,1,154.2,195.6Z"/><path class="n" d="M154.4,179.2h0a1.1,1.1,0,0,1,1.1,1.2v11.5a1.1,1.1,0,0,1-1.1,1.1h0a1.1,1.1,0,0,1-1.1-1.1V180.4A1.1,1.1,0,0,1,154.4,179.2Z"/><path class="h" d="M146.7,195.6h0a2.5,2.5,0,0,1,2.5,2.5v.2a2.5,2.5,0,0,1-2.5,2.4h0a2.5,2.5,0,0,1-2.5-2.4v-.2A2.5,2.5,0,0,1,146.7,195.6Z"/><path class="h" d="M146.8,182.1h0a1.1,1.1,0,0,1,1.2,1.1v8.7a1.1,1.1,0,0,1-1.2,1.1h0a1.1,1.1,0,0,1-1.1-1.1v-8.7A1.1,1.1,0,0,1,146.8,182.1Z"/><path class="g" d="M139.1,195.6h0a2.5,2.5,0,0,1,2.5,2.5v.2a2.5,2.5,0,0,1-2.5,2.4h0a2.5,2.5,0,0,1-2.5-2.4v-.2A2.5,2.5,0,0,1,139.1,195.6Z"/><path class="g" d="M139.3,187h0a1.1,1.1,0,0,1,1.1,1.1v3.8a1.1,1.1,0,0,1-1.1,1.1h0a1.1,1.1,0,0,1-1.1-1.1v-3.8A1.1,1.1,0,0,1,139.3,187Z"/><rect class="c" x="131" y="252.2" width="172.2" height="13.38"/><path class="d" d="M129.2,216h176c3.5,0,6.3,2.1,6.3,4.6v29.2c0,2.5-2.8,4.6-6.3,4.6h-176c-3.5,0-6.3-2.1-6.3-4.6V220.6C122.9,218.1,125.7,216,129.2,216Z"/><path class="e" d="M125.6,216h60.9v38.4H125.6a2.7,2.7,0,0,1-2.7-2.7v-33A2.7,2.7,0,0,1,125.6,216Z"/><path class="f" d="M241.7,229.8h0a1.9,1.9,0,0,1,2,1.9h0a1.9,1.9,0,0,1-2,2h0a1.9,1.9,0,0,1-2-2h0A1.9,1.9,0,0,1,241.7,229.8Z"/><path class="g" d="M246.5,237.7h0a2,2,0,0,1,2,2h0a2,2,0,0,1-2,2h0a2,2,0,0,1-2-2h0A2,2,0,0,1,246.5,237.7Z"/><path class="f" d="M249.7,229.8h0a1.9,1.9,0,0,1,2,1.9h0a1.9,1.9,0,0,1-2,2h0a1.9,1.9,0,0,1-2-2h0A1.9,1.9,0,0,1,249.7,229.8Z"/><path class="f" d="M254.5,237.7h0a2,2,0,0,1,2,2h0a2,2,0,0,1-2,2h0a2,2,0,0,1-2-2h0A2,2,0,0,1,254.5,237.7Z"/><path class="h" d="M257.7,229.8h0a1.9,1.9,0,0,1,2,1.9h0a1.9,1.9,0,0,1-2,2h0a1.9,1.9,0,0,1-2-2h0A1.9,1.9,0,0,1,257.7,229.8Z"/><path class="f" d="M262.5,237.7h0a2,2,0,0,1,2,2h0a2,2,0,0,1-2,2h0a2,2,0,0,1-2-2h0A2,2,0,0,1,262.5,237.7Z"/><path class="f" d="M265.7,229.8h0a1.9,1.9,0,0,1,2,1.9h0a1.9,1.9,0,0,1-2,2h0a1.9,1.9,0,0,1-2-2h0A1.9,1.9,0,0,1,265.7,229.8Z"/><path class="g" d="M270.5,237.7h0a2,2,0,0,1,2,2h0a2,2,0,0,1-2,2h0a2,2,0,0,1-2-2h0A2,2,0,0,1,270.5,237.7Z"/><path class="f" d="M273.7,229.8h0a1.9,1.9,0,0,1,2,1.9h0a1.9,1.9,0,0,1-2,2h0a1.9,1.9,0,0,1-2-2h0A1.9,1.9,0,0,1,273.7,229.8Z"/><path class="f" d="M278.4,237.7h0a1.9,1.9,0,0,1,2,2h0a1.9,1.9,0,0,1-2,2h0a2,2,0,0,1-2-2h0A2,2,0,0,1,278.4,237.7Z"/><circle class="i" cx="292.4" cy="235.4" r="3.4"/><circle class="j" cx="292.4" cy="235.4" r="2.7"/><path class="f" d="M232.4,228.2h0a1.6,1.6,0,0,1,1.5,1.6v11.3a1.5,1.5,0,0,1-1.5,1.5h0a1.5,1.5,0,0,1-1.5-1.5V229.8A1.6,1.6,0,0,1,232.4,228.2Z"/><path class="f" d="M226.3,228.2h0a1.6,1.6,0,0,1,1.6,1.6v11.3a1.6,1.6,0,0,1-1.6,1.5h0a1.5,1.5,0,0,1-1.5-1.5V229.8A1.6,1.6,0,0,1,226.3,228.2Z"/><rect class="e" x="196.1" y="228.2" width="24.2" height="6.04"/><rect class="e" x="196.1" y="236.5" width="24.2" height="6.04"/><path class="h" d="M230.9,231.3h3v9.8a1.5,1.5,0,0,1-1.5,1.5h0a1.5,1.5,0,0,1-1.5-1.5v-9.8Z"/><path class="g" d="M224.8,237h3.1v4.1a1.6,1.6,0,0,1-1.6,1.5h0a1.5,1.5,0,0,1-1.5-1.5h0V237Z"/><rect class="k" x="196.1" y="228.2" width="6" height="6.04"/><rect class="k" x="196.1" y="236.5" width="6" height="6.04"/><rect class="l" x="205.2" y="230.5" width="12.1" height="1.51"/><rect class="l" x="205.2" y="238.8" width="12.1" height="1.51"/><circle class="i" cx="292.4" cy="235.4" r="7.2"/><circle class="m" cx="292.4" cy="235.4" r="6.5"/><path class="l" d="M169.3,241.3h0a2.5,2.5,0,0,1,2.5,2.4v.2a2.5,2.5,0,0,1-2.5,2.5h0a2.5,2.5,0,0,1-2.5-2.5v-.2A2.5,2.5,0,0,1,169.3,241.3Z"/><path class="n" d="M169.5,226.7h0a1.1,1.1,0,0,1,1.1,1.1v9.8a1.1,1.1,0,0,1-1.1,1.1h0a1.1,1.1,0,0,1-1.1-1.1v-9.8A1.1,1.1,0,0,1,169.5,226.7Z"/><path class="o" d="M161.8,241.3h0a2.5,2.5,0,0,1,2.5,2.4v.2a2.5,2.5,0,0,1-2.5,2.5h0a2.5,2.5,0,0,1-2.5-2.5v-.2A2.5,2.5,0,0,1,161.8,241.3Z"/><path class="p" d="M161.9,231.2h0a1.1,1.1,0,0,1,1.2,1.1v5.3a1.1,1.1,0,0,1-1.2,1.1h0a1.1,1.1,0,0,1-1.1-1.1v-5.3A1.1,1.1,0,0,1,161.9,231.2Z"/><path class="l" d="M154.2,241.3h0a2.5,2.5,0,0,1,2.5,2.4v.2a2.5,2.5,0,0,1-2.5,2.5h0a2.5,2.5,0,0,1-2.5-2.5v-.2A2.5,2.5,0,0,1,154.2,241.3Z"/><path class="n" d="M154.4,224.9h0a1.1,1.1,0,0,1,1.1,1.2v11.5a1.1,1.1,0,0,1-1.1,1.1h0a1.1,1.1,0,0,1-1.1-1.1V226.1A1.1,1.1,0,0,1,154.4,224.9Z"/><path class="h" d="M146.7,241.3h0a2.5,2.5,0,0,1,2.5,2.4v.2a2.5,2.5,0,0,1-2.5,2.5h0a2.5,2.5,0,0,1-2.5-2.5v-.2A2.5,2.5,0,0,1,146.7,241.3Z"/><path class="h" d="M146.8,227.8h0a1.1,1.1,0,0,1,1.2,1.1v8.7a1.1,1.1,0,0,1-1.2,1.1h0a1.1,1.1,0,0,1-1.1-1.1v-8.7A1.1,1.1,0,0,1,146.8,227.8Z"/><path class="g" d="M139.1,241.3h0a2.5,2.5,0,0,1,2.5,2.4v.2a2.5,2.5,0,0,1-2.5,2.5h0a2.5,2.5,0,0,1-2.5-2.5v-.2A2.5,2.5,0,0,1,139.1,241.3Z"/><path class="g" d="M139.3,232.7h0a1.1,1.1,0,0,1,1.1,1.1v3.8a1.1,1.1,0,0,1-1.1,1.1h0a1.1,1.1,0,0,1-1.1-1.1v-3.8A1.1,1.1,0,0,1,139.3,232.7Z"/><path class="d" d="M129.2,261.7h176c3.5,0,6.3,2.1,6.3,4.6v29.2c0,2.5-2.8,4.6-6.3,4.6h-176c-3.5,0-6.3-2.1-6.3-4.6V266.3C122.9,263.8,125.7,261.7,129.2,261.7Z"/><path class="e" d="M125.6,261.7h60.9v38.4H125.6a2.7,2.7,0,0,1-2.7-2.7v-33A2.7,2.7,0,0,1,125.6,261.7Z"/><path class="f" d="M241.7,275.4h0a2,2,0,0,1,2,2h0a2,2,0,0,1-2,2h0a2,2,0,0,1-2-2h0A2,2,0,0,1,241.7,275.4Z"/><path class="g" d="M246.5,283.4h0a2,2,0,0,1,2,2h0a2,2,0,0,1-2,2h0a2,2,0,0,1-2-2h0A2,2,0,0,1,246.5,283.4Z"/><path class="f" d="M249.7,275.4h0a2,2,0,0,1,2,2h0a2,2,0,0,1-2,2h0a2,2,0,0,1-2-2h0A2,2,0,0,1,249.7,275.4Z"/><path class="f" d="M254.5,283.4h0a2,2,0,0,1,2,2h0a2,2,0,0,1-2,2h0a2,2,0,0,1-2-2h0A2,2,0,0,1,254.5,283.4Z"/><path class="h" d="M257.7,275.4h0a2,2,0,0,1,2,2h0a2,2,0,0,1-2,2h0a2,2,0,0,1-2-2h0A2,2,0,0,1,257.7,275.4Z"/><path class="f" d="M262.5,283.4h0a2,2,0,0,1,2,2h0a2,2,0,0,1-2,2h0a2,2,0,0,1-2-2h0A2,2,0,0,1,262.5,283.4Z"/><path class="f" d="M265.7,275.4h0a2,2,0,0,1,2,2h0a2,2,0,0,1-2,2h0a2,2,0,0,1-2-2h0A2,2,0,0,1,265.7,275.4Z"/><path class="g" d="M270.5,283.4h0a2,2,0,0,1,2,2h0a2,2,0,0,1-2,2h0a2,2,0,0,1-2-2h0A2,2,0,0,1,270.5,283.4Z"/><path class="f" d="M273.7,275.4h0a2,2,0,0,1,2,2h0a2,2,0,0,1-2,2h0a2,2,0,0,1-2-2h0A2,2,0,0,1,273.7,275.4Z"/><path class="f" d="M278.4,283.4h0a1.9,1.9,0,0,1,2,2h0a1.9,1.9,0,0,1-2,2h0a2,2,0,0,1-2-2h0A2,2,0,0,1,278.4,283.4Z"/><circle class="i" cx="292.4" cy="281.1" r="3.4"/><circle class="j" cx="292.4" cy="281.1" r="2.7"/><path class="f" d="M232.4,273.9h0a1.5,1.5,0,0,1,1.5,1.5v11.4a1.5,1.5,0,0,1-1.5,1.5h0a1.5,1.5,0,0,1-1.5-1.5V275.4A1.5,1.5,0,0,1,232.4,273.9Z"/><path class="f" d="M226.3,273.9h0a1.6,1.6,0,0,1,1.6,1.5v11.4a1.6,1.6,0,0,1-1.6,1.5h0a1.5,1.5,0,0,1-1.5-1.5V275.4A1.5,1.5,0,0,1,226.3,273.9Z"/><rect class="e" x="196.1" y="273.9" width="24.2" height="6.04"/><rect class="e" x="196.1" y="282.2" width="24.2" height="6.04"/><path class="h" d="M230.9,277h3v9.8a1.5,1.5,0,0,1-1.5,1.5h0a1.5,1.5,0,0,1-1.5-1.5V277Z"/><path class="g" d="M224.8,282.7h3.1v4.1a1.6,1.6,0,0,1-1.6,1.5h0a1.5,1.5,0,0,1-1.5-1.5h0v-4.1Z"/><rect class="k" x="196.1" y="273.9" width="6" height="6.04"/><rect class="k" x="196.1" y="282.2" width="6" height="6.04"/><rect class="l" x="205.2" y="276.2" width="12.1" height="1.51"/><rect class="l" x="205.2" y="284.5" width="12.1" height="1.51"/><circle class="i" cx="292.4" cy="281.1" r="7.2"/><circle class="m" cx="292.4" cy="281.1" r="6.5"/><path class="l" d="M169.3,286.3h0a2.5,2.5,0,0,1,2.5,2.5v.2a2.5,2.5,0,0,1-2.5,2.5h0a2.6,2.6,0,0,1-2.5-2.5v-.2A2.5,2.5,0,0,1,169.3,286.3Z"/><path class="n" d="M169.5,271.7h0a1.1,1.1,0,0,1,1.1,1.1v9.8a1.2,1.2,0,0,1-1.1,1.2h0a1.2,1.2,0,0,1-1.1-1.2v-9.8A1.1,1.1,0,0,1,169.5,271.7Z"/><path class="o" d="M161.8,286.3h0a2.5,2.5,0,0,1,2.5,2.5v.2a2.5,2.5,0,0,1-2.5,2.5h0a2.5,2.5,0,0,1-2.5-2.5v-.2A2.5,2.5,0,0,1,161.8,286.3Z"/><path class="p" d="M161.9,276.2h0a1.1,1.1,0,0,1,1.2,1.1v5.3a1.2,1.2,0,0,1-1.2,1.2h0a1.2,1.2,0,0,1-1.1-1.2v-5.3A1.1,1.1,0,0,1,161.9,276.2Z"/><path class="l" d="M154.2,286.3h0a2.5,2.5,0,0,1,2.5,2.5v.2a2.5,2.5,0,0,1-2.5,2.5h0a2.6,2.6,0,0,1-2.5-2.5v-.2A2.5,2.5,0,0,1,154.2,286.3Z"/><path class="n" d="M154.4,269.9h0a1.1,1.1,0,0,1,1.1,1.2v11.5a1.2,1.2,0,0,1-1.1,1.2h0a1.2,1.2,0,0,1-1.1-1.2V271.1A1.1,1.1,0,0,1,154.4,269.9Z"/><path class="h" d="M146.7,286.3h0a2.5,2.5,0,0,1,2.5,2.5v.2a2.5,2.5,0,0,1-2.5,2.5h0a2.5,2.5,0,0,1-2.5-2.5v-.2A2.5,2.5,0,0,1,146.7,286.3Z"/><path class="h" d="M146.8,272.8h0a1.1,1.1,0,0,1,1.2,1.1v8.7a1.2,1.2,0,0,1-1.2,1.2h0a1.2,1.2,0,0,1-1.1-1.2v-8.7A1.1,1.1,0,0,1,146.8,272.8Z"/><path class="g" d="M139.1,286.3h0a2.5,2.5,0,0,1,2.5,2.5v.2a2.5,2.5,0,0,1-2.5,2.5h0a2.6,2.6,0,0,1-2.5-2.5v-.2A2.5,2.5,0,0,1,139.1,286.3Z"/><path class="g" d="M139.3,277.7h0a1.1,1.1,0,0,1,1.1,1.1v3.8a1.2,1.2,0,0,1-1.1,1.2h0a1.2,1.2,0,0,1-1.1-1.2v-3.8A1.1,1.1,0,0,1,139.3,277.7Z"/><path class="q" d="M234.6,294.3c0-2.2,10.3-21.6,10.5-44.1A53.7,53.7,0,0,1,257,216c12.4-15.1,14.8-26.1,13.8-34.4-1.9-14.6,7.7-28.3,22.4-30.2,59.7-7.8,3.8,133,22.8,133,37,0,53.2,9.5,52.6,20.9-.7,14.8-42.4,19.7-77.8,18.5C261.8,322.7,234.6,311.1,234.6,294.3Z"/><path class="r" d="M342.8,216.9c-9.9-8.9-14.1-22.3-12-35.5a35.1,35.1,0,0,0,.3-5.7,28.3,28.3,0,0,0-56.6,1.4,31,31,0,0,0,.8,6.9,38.4,38.4,0,0,1-9,36.1,54.1,54.1,0,0,0-14.9,37c0,33,12.8,48.9,31.2,53.9,4.2-1.9,10.4-3.1,17.2-3.1a43.2,43.2,0,0,1,16.5,2.9c22.7-4.6,33.5-15.6,41-41.1C363.2,249.3,354,226.9,342.8,216.9Z"/><path d="M342.8,216.9c-9.9-8.9-14.1-22.3-12-35.5a35.1,35.1,0,0,0,.3-5.7,28.5,28.5,0,0,0-27.5-26.9,23.6,23.6,0,0,0-3.8.2V307.9c7.5,0,14.2,1.5,18.5,3.8,21.4-3.4,31.7-17.2,39-42C363.2,249.3,354,226.9,342.8,216.9Z"/><path class="p" d="M263.4,263.8c0-21.5,17.2-71.3,38.5-71.3s38.5,50.1,38.5,71.3a38.5,38.5,0,1,1-77,0Z"/><path class="s" d="M301.9,192.5l-2.1.2V302.2h2.1a38.5,38.5,0,0,0,38.5-38.5C340.4,242.6,323.1,192.5,301.9,192.5Z"/><ellipse class="t" cx="287.7" cy="181.6" rx="6.3" ry="8.6"/><ellipse class="u" cx="287.7" cy="183.6" rx="3.1" ry="5.6"/><ellipse class="t" cx="310.3" cy="181.6" rx="6.3" ry="8.6"/><ellipse class="u" cx="310.3" cy="183.6" rx="3.1" ry="5.6"/><path class="v" d="M318.8,196.3c2,4.5-13.7,12.8-19.2,12.8s-21.2-10.1-19.2-12.8c3.6-4.9,11.6-13,18.2-13C303.3,183.3,317.3,193.3,318.8,196.3Z"/><path class="w" d="M318.8,196.3c-1.3-2.7-13.5-11.5-19-12.8v25.6C305.5,208.9,320.8,200.7,318.8,196.3Z"/><path class="x" d="M342.8,265.2c2.8,5.4,6.9,10.6,12.3,11.7a9.8,9.8,0,0,1,7.4,8.3,9.9,9.9,0,0,0,.2,1.7,22.9,22.9,0,0,0,4.4,9.6,6.9,6.9,0,0,1-4.2,11.1l-40.3,7.7a10.4,10.4,0,0,1-10.8-15.6l22.3-34.9A5,5,0,0,1,342.8,265.2Z"/><path class="y" d="M299.5,206.6c-5.7,0-11.6-2.8-17.4-8.3l1.9-2.1c5.9,5.5,11.6,8.1,17,7.5,7.5-.8,12-7.2,12.1-7.3l2.3,1.7c-.2.3-5.3,7.5-14.1,8.4Z"/><path class="z" d="M301,203.7h-1.2v2.8h1.5c8.8-.9,13.9-8.1,14.1-8.4l-2.3-1.7C313,196.5,308.5,202.9,301,203.7Z"/><circle cx="348.2" cy="271.5" r="12.9"/><path class="r" d="M260.9,257.3s13.8,16.8,23.6,20.6-4.6,14.8-17.9,6.5S260.9,257.3,260.9,257.3Z"/><path class="aa" d="M253.5,265.2c-2.8,5.4-7,10.6-12.4,11.7a9.8,9.8,0,0,0-7.4,8.3,9.9,9.9,0,0,1-.2,1.7,21.7,21.7,0,0,1-4.4,9.6,7,7,0,0,0,4.2,11.1l40.4,7.7a10.4,10.4,0,0,0,10.7-15.6l-22.3-34.9A4.9,4.9,0,0,0,253.5,265.2Z"/><path class="ab" d="M95.2,224.2a21,21,0,0,0,6-6.5,35.7,35.7,0,0,0,2.3-5.7c1.2-3.9,2.5-7.9,2.6-11.9s-.5-6,0-9a34.2,34.2,0,0,1,2.6-7.2,26.9,26.9,0,0,0,2.5-10.4,32.9,32.9,0,0,0-.8-7.1,112.4,112.4,0,0,1-1.3-18.6c.1-2.7.2-5.4-.5-7.6a29,29,0,0,1-1.4,6.5,50.8,50.8,0,0,1-4.9,9.6c-3.7,5.7-7.7,11-11.1,17a54.1,54.1,0,0,0-7.3,20.4c-.4,3.4-.4,6.9-1.2,10.3-2,8.9-9.2,14.9-10.5,24a50.6,50.6,0,0,0-.2,5.5c0,2.3-.7,10.9,1.1,10.2s2.7-3,3.5-3.9l3.6-3.5c2.5-2.2,5-4.3,7.6-6.2S93.3,226.7,95.2,224.2Z"/><path class="ac" d="M81.1,227.2a56,56,0,0,0,9.5-17.8,86.7,86.7,0,0,0,2.8-10.3c.8-3.5,1.3-7.1,2-10.7.3-1.9.7-3.7,1.1-5.5s1-3.7,1.5-5.4c1.2-3.5,2.6-6.9,4-10.1s2.7-6.6,3.8-10a47.6,47.6,0,0,0,2.2-10.6,37.4,37.4,0,0,1-1.6,10.9c-.9,3.6-2.2,7-3.4,10.4s-2.6,6.7-3.7,10.1c-.5,1.7-1,3.3-1.4,5.1s-.7,3.5-1,5.3c-.7,3.6-1.2,7.2-2.1,10.9a76.3,76.3,0,0,1-3.2,10.6,50,50,0,0,1-4.6,9.6A35,35,0,0,1,81.1,227.2Z"/><path class="ad" d="M111.1,192.7a22.9,22.9,0,0,0-7.2,3c-5.9,4.3-6.3,12.9-10.6,18.7s-8.5,7-11.6,11.4a33.5,33.5,0,0,0-3.7,7.9l-3.2,8.7a180.9,180.9,0,0,0,36.4-13.5,19.6,19.6,0,0,0,5.7-3.8c3.2-3.2,4.2-8.1,4.2-12.6s-.4-7.8.9-11.5c2-6.1,7.5-8.2,11.8-12.2C127.3,187.6,117.5,191,111.1,192.7Z"/><path class="ac" d="M125.5,191.8c-2.2,1.2-4.4,2.3-6.4,3.6a34.7,34.7,0,0,0-5.7,4.4,18.8,18.8,0,0,0-3.8,5.8c-.9,2.2-1.5,4.6-2.3,6.9A20.9,20.9,0,0,1,106,216a15.4,15.4,0,0,1-1.7,3.4,32.9,32.9,0,0,1-4.8,5.7,62.4,62.4,0,0,1-12.1,8.4c2-1.5,3.9-2.9,5.8-4.5a61.7,61.7,0,0,0,5.4-4.8,32.8,32.8,0,0,0,4.4-5.6,23.9,23.9,0,0,0,1.6-3.2,19.6,19.6,0,0,0,1.2-3.4c.8-2.3,1.4-4.7,2.4-7a17.6,17.6,0,0,1,4.4-6.1C116.3,195.5,120.9,193.5,125.5,191.8Z"/><path class="ae" d="M65,201.2c-3.1-5.4-7.6-10.1-13.4-12.4-7.9-3.3-17.6-1.9-24.7-6.8-1.4-1-2.7-2.2-4.2-3.1-3.4-2-7.5-2.1-11.4-2.2a2.7,2.7,0,0,0-1.6.3,6.1,6.1,0,0,0-.7,1c-.7,2.4.5,5,2.2,6.8s4,3.1,5.8,4.8a22.1,22.1,0,0,1,6,11,76.5,76.5,0,0,1,1.8,12.6,15.9,15.9,0,0,0,1.1,4.9c1.1,2.5,3.4,4.1,5.6,5.5a52.1,52.1,0,0,0,11.9,5.7c8.8,3,18.8,4,25.6,10.3l2.2,2a8.1,8.1,0,0,0,5.4,1.5c.7-2.4-.4-4.9-1.3-7.2-2.3-6-2.7-12-3.9-18.2A51,51,0,0,0,65,201.2Z"/><path class="af" d="M68,154.2a37.1,37.1,0,0,1,7.4,23.6c-.3,7.6-2.9,15.4-.8,22.7,1.1,3.6,3.3,6.8,3.8,10.5,1.2,8.8-7.1,16.3-7.5,25.1-1.7-.3-2.5-2.1-3.4-3.6-2.4-4.1-7-6.5-10.7-9.5a31.2,31.2,0,0,1-11.3-21.6c-.9-10,3.1-20,2-29.9-.4-3.5-1.4-6.8-1.9-10.2a45.7,45.7,0,0,1-.1-14.3c.6-3.8,1.8-10.7,4.8-13.3C55.6,141.1,62.6,146.9,68,154.2Z"/><path class="ag" d="M82.6,173.3c-1.6,1.8-3.4,3.3-4.6,5.3a15.3,15.3,0,0,0-2,5.9,32.4,32.4,0,0,0-.1,10.3,23.5,23.5,0,0,1,.5,5.2c-.5,6.7-7.8,10.8-7.8,17.5a25.8,25.8,0,0,0,1.4,6.7c1.9,6.2,4.1,12.4,6.4,18.5a42.7,42.7,0,0,1,2.5-7.9c.7-1.5,1.6-2.9,2.3-4.5,1.9-4.5,1.5-9.8.2-14.6a9.4,9.4,0,0,1-.6-4.4,6.4,6.4,0,0,1,1.3-2.9c2-2.9,4.8-4.9,7.2-7.4s3.4-5.8,4.3-9.1a29.8,29.8,0,0,0,1.6-8.4,30.7,30.7,0,0,0-1.5-7.8c-1.8-6.3-3-13.4-5.5-19.4-1.1,2.2-.5,5.3-1,7.8A21.1,21.1,0,0,1,82.6,173.3Z"/><path class="ac" d="M51.4,146.6c1.9,7.1,4.4,14,5.9,21.4a58.8,58.8,0,0,1,1.1,11.1c.1,3.7.1,7.4.1,11.1,0,1.8.1,3.6.2,5.4a44.6,44.6,0,0,0,.6,5.4c.3,1.8.7,3.6,1.1,5.3s1.1,3.5,1.7,5.2a179.6,179.6,0,0,0,8.7,20.3,97.7,97.7,0,0,1-10.6-19.6c-.7-1.7-1.3-3.4-1.9-5.3a33.9,33.9,0,0,1-1.3-5.5,60.3,60.3,0,0,1-.8-11.2c0-3.7.2-7.4.3-11.1a56.5,56.5,0,0,0-.7-10.9C54.7,161,52.6,153.8,51.4,146.6Z"/><path class="ac" d="M18.9,185a53.8,53.8,0,0,1,16.4,9.8,32.1,32.1,0,0,1,6.3,7.4c1.7,2.7,3,5.6,4.5,8.4a45,45,0,0,0,4.8,7.9,33,33,0,0,0,6.6,6.3c2.5,1.9,5.1,3.7,7.5,5.8a27.3,27.3,0,0,1,3.5,3.3,21.4,21.4,0,0,1,2.8,3.9,21.3,21.3,0,0,0-3.3-3.4,33.7,33.7,0,0,0-3.7-2.9c-2.5-1.8-5.3-3.4-7.9-5.2l-2-1.3-1.9-1.6a22.6,22.6,0,0,1-3.4-3.5,46.7,46.7,0,0,1-5.1-8.2c-1.5-2.8-2.8-5.7-4.4-8.3a35.5,35.5,0,0,0-5.6-7.3A76.4,76.4,0,0,0,18.9,185Z"/><path class="ac" d="M87.9,173.6A61.9,61.9,0,0,1,85.4,189c-1.4,5-3.2,9.9-4.8,14.8a151.2,151.2,0,0,0-4.2,15A128.3,128.3,0,0,0,74,234.1a82,82,0,0,1,1.2-15.6A116.5,116.5,0,0,1,79,203.3c1.7-4.9,3.6-9.8,5.2-14.7A86.5,86.5,0,0,0,87.9,173.6Z"/><path class="ah" d="M95.5,300.5H57.4A4.4,4.4,0,0,1,53,296l-7.5-53a4.4,4.4,0,0,1,4.4-4.4h53a4.5,4.5,0,0,1,4.5,4.4l-7.5,53A4.5,4.5,0,0,1,95.5,300.5Z"/></g></svg>