<?xml version="1.0" encoding="utf-8"?>
<!-- Generator: Adobe Illustrator 22.0.1, SVG Export Plug-In . SVG Version: 6.00 Build 0)  -->
<svg version="1.1" id="Layer_1" xmlns="http://www.w3.org/2000/svg" xmlns:xlink="http://www.w3.org/1999/xlink" x="0px" y="0px"
	 viewBox="0 0 60 60" enable-background="new 0 0 60 60" xml:space="preserve">
<g>
	<g id="Group_5832" transform="translate(-14818.4 -15357.398)">
		<g id="Group_5259" transform="translate(80.162 84.079)">
			<g id="Path_4621">
				<path fill="#FFFFFF" d="M14782.3,15304.6l-8.1-1.5l2.6,19.3l15.2,4.1L14782.3,15304.6z"/>
				<path fill="#137FCF" d="M14793.8,15328l-17.9-4.8l-2.9-21.4l10,1.8L14793.8,15328z M14777.7,15321.7l12.5,3.4l-8.6-19.5
					l-6.2-1.1L14777.7,15321.7z"/>
			</g>
			<g id="Path_4622">
				<path fill="#FFFFFF" d="M14753.5,15303.5l-9.5,20.9l14.3,4.4l3.6-23.8L14753.5,15303.5z"/>
				<path fill="#137FCF" d="M14759.1,15330.1l-16.5-5.1l10.3-22.6l10.1,1.8L14759.1,15330.1z M14745.4,15323.8l12.1,3.7l3.3-21.7
					l-6.6-1.2L14745.4,15323.8z"/>
			</g>
		</g>
		<g id="Path_4623">
			<path fill="#FFFFFF" d="M14854.4,15387.2l-12.3,1.9l-3.6,23.8l18.6-6.4L14854.4,15387.2z"/>
			<path fill="#137FCF" d="M14837.2,15414.4l4-26.1l14-2.2l2.9,21.2L14837.2,15414.4z M14843,15390l-3.3,21.4l16.2-5.6l-2.4-17.5
				L14843,15390z"/>
		</g>
		<g id="Path_4624">
			<path fill="#D6EEFF" d="M14862.1,15375.6c0,7.8-14.1,24.8-14.1,24.8s-14.1-17-14.1-24.8c-0.1-7.8,6.2-14.2,14-14.2
				c7.8-0.1,14.2,6.2,14.2,14C14862.1,15375.5,14862.1,15375.5,14862.1,15375.6z"/>
			<path fill="#137FCF" d="M14848,15402l-0.8-0.9c-0.6-0.7-14.3-17.4-14.3-25.5c0-4,1.5-7.8,4.3-10.7s6.6-4.5,10.7-4.5h0.1
				c8.3,0,15,6.7,15.1,15v0.2c0,8.1-13.8,24.8-14.3,25.5L14848,15402z M14848,15362.4L14848,15362.4c-3.6,0-6.9,1.4-9.3,3.9
				c-2.5,2.5-3.8,5.8-3.8,9.3c0,6.3,10.2,19.6,13.1,23.2c2.9-3.7,13.1-16.9,13.1-23.2v-0.2
				C14861.1,15368.2,14855.2,15362.4,14848,15362.4z"/>
		</g>
		<g id="Path_4629">
			<path fill="#FFFFFF" d="M14848,15367.3c4,0,7.2,3.2,7.2,7.2s-3.2,7.2-7.2,7.2s-7.2-3.2-7.2-7.2l0,0
				C14840.8,15370.5,14844,15367.3,14848,15367.3z"/>
			<path fill="#137FCF" d="M14848,15382.6c-4.5,0-8.2-3.7-8.2-8.2s3.7-8.2,8.2-8.2s8.2,3.7,8.2,8.2S14852.5,15382.6,14848,15382.6z
				 M14848,15368.3c-3.4,0-6.2,2.8-6.2,6.2s2.8,6.2,6.2,6.2s6.2-2.8,6.2-6.2S14851.4,15368.3,14848,15368.3z"/>
		</g>
	</g>
</g>
</svg>
