<?xml version="1.0" encoding="utf-8"?>
<!-- Generator: Adobe Illustrator 22.0.1, SVG Export Plug-In . SVG Version: 6.00 Build 0)  -->
<svg version="1.1" id="Layer_1" xmlns="http://www.w3.org/2000/svg" xmlns:xlink="http://www.w3.org/1999/xlink" x="0px" y="0px"
	 viewBox="0 0 60 60" enable-background="new 0 0 60 60" xml:space="preserve">
<g>
	<g id="Group_5476" transform="translate(-15379 -17945.796)">
		<g id="Group_5420" transform="translate(1246.699 2647.297)">
			<g id="Rectangle_2280">
				<path fill="#137FCF" d="M14180,15354.3h-6.6v-34h6.6V15354.3z M14175.4,15352.3h2.6v-30h-2.6V15352.3z"/>
			</g>
			<g id="Rectangle_2281">
				<rect x="14163.2" y="15327.3" fill="#FFFFFF" width="4.6" height="26"/>
				<path fill="#137FCF" d="M14168.8,15354.3h-6.6v-28h6.6V15354.3z M14164.2,15352.3h2.6v-24h-2.6V15352.3z"/>
			</g>
			<g id="Rectangle_2282">
				<rect x="14152" y="15322.7" fill="#D6EEFF" width="4.6" height="30.6"/>
				<path fill="#137FCF" d="M14157.5,15354.3h-6.6v-32.6h6.6V15354.3z M14153,15352.3h2.6v-28.6h-2.6V15352.3z"/>
			</g>
			<g id="Rectangle_2283">
				<path fill="#137FCF" d="M14146.4,15354.3h-6.6v-22.3h6.6V15354.3z M14141.8,15352.3h2.6v-18.3h-2.6V15352.3z"/>
			</g>
			<g id="Path_4892">
				<path fill="#137FCF" d="M14142.3,15328l-1.7-1l9.2-15.6c0.8-1,1.8-1.6,3.1-1.7c1.2-0.1,2.4,0.2,3.4,1c0.2,0.2,0.4,0.3,0.6,0.5
					l7.6,7.9c1,1.1,2.6,1.2,3.6,0.2c0.1-0.1,0.2-0.2,0.3-0.3l11.9-13.8l1.5,1.3l-11.9,13.8c-0.1,0.2-0.3,0.4-0.5,0.5
					c-1.9,1.7-4.8,1.5-6.4-0.4l-7.6-7.9c-0.1-0.1-0.2-0.2-0.3-0.3c-0.5-0.4-1.2-0.6-1.9-0.5s-1.3,0.4-1.7,0.9L14142.3,15328z"/>
			</g>
			<g id="Path_4893">
				<path fill="#D6EEFF" d="M14176.3,15303.9l6-0.2c0.8,0,1.5,0.6,1.5,1.4c0,0.1,0,0.1,0,0.2l0.2,6c0.1,0.8-0.6,1.5-1.4,1.6
					c-0.5,0-0.9-0.2-1.2-0.5l-6.1-5.8c-0.6-0.6-0.7-1.5-0.1-2.1C14175.4,15304,14175.9,15303.8,14176.3,15303.9z"/>
				<path fill="#137FCF" d="M14182.5,15313.8c-0.7,0-1.4-0.3-1.9-0.8l-6.1-5.8c-1-0.9-1.1-2.5-0.1-3.5c0.5-0.5,1.2-0.8,1.9-0.8
					l5.9-0.2c0.6,0,1.2,0.2,1.7,0.6c0.5,0.4,0.8,1,0.8,1.7c0,0.1,0,0.2,0,0.3l0.2,5.9c0,0.6-0.2,1.3-0.6,1.8c-0.4,0.5-1,0.8-1.7,0.8
					C14182.5,15313.8,14182.5,15313.8,14182.5,15313.8z M14176.3,15304.9c-0.1,0-0.3,0.1-0.4,0.2c-0.2,0.2-0.2,0.5,0,0.7l6.1,5.8
					c0.2,0.2,0.3,0.2,0.5,0.2s0.3-0.1,0.3-0.2c0.1-0.1,0.1-0.2,0.1-0.4l-0.2-6l1-0.2l-1,0.1c0-0.2-0.1-0.3-0.1-0.3
					c-0.1,0-0.2-0.1-0.3-0.1L14176.3,15304.9L14176.3,15304.9L14176.3,15304.9z"/>
			</g>
		</g>
	</g>
</g>
</svg>
