<?xml version="1.0" encoding="utf-8"?>
<!-- Svg Vector Icons : http://www.onlinewebfonts.com/icon -->
<!DOCTYPE svg PUBLIC "-//W3C//DTD SVG 1.1//EN" "http://www.w3.org/Graphics/SVG/1.1/DTD/svg11.dtd">
<svg version="1.1" xmlns="http://www.w3.org/2000/svg" xmlns:xlink="http://www.w3.org/1999/xlink" x="0px" y="0px" viewBox="0 0 1000 1000" enable-background="new 0 0 1000 1000" xml:space="preserve">
<metadata> Svg Vector Icons : http://www.onlinewebfonts.com/icon </metadata>
<g><g transform="translate(0.000000,511.000000) scale(0.100000,-0.100000)"><path d="M228.1,2872.7c-24-8-62-42-86-72l-42-54V754.8c0-2211.9-10-2053.9,132-2113.9c100-42,9435.7-42,9535.7,0c142,60,132-98,132,2115.9v1995.9l-58,64l-58,66l-4757.9,4C2410.1,2888.7,250.2,2882.7,228.1,2872.7z M2542.1,2000.7c118-60,118-62,118-1248c0-1185.9,0-1188-118-1248c-90-48-1394-48-1484,0c-118,60-118,62-118,1244c0,750,6,1098,22,1142c14,36,52,82,86,104c58,36,110,38,748,38C2380.1,2032.7,2492.1,2028.7,2542.1,2000.7z M4678,2004.7c30-16,64-52,78-82c32-70,34-2265.9,2-2335.9c-50-110-72-114-838-114h-704l-68,68l-68,68v1144v1144l68,68l68,68h702C4488,2032.7,4632,2026.7,4678,2004.7z M6843.9,1974.7l66-58v-1162v-1162l-56-54l-54-56l-704-6c-506-4-720,2-760,18c-118,48-116,30-116,1272c0,1046,4,1140,36,1178c68,84,88,86,818,88h706L6843.9,1974.7z M8941.9,2000.7c118-60,118-62,118-1248c0-1185.9,0-1188-118-1248c-90-48-1393.9-48-1483.9,0c-118,60-118,62-118,1244c0,750,6,1098,22,1142c14,36,52,82,86,104c58,36,110,38,748,38C8779.9,2032.7,8891.9,2028.7,8941.9,2000.7z"/><path d="M1380.1,752.8v-860h420h420v860v860h-420h-420V752.8z"/><path d="M3510,1586.8c-6-12-8-398-6-854l6-830l426-6l424-4v860v860h-420C3622,1612.8,3516,1606.8,3510,1586.8z"/><path d="M5640,752.8v-860l426,4l424,6v850v850l-424,6l-426,4V752.8z"/><path d="M7779.9,752.8v-860h420h420v860v860h-420h-420V752.8z"/><path d="M520.1-2151.1c0-514,10-522,540-512l310,6l6,426l4,424h-430h-430V-2151.1z"/><path d="M1800.1-2237.1v-430h210h210v430v430h-210h-210V-2237.1z"/><path d="M2660.1-2237.1v-430h210h210v430v430h-210h-210V-2237.1z"/><path d="M3504.1-2231.1l6-426h210h210l6,426l4,424h-220h-220L3504.1-2231.1z"/><path d="M4360-2237.1v-430h210h210v430v430h-210h-210V-2237.1z"/><path d="M5220-2237.1v-430h210h210v430v430h-210h-210V-2237.1z"/><path d="M6064-2231.1l6-426h210h210l6,426l4,424h-220h-220L6064-2231.1z"/><path d="M6919.9-2237.1v-430h210h210v430v430h-210h-210V-2237.1z"/><path d="M7779.9-2237.1v-430h210h210v430v430h-210h-210V-2237.1z"/><path d="M8623.9-2231.1l6-426l310-6c530-10,540-2,540,512v344h-430h-430L8623.9-2231.1z"/></g></g>
</svg>