<?xml version="1.0" encoding="utf-8"?>
<!-- Generator: Adobe Illustrator 22.0.1, SVG Export Plug-In . SVG Version: 6.00 Build 0)  -->
<svg version="1.1" id="Layer_1" xmlns="http://www.w3.org/2000/svg" xmlns:xlink="http://www.w3.org/1999/xlink" x="0px" y="0px"
	 viewBox="0 0 60 60" enable-background="new 0 0 60 60" xml:space="preserve">
<g>
	<g id="Group_5473" transform="translate(-15377 -17908)">
		<g id="startup" transform="translate(943 2464.402)">
			<g id="Path_4749">
				<path fill="#FFFFFF" d="M14473.4,15479l-3.7-0.1l0.1,3.7c0.2,6,5.1,10.9,11.1,11.1l3.7,0.1l-0.1-3.7
					C14484.3,15484,14479.4,15479.2,14473.4,15479z"/>
				<path fill="#137FCF" d="M14485.6,15494.8l-4.8-0.1c-6.6-0.2-11.9-5.5-12.1-12.1l-0.1-4.8l4.8,0.1c6.6,0.2,11.9,5.5,12.1,12.1
					L14485.6,15494.8z M14470.7,15479.9l0.1,2.6c0.2,5.5,4.6,10,10.1,10.1l2.6,0.1l-0.1-2.6c-0.2-5.5-4.6-10-10.1-10.1
					L14470.7,15479.9z"/>
			</g>
			<g id="Path_4751">
				<path fill="#FFFFFF" d="M14488.4,15478.7c-0.5-0.9-1.2-1.7-1.9-2.4c-5.3-5.4-14-5.4-19.4,0c-3.4,3.4-4.8,8.3-3.6,13
					c0.6,2.4,1.9,4.6,3.6,6.4c0.7,0.7,1.5,1.4,2.4,1.9c-10.8,0.4-19.9-8.1-20.3-18.9c-0.4-10.8,8.1-19.9,18.9-20.3
					c1.1,0,2.2,0,3.3,0.2c4.2,0.6,8.2,2.5,11.2,5.6C14486.5,15468,14488.6,15473.3,14488.4,15478.7z"/>
				<path fill="#137FCF" d="M14468.8,15498.6c-11,0-20.2-8.8-20.6-19.8c-0.4-11.3,8.5-20.9,19.8-21.3c1.2,0,2.3,0,3.5,0.2
					c4.4,0.6,8.6,2.7,11.8,5.9c4.1,4,6.3,9.5,6.1,15.2l-0.1,3.4l-1.7-2.9c-0.5-0.8-1.1-1.5-1.7-2.2c-2.4-2.4-5.6-3.7-9-3.7l0,0
					c-3.4,0-6.6,1.3-9,3.7c-3.1,3.1-4.4,7.8-3.3,12.1c0.6,2.2,1.7,4.3,3.3,5.9c0.7,0.7,1.4,1.2,2.2,1.8l2.7,1.7l-3.2,0.1
					C14469.3,15498.6,14469,15498.6,14468.8,15498.6z M14468.8,15459.4c-0.2,0-0.4,0-0.7,0c-10.2,0.4-18.3,9-17.9,19.2
					c0.3,9.2,7.4,16.6,16.2,17.8c0,0,0,0-0.1-0.1c-1.9-1.9-3.2-4.3-3.9-6.9c-1.2-5,0.2-10.3,3.9-14c2.8-2.8,6.5-4.3,10.4-4.3l0,0
					c3.9,0,7.6,1.5,10.4,4.3c0,0,0,0,0.1,0.1c-0.5-4.1-2.4-7.9-5.4-10.7c-2.9-2.9-6.6-4.8-10.6-5.3
					C14470.5,15459.5,14469.6,15459.4,14468.8,15459.4z"/>
			</g>
			<g id="Path_4752">
				<path fill="#FFFFFF" d="M14479.8,15478.8c-2.8-17.4-18.1-29.9-35.7-29.2l-3.6,0.1l-0.1,3.6c-0.7,17.6,11.8,32.9,29.2,35.7
					L14479.8,15478.8z"/>
				<path fill="#137FCF" d="M14469.9,15490.1l-0.5-0.1c-17.9-2.9-30.8-18.6-30-36.7l0.1-4.5l4.5-0.1c18.1-0.8,33.8,12.2,36.7,30
					l0.1,0.5L14469.9,15490.1z M14441.5,15450.7l-0.1,2.7c-0.7,16.9,11.2,31.7,27.8,34.6l9.5-9.5c-2.9-16.6-17.7-28.5-34.6-27.8
					H14441.5z"/>
			</g>
			<g id="Group_5314" transform="translate(0.003 0.003)">
				<g id="Path_4753">
					<path fill="#D6EEFF" d="M14461.8,15486.8c2.5,1,5.1,1.7,7.8,2.2l10.1-10.1c-0.4-2.7-1.2-5.3-2.2-7.8L14461.8,15486.8z"/>
					<path fill="#137FCF" d="M14469.9,15490.1l-0.5-0.1c-2.7-0.5-5.4-1.2-8-2.3l-1.4-0.6l17.8-17.8l0.6,1.4c1.1,2.6,1.8,5.3,2.3,8
						l0.1,0.5L14469.9,15490.1z M14463.6,15486.4c1.8,0.6,3.7,1.2,5.7,1.5l9.4-9.4c-0.3-1.9-0.8-3.8-1.5-5.7L14463.6,15486.4z"/>
				</g>
				<g id="Path_4754">
					<path fill="#D6EEFF" d="M14456,15451.2c-3.9-1.2-7.9-1.7-11.9-1.6l-3.6,0.1l-0.1,3.6c-0.1,4,0.4,8,1.6,11.9L14456,15451.2z"/>
					<path fill="#137FCF" d="M14441.5,15467.1l-0.5-1.6c-1.2-4-1.7-8.1-1.6-12.2l0.1-4.6l4.5-0.1c4.1-0.1,8.2,0.5,12.2,1.6l1.6,0.5
						L14441.5,15467.1z M14441.5,15450.7l-0.1,2.7c-0.1,3.4,0.3,6.7,1.1,9.9l11.6-11.6c-3.3-0.8-6.6-1.2-9.9-1.1L14441.5,15450.7z"
						/>
				</g>
			</g>
		</g>
		<g id="Path_4842">
			<path fill="#137FCF" d="M15400.1,17937.1c-3.5,0-6.4-2.9-6.4-6.4s2.9-6.4,6.4-6.4s6.4,2.9,6.4,6.4
				S15403.6,17937.1,15400.1,17937.1z M15400.1,17926.3c-2.4,0-4.4,2-4.4,4.4s2,4.4,4.4,4.4s4.4-2,4.4-4.4
				C15404.5,17928.3,15402.5,17926.3,15400.1,17926.3z"/>
		</g>
	</g>
</g>
</svg>
