<?xml version="1.0" encoding="utf-8"?>
<!-- Svg Vector Icons : http://www.onlinewebfonts.com/icon -->
<!DOCTYPE svg PUBLIC "-//W3C//DTD SVG 1.1//EN" "http://www.w3.org/Graphics/SVG/1.1/DTD/svg11.dtd">
<svg version="1.1" xmlns="http://www.w3.org/2000/svg" xmlns:xlink="http://www.w3.org/1999/xlink" x="0px" y="0px" viewBox="0 0 1000 1000" enable-background="new 0 0 1000 1000" xml:space="preserve">
<metadata> Svg Vector Icons : http://www.onlinewebfonts.com/icon </metadata>
<g><path d="M500,745H173.3v81.7H500V745z M663.3,745h-81.7v81.7h81.7V745z M825.5,10H50.8C28.3,10,10,28.3,10,50.8v898.3c0,22.5,18.3,40.8,40.8,40.8h898.3c22.5,0,40.8-18.3,40.8-40.8V172.8L825.5,10z M500,91.7h40.8c22.6,0,40.8,18.3,40.8,40.8v81.7c0,22.5-18.3,40.8-40.8,40.8H500V91.7z M255,132.5c0-22.5,18.3-40.8,40.8-40.8h122.5V255H295.8c-22.5,0-40.8-18.3-40.8-40.8V132.5z M908.3,908.3H91.7v-245h816.7L908.3,908.3L908.3,908.3z M908.3,581.7H91.7v-490h81.7v204.2c0,22.5,18.3,40.8,40.8,40.8h408.3c22.6,0,40.8-18.3,40.8-40.8V91.7h128.6l116.4,115.2V581.7z M826.7,745H745v81.7h81.7V745z"/></g>
</svg>