<?xml version="1.0" encoding="utf-8"?>
<!-- Generator: Adobe Illustrator 22.0.1, SVG Export Plug-In . SVG Version: 6.00 Build 0)  -->
<svg version="1.1" id="Layer_1" xmlns="http://www.w3.org/2000/svg" xmlns:xlink="http://www.w3.org/1999/xlink" x="0px" y="0px"
	 viewBox="0 0 60 60" enable-background="new 0 0 60 60" xml:space="preserve">
<g id="Group_5612" transform="translate(-14131 -15448)">
	<g id="Group_5611" transform="translate(0 0)">
		<path fill="#288ED9" d="M14160.2,15454h-1v4.2c-11.8,0.5-21.2,10.3-21.2,22.2c0,12.3,10,22.2,22.2,22.2c11.7,0,21.3-9.1,22.2-20.6
			h4.1v-1.8C14186.5,15465.8,14174.7,15454,14160.2,15454z M14160.2,15500.7c-11.2,0-20.2-9.1-20.2-20.2c0-10.8,8.5-19.7,19.2-20.2
			v21.8h21.2C14179.5,15492.4,14170.8,15500.7,14160.2,15500.7z M14182.5,15480.1c-0.7,0-1.3,0-2,0h-19.2v-19.8c0-0.7,0-1.3,0-2
			v-2.2c0.2,0,0.5,0,0.9,0.1c4.8,0.4,9.2,2.1,12.8,4.9l0,0c0.4,0.3,0.8,0.6,1.2,1l0.1,0.1c0.4,0.3,0.7,0.6,1,0.9l0.1,0.1l0.1,0.1
			c0.4,0.4,0.7,0.8,1.1,1.2c0,0,0,0.1,0.1,0.1c3.5,4,5.6,9.2,5.9,14.8c0,0.3,0,0.6,0,0.8L14182.5,15480.1L14182.5,15480.1z"/>
		<path fill="#D6EEFF" d="M14184.5,15480.1c0-1.7-0.3-10.2-7.2-17c-6.4-6.4-14.3-7-16.1-7.1c0,8,0,16,0,24
			C14169,15480.1,14176.8,15480.1,14184.5,15480.1z"/>
	</g>
</g>
</svg>
