<?xml version="1.0" encoding="utf-8"?>
<!-- Svg Vector Icons : http://www.onlinewebfonts.com/icon -->
<!DOCTYPE svg PUBLIC "-//W3C//DTD SVG 1.1//EN" "http://www.w3.org/Graphics/SVG/1.1/DTD/svg11.dtd">
<svg version="1.1" xmlns="http://www.w3.org/2000/svg" xmlns:xlink="http://www.w3.org/1999/xlink" x="0px" y="0px" viewBox="0 0 1000 1000" enable-background="new 0 0 1000 1000" xml:space="preserve">
<metadata> Svg Vector Icons : http://www.onlinewebfonts.com/icon </metadata>
<g><g transform="translate(0.000000,127.000000) scale(0.100000,-0.100000)"><path d="M2859.1,1122.6c-15.6-54.5-46.7-412.8-54.5-802.3l-23.4-701L2197-419.7l-584.2-38.9l-38.9-537.4l-38.9-537.4L950.8-1518c-669.9,15.6-965.8-109-810.1-358.3c70.1-116.8,210.3-148,763.3-163.5l669.9-23.4v-693.2v-693.2L849.5-3473c-708.8-23.3-716.6-23.3-716.6-218.1c0-194.8,7.8-194.8,724.4-218.1l716.6-23.3v-732.2v-732.1L904-5420.4c-553-15.5-693.2-46.7-763.3-163.5C-7.3-5825.4,273.1-5950,958.6-5950h607.5l23.4-599.8l23.3-607.5l599.8-23.3l599.7-23.3l23.4-716.6c23.4-708.8,23.4-716.6,218.1-716.6c194.7,0,194.7,7.8,218.1,716.6l23.4,724.4h693.2h693.2l23.4-669.8c15.6-529.6,54.5-693.3,155.8-755.6c93.4-62.3,163.5-54.5,249.2,15.6c93.5,77.9,124.6,257,124.6,755.6v654.2h740H6707l23.4-716.6c23.3-716.5,23.3-724.4,218-724.4s194.7,7.8,218.2,724.4l23.3,716.6h521.9c311.6,0,568.6,38.9,623.1,93.5c54.5,54.5,93.4,311.6,93.4,623.1v521.9l669.9,23.4c529.6,15.6,693.2,54.5,755.6,155.8c62.3,93.5,54.5,163.5-15.6,249.3c-77.9,93.5-257,124.6-755.6,124.6h-654.3v740v732.2l724.5,23.3c708.8,23.4,716.5,23.4,716.5,218.1c0,194.7-7.8,194.7-716.5,218.1l-724.5,23.4v693.2v693.2l669.9,23.4c553.1,15.6,693.2,46.7,763.3,163.5c148,241.5-132.4,366.1-825.6,366.1h-607.6v451.8c0,241.5-31.1,482.9-62.2,537.5c-31.2,54.5-288.3,101.2-599.9,116.8L7221-380.7l-38.9,778.9c-39,771.1-39,778.9-233.7,778.9s-194.7-7.8-218-794.5L6707-419.7h-732.2h-732.1l-23.3,747.8c-15.6,599.7-46.7,771.1-155.8,833.4c-93.4,62.3-163.5,54.5-249.2-15.6c-101.3-85.7-124.6-264.8-124.6-833.5v-732.2h-701h-693.2l-23.4,802.3c-23.3,755.6-31.1,794.5-202.5,817.9C2975.9,1216.1,2882.5,1177.1,2859.1,1122.6z M7883.1-3808v-2920.9H4962.2H2041.2V-3808v2921h2920.9h2920.9V-3808z"/><path d="M3793.8-2546.1c-23.3-54.5-31.1-623.1-23.3-1261.9l23.3-1168.4H5079h1285.2v1246.3v1246.3l-1269.5,23.3C4105.4-2444.8,3817.2-2460.4,3793.8-2546.1z M5935.8-3730.1V-4548H5079h-856.8v817.9v817.9H5079h856.8V-3730.1z"/></g></g>
</svg>