<svg xmlns="http://www.w3.org/2000/svg" xmlns:xlink="http://www.w3.org/1999/xlink" viewBox="0 0 400 400"><defs><style>.a{fill:url(#a);}.b{fill:url(#b);}.c{fill:#1f364c;}.d{fill:#0e71bb;}.e{fill:#005b9f;}.f{fill:#52acea;}.g{fill:#21e2e2;}.h{fill:#ffbc98;}.i,.j,.m,.q,.r{fill:none;}.j{stroke:#ffbc98;}.j,.m{stroke-width:0.88px;}.k{fill:#80c9ff;}.l{fill:#288ed9;}.m{stroke:#21e2e2;}.n{fill:#137fcf;}.o{fill:#d6eeff;}.p{fill:#fff;}.q,.r{stroke:#f7941d;stroke-miterlimit:10;}.r{stroke-dasharray:5.07 5.07;}</style><linearGradient id="a" x1="24.67" y1="198.82" x2="372.05" y2="198.82" gradientUnits="userSpaceOnUse"><stop offset="0" stop-color="#c6e6ff"/><stop offset="1" stop-color="#fff"/></linearGradient><linearGradient id="b" x1="-2415.23" y1="402.44" x2="-2415.23" y2="401.7" gradientTransform="matrix(531, 0, 0, -95, 1282627.11, 38535.44)" gradientUnits="userSpaceOnUse"><stop offset="0" stop-color="#288ed9"/><stop offset="1" stop-color="#137fcf" stop-opacity="0.05"/></linearGradient></defs><title>iran-host</title><path class="a" d="M312.3,101.7c-35.1-27.6-68.7-27.5-102.9-2.2S111.2,105,104,63c-3.3-19.1-8.6-16.8-19.4-8.7-15,11.3-29,16-42.2-2.4-3.6-5.1-7.6-4.2-12.6-.6s-6,6.9-4.6,12.5c6.1,24.4,9.5,50,29.8,68.1,5,4.4,7.6,10.3,4.2,14.4-22.2,26.7.4,39,16.9,52.2,9.4,7.5,15.7,13.6,17.1,27.2.8,8.3,3.6,27.9,16.7,25.2,28.2-5.9,32.7,14.1,44.5,30.3,16,21.9,40.3,40,66.6,38.6,21.5-1,36.3-15.2,52.8,15.2,8.8,16.4,44.5,9.2,67.8,14,15.1,3.1,6.5-16.3,15-21.1a37.1,37.1,0,0,0,4.1-2.8c6.5-4.6,12.3-23.4,11.2-30.9s-5-8.9-9.9-12.5c-15-10.8-32.8-21.8-11.5-43,4.2-4.2,6.2-13.2-.5-14.8-23.3-5.3-12.7-24.7-16.7-37.5-6-18.7,9.9-34,10.6-57.2C348.2,109.2,323.9,110.9,312.3,101.7Z"/><ellipse class="b" cx="140.2" cy="356.5" rx="99" ry="17.7"/><rect class="c" x="67.3" y="234.4" width="151" height="11.73"/><path class="d" d="M65.7,202.7H220.1c3,0,5.5,1.8,5.5,4v25.6c0,2.2-2.5,4-5.5,4H65.7c-3,0-5.5-1.8-5.5-4V206.7C60.2,204.5,62.7,202.7,65.7,202.7Z"/><path class="e" d="M62.6,202.7H116v33.6H62.6a2.4,2.4,0,0,1-2.4-2.4V205.1A2.4,2.4,0,0,1,62.6,202.7Z"/><path class="f" d="M164.4,214.7h0a1.8,1.8,0,0,1,1.7,1.8h0a1.8,1.8,0,0,1-1.7,1.7h0a1.8,1.8,0,0,1-1.8-1.7h0A1.8,1.8,0,0,1,164.4,214.7Z"/><path class="g" d="M168.6,221.7h0a1.7,1.7,0,0,1,1.7,1.8h0a1.6,1.6,0,0,1-1.7,1.7h0a1.7,1.7,0,0,1-1.8-1.7h0A1.8,1.8,0,0,1,168.6,221.7Z"/><path class="f" d="M171.4,214.7h0a1.7,1.7,0,0,1,1.7,1.8h0a1.7,1.7,0,0,1-1.7,1.7h0a1.8,1.8,0,0,1-1.8-1.7h0A1.8,1.8,0,0,1,171.4,214.7Z"/><path class="f" d="M175.6,221.7h0a1.7,1.7,0,0,1,1.7,1.8h0a1.6,1.6,0,0,1-1.7,1.7h0a1.7,1.7,0,0,1-1.8-1.7h0A1.8,1.8,0,0,1,175.6,221.7Z"/><path class="h" d="M178.4,214.7h0a1.7,1.7,0,0,1,1.7,1.8h0a1.7,1.7,0,0,1-1.7,1.7h0a1.8,1.8,0,0,1-1.8-1.7h0A1.8,1.8,0,0,1,178.4,214.7Z"/><path class="f" d="M182.6,221.7h0a1.7,1.7,0,0,1,1.7,1.8h0a1.6,1.6,0,0,1-1.7,1.7h0a1.7,1.7,0,0,1-1.8-1.7h0A1.8,1.8,0,0,1,182.6,221.7Z"/><path class="f" d="M185.4,214.7h0a1.7,1.7,0,0,1,1.7,1.8h0a1.7,1.7,0,0,1-1.7,1.7h0a1.8,1.8,0,0,1-1.8-1.7h0A1.8,1.8,0,0,1,185.4,214.7Z"/><path class="g" d="M189.6,221.7h0a1.8,1.8,0,0,1,1.8,1.8h0a1.7,1.7,0,0,1-1.8,1.7h0a1.6,1.6,0,0,1-1.7-1.7h0A1.7,1.7,0,0,1,189.6,221.7Z"/><path class="f" d="M192.4,214.7h0a1.8,1.8,0,0,1,1.8,1.8h0a1.8,1.8,0,0,1-1.8,1.7h0a1.7,1.7,0,0,1-1.7-1.7h0A1.7,1.7,0,0,1,192.4,214.7Z"/><path class="f" d="M196.6,221.7h0a1.8,1.8,0,0,1,1.8,1.8h0a1.7,1.7,0,0,1-1.8,1.7h0a1.6,1.6,0,0,1-1.7-1.7h0A1.7,1.7,0,0,1,196.6,221.7Z"/><circle class="i" cx="208.9" cy="219.7" r="3"/><circle class="j" cx="208.9" cy="219.7" r="2.4"/><path class="f" d="M156.2,213.4h0a1.3,1.3,0,0,1,1.3,1.3v10a1.3,1.3,0,0,1-1.3,1.3h0a1.3,1.3,0,0,1-1.3-1.3v-10A1.3,1.3,0,0,1,156.2,213.4Z"/><path class="f" d="M150.9,213.4h0a1.3,1.3,0,0,1,1.3,1.3v10a1.3,1.3,0,0,1-1.3,1.3h0a1.3,1.3,0,0,1-1.3-1.3v-10A1.3,1.3,0,0,1,150.9,213.4Z"/><rect class="e" x="124.4" y="213.4" width="21.2" height="5.3"/><rect class="e" x="124.4" y="220.7" width="21.2" height="5.3"/><path class="h" d="M154.9,216.1h2.6v8.6a1.3,1.3,0,0,1-1.3,1.3h0a1.3,1.3,0,0,1-1.3-1.3v-8.6Z"/><path class="g" d="M149.6,221.1h2.6v3.6a1.3,1.3,0,0,1-1.3,1.3h0a1.3,1.3,0,0,1-1.3-1.3h0v-3.6Z"/><rect class="k" x="124.4" y="213.4" width="5.3" height="5.3"/><rect class="k" x="124.4" y="220.7" width="5.3" height="5.3"/><rect class="l" x="132.4" y="215.4" width="10.6" height="1.32"/><rect class="l" x="132.4" y="222.7" width="10.6" height="1.32"/><circle class="i" cx="208.9" cy="219.7" r="6.3"/><circle class="m" cx="208.9" cy="219.7" r="5.7"/><path class="l" d="M100.9,224.8h0a2.2,2.2,0,0,1,2.2,2.2v.2a2.2,2.2,0,0,1-2.2,2.2h0a2.2,2.2,0,0,1-2.2-2.2V227A2.2,2.2,0,0,1,100.9,224.8Z"/><path class="n" d="M101.1,212h0a1.1,1.1,0,0,1,1,1v8.6a1,1,0,0,1-1,1h0a.9.9,0,0,1-1-1V213A1,1,0,0,1,101.1,212Z"/><path class="o" d="M94.3,224.8h0a2.2,2.2,0,0,1,2.2,2.2v.2a2.2,2.2,0,0,1-2.2,2.2h0a2.2,2.2,0,0,1-2.2-2.2V227A2.2,2.2,0,0,1,94.3,224.8Z"/><path class="p" d="M94.4,216h0a.9.9,0,0,1,1,1v4.6a.9.9,0,0,1-1,1h0a1,1,0,0,1-1-1V217A1,1,0,0,1,94.4,216Z"/><path class="l" d="M87.7,224.8h0a2.2,2.2,0,0,1,2.2,2.2v.2a2.2,2.2,0,0,1-2.2,2.2h0a2.2,2.2,0,0,1-2.2-2.2V227A2.2,2.2,0,0,1,87.7,224.8Z"/><path class="n" d="M87.8,210.5h0a.9.9,0,0,1,1,1v10.1a.9.9,0,0,1-1,1h0a1,1,0,0,1-1-1V211.5A1,1,0,0,1,87.8,210.5Z"/><path class="h" d="M81.1,224.8h0a2.2,2.2,0,0,1,2.2,2.2v.2a2.2,2.2,0,0,1-2.2,2.2h0a2.2,2.2,0,0,1-2.2-2.2V227A2.2,2.2,0,0,1,81.1,224.8Z"/><path class="h" d="M81.2,213h0a1.1,1.1,0,0,1,1,1v7.6a1,1,0,0,1-1,1h0a.9.9,0,0,1-1-1V214A1,1,0,0,1,81.2,213Z"/><path class="g" d="M74.4,224.8h0a2.2,2.2,0,0,1,2.2,2.2v.2a2.2,2.2,0,0,1-2.2,2.2h0a2.1,2.1,0,0,1-2.1-2.2V227A2.1,2.1,0,0,1,74.4,224.8Z"/><path class="g" d="M74.6,217.3h0a1.1,1.1,0,0,1,1,1v3.3a1,1,0,0,1-1,1h0a.9.9,0,0,1-1-1v-3.3A1,1,0,0,1,74.6,217.3Z"/><rect class="c" x="67.3" y="274.4" width="151" height="11.73"/><path class="d" d="M65.7,242.7H220.1c3,0,5.5,1.8,5.5,4.1v25.6c0,2.2-2.5,4-5.5,4H65.7c-3,0-5.5-1.8-5.5-4V246.8C60.2,244.5,62.7,242.7,65.7,242.7Z"/><path class="e" d="M62.6,242.7H116v33.7H62.6a2.4,2.4,0,0,1-2.4-2.4V245.1A2.4,2.4,0,0,1,62.6,242.7Z"/><path class="f" d="M164.4,254.8h0a1.8,1.8,0,0,1,1.7,1.7h0a1.8,1.8,0,0,1-1.7,1.8h0a1.8,1.8,0,0,1-1.8-1.8h0A1.8,1.8,0,0,1,164.4,254.8Z"/><path class="g" d="M168.6,261.8h0a1.7,1.7,0,0,1,1.7,1.8h0a1.7,1.7,0,0,1-1.7,1.7h0a1.8,1.8,0,0,1-1.8-1.7h0A1.8,1.8,0,0,1,168.6,261.8Z"/><path class="f" d="M171.4,254.8h0a1.7,1.7,0,0,1,1.7,1.7h0a1.7,1.7,0,0,1-1.7,1.8h0a1.8,1.8,0,0,1-1.8-1.8h0A1.8,1.8,0,0,1,171.4,254.8Z"/><path class="f" d="M175.6,261.8h0a1.7,1.7,0,0,1,1.7,1.8h0a1.7,1.7,0,0,1-1.7,1.7h0a1.8,1.8,0,0,1-1.8-1.7h0A1.8,1.8,0,0,1,175.6,261.8Z"/><path class="h" d="M178.4,254.8h0a1.7,1.7,0,0,1,1.7,1.7h0a1.7,1.7,0,0,1-1.7,1.8h0a1.8,1.8,0,0,1-1.8-1.8h0A1.8,1.8,0,0,1,178.4,254.8Z"/><path class="f" d="M182.6,261.8h0a1.7,1.7,0,0,1,1.7,1.8h0a1.7,1.7,0,0,1-1.7,1.7h0a1.8,1.8,0,0,1-1.8-1.7h0A1.8,1.8,0,0,1,182.6,261.8Z"/><path class="f" d="M185.4,254.8h0a1.7,1.7,0,0,1,1.7,1.7h0a1.7,1.7,0,0,1-1.7,1.8h0a1.8,1.8,0,0,1-1.8-1.8h0A1.8,1.8,0,0,1,185.4,254.8Z"/><path class="g" d="M189.6,261.8h0a1.8,1.8,0,0,1,1.8,1.8h0a1.8,1.8,0,0,1-1.8,1.7h0a1.7,1.7,0,0,1-1.7-1.7h0A1.7,1.7,0,0,1,189.6,261.8Z"/><path class="f" d="M192.4,254.8h0a1.8,1.8,0,0,1,1.8,1.7h0a1.8,1.8,0,0,1-1.8,1.8h0a1.7,1.7,0,0,1-1.7-1.8h0A1.7,1.7,0,0,1,192.4,254.8Z"/><path class="f" d="M196.6,261.8h0a1.8,1.8,0,0,1,1.8,1.8h0a1.8,1.8,0,0,1-1.8,1.7h0a1.7,1.7,0,0,1-1.7-1.7h0A1.7,1.7,0,0,1,196.6,261.8Z"/><circle class="i" cx="208.9" cy="259.8" r="3"/><circle class="j" cx="208.9" cy="259.8" r="2.4"/><path class="f" d="M156.2,253.5h0a1.3,1.3,0,0,1,1.3,1.3v9.9a1.3,1.3,0,0,1-1.3,1.4h0a1.3,1.3,0,0,1-1.3-1.4v-9.9A1.3,1.3,0,0,1,156.2,253.5Z"/><path class="f" d="M150.9,253.5h0a1.3,1.3,0,0,1,1.3,1.3v9.9a1.3,1.3,0,0,1-1.3,1.4h0a1.3,1.3,0,0,1-1.3-1.4v-9.9A1.3,1.3,0,0,1,150.9,253.5Z"/><rect class="e" x="124.4" y="253.5" width="21.2" height="5.3"/><rect class="e" x="124.4" y="260.8" width="21.2" height="5.3"/><path class="h" d="M154.9,256.1h2.6v8.6a1.3,1.3,0,0,1-1.3,1.4h0a1.3,1.3,0,0,1-1.3-1.4v-8.6Z"/><path class="g" d="M149.6,261.2h2.6v3.5a1.3,1.3,0,0,1-1.3,1.4h0a1.3,1.3,0,0,1-1.3-1.4h0v-3.5Z"/><rect class="k" x="124.4" y="253.5" width="5.3" height="5.3"/><rect class="k" x="124.4" y="260.8" width="5.3" height="5.3"/><rect class="l" x="132.4" y="255.5" width="10.6" height="1.32"/><rect class="l" x="132.4" y="262.7" width="10.6" height="1.32"/><circle class="i" cx="208.9" cy="259.8" r="6.3"/><circle class="m" cx="208.9" cy="259.8" r="5.7"/><path class="l" d="M100.9,264.9h0a2.2,2.2,0,0,1,2.2,2.2h0a2.2,2.2,0,0,1-2.2,2.2h0a2.2,2.2,0,0,1-2.2-2.2h0A2.2,2.2,0,0,1,100.9,264.9Z"/><path class="n" d="M101.1,252.1h0a1,1,0,0,1,1,1v8.6a1.1,1.1,0,0,1-1,1h0a1,1,0,0,1-1-1v-8.6A.9.9,0,0,1,101.1,252.1Z"/><path class="o" d="M94.3,264.9h0a2.2,2.2,0,0,1,2.2,2.2h0a2.2,2.2,0,0,1-2.2,2.2h0a2.2,2.2,0,0,1-2.2-2.2h0A2.2,2.2,0,0,1,94.3,264.9Z"/><path class="p" d="M94.4,256.1h0a.9.9,0,0,1,1,1v4.6a1,1,0,0,1-1,1h0a1.1,1.1,0,0,1-1-1v-4.6A1,1,0,0,1,94.4,256.1Z"/><path class="l" d="M87.7,264.9h0a2.2,2.2,0,0,1,2.2,2.2h0a2.2,2.2,0,0,1-2.2,2.2h0a2.2,2.2,0,0,1-2.2-2.2h0A2.2,2.2,0,0,1,87.7,264.9Z"/><path class="n" d="M87.8,250.6h0a.9.9,0,0,1,1,1v10.1a1,1,0,0,1-1,1h0a1.1,1.1,0,0,1-1-1V251.6A1,1,0,0,1,87.8,250.6Z"/><path class="h" d="M81.1,264.9h0a2.2,2.2,0,0,1,2.2,2.2h0a2.2,2.2,0,0,1-2.2,2.2h0a2.2,2.2,0,0,1-2.2-2.2h0A2.2,2.2,0,0,1,81.1,264.9Z"/><path class="h" d="M81.2,253.1h0a1,1,0,0,1,1,1v7.6a1.1,1.1,0,0,1-1,1h0a1,1,0,0,1-1-1v-7.6A.9.9,0,0,1,81.2,253.1Z"/><path class="g" d="M74.4,264.9h0a2.2,2.2,0,0,1,2.2,2.2h0a2.1,2.1,0,0,1-2.2,2.2h0a2.1,2.1,0,0,1-2.1-2.2h0A2.1,2.1,0,0,1,74.4,264.9Z"/><path class="g" d="M74.6,257.4h0a1,1,0,0,1,1,1v3.3a1.1,1.1,0,0,1-1,1h0a1,1,0,0,1-1-1v-3.3A.9.9,0,0,1,74.6,257.4Z"/><rect class="c" x="67.3" y="314.5" width="151" height="11.73"/><path class="d" d="M65.7,282.8H220.1c3,0,5.5,1.8,5.5,4v25.7c0,2.2-2.5,4-5.5,4H65.7c-3,0-5.5-1.8-5.5-4V286.8C60.2,284.6,62.7,282.8,65.7,282.8Z"/><path class="e" d="M62.6,282.8H116v33.7H62.6a2.4,2.4,0,0,1-2.4-2.4V285.2A2.4,2.4,0,0,1,62.6,282.8Z"/><path class="f" d="M164.4,294.9h0a1.8,1.8,0,0,1,1.7,1.7h0a1.8,1.8,0,0,1-1.7,1.8h0a1.8,1.8,0,0,1-1.8-1.8h0A1.8,1.8,0,0,1,164.4,294.9Z"/><path class="g" d="M168.6,301.9h0a1.7,1.7,0,0,1,1.7,1.7h0a1.7,1.7,0,0,1-1.7,1.8h0a1.8,1.8,0,0,1-1.8-1.8h0A1.8,1.8,0,0,1,168.6,301.9Z"/><path class="f" d="M171.4,294.9h0a1.7,1.7,0,0,1,1.7,1.7h0a1.7,1.7,0,0,1-1.7,1.8h0a1.8,1.8,0,0,1-1.8-1.8h0A1.8,1.8,0,0,1,171.4,294.9Z"/><path class="f" d="M175.6,301.9h0a1.7,1.7,0,0,1,1.7,1.7h0a1.7,1.7,0,0,1-1.7,1.8h0a1.8,1.8,0,0,1-1.8-1.8h0A1.8,1.8,0,0,1,175.6,301.9Z"/><path class="h" d="M178.4,294.9h0a1.7,1.7,0,0,1,1.7,1.7h0a1.7,1.7,0,0,1-1.7,1.8h0a1.8,1.8,0,0,1-1.8-1.8h0A1.8,1.8,0,0,1,178.4,294.9Z"/><path class="f" d="M182.6,301.9h0a1.7,1.7,0,0,1,1.7,1.7h0a1.7,1.7,0,0,1-1.7,1.8h0a1.8,1.8,0,0,1-1.8-1.8h0A1.8,1.8,0,0,1,182.6,301.9Z"/><path class="f" d="M185.4,294.9h0a1.7,1.7,0,0,1,1.7,1.7h0a1.7,1.7,0,0,1-1.7,1.8h0a1.8,1.8,0,0,1-1.8-1.8h0A1.8,1.8,0,0,1,185.4,294.9Z"/><path class="g" d="M189.6,301.9h0a1.8,1.8,0,0,1,1.8,1.7h0a1.8,1.8,0,0,1-1.8,1.8h0a1.7,1.7,0,0,1-1.7-1.8h0A1.7,1.7,0,0,1,189.6,301.9Z"/><path class="f" d="M192.4,294.9h0a1.8,1.8,0,0,1,1.8,1.7h0a1.8,1.8,0,0,1-1.8,1.8h0a1.7,1.7,0,0,1-1.7-1.8h0A1.7,1.7,0,0,1,192.4,294.9Z"/><path class="f" d="M196.6,301.9h0a1.8,1.8,0,0,1,1.8,1.7h0a1.8,1.8,0,0,1-1.8,1.8h0a1.7,1.7,0,0,1-1.7-1.8h0A1.7,1.7,0,0,1,196.6,301.9Z"/><circle class="i" cx="208.9" cy="299.8" r="3"/><circle class="j" cx="208.9" cy="299.8" r="2.4"/><path class="f" d="M156.2,293.5h0a1.3,1.3,0,0,1,1.3,1.4v9.9a1.3,1.3,0,0,1-1.3,1.3h0a1.3,1.3,0,0,1-1.3-1.3v-9.9A1.3,1.3,0,0,1,156.2,293.5Z"/><path class="f" d="M150.9,293.5h0a1.3,1.3,0,0,1,1.3,1.4v9.9a1.3,1.3,0,0,1-1.3,1.3h0a1.3,1.3,0,0,1-1.3-1.3v-9.9A1.3,1.3,0,0,1,150.9,293.5Z"/><rect class="e" x="124.4" y="293.5" width="21.2" height="5.3"/><rect class="e" x="124.4" y="300.8" width="21.2" height="5.3"/><path class="h" d="M154.9,296.2h2.6v8.6a1.3,1.3,0,0,1-1.3,1.3h0a1.3,1.3,0,0,1-1.3-1.3v-8.6Z"/><path class="g" d="M149.6,301.2h2.6v3.6a1.3,1.3,0,0,1-1.3,1.3h0a1.3,1.3,0,0,1-1.3-1.3h0v-3.6Z"/><rect class="k" x="124.4" y="293.5" width="5.3" height="5.3"/><rect class="k" x="124.4" y="300.8" width="5.3" height="5.3"/><rect class="l" x="132.4" y="295.5" width="10.6" height="1.32"/><rect class="l" x="132.4" y="302.8" width="10.6" height="1.32"/><circle class="i" cx="208.9" cy="299.8" r="6.3"/><circle class="m" cx="208.9" cy="299.8" r="5.7"/><path class="l" d="M100.9,305h0a2.1,2.1,0,0,1,2.2,2.1v.2a2.2,2.2,0,0,1-2.2,2.2h0a2.2,2.2,0,0,1-2.2-2.2v-.2A2.1,2.1,0,0,1,100.9,305Z"/><path class="n" d="M101.1,292.2h0a1,1,0,0,1,1,.9v8.7a1,1,0,0,1-1,.9h0a.9.9,0,0,1-1-.9v-8.7A.9.9,0,0,1,101.1,292.2Z"/><path class="o" d="M94.3,305h0a2.1,2.1,0,0,1,2.2,2.1v.2a2.2,2.2,0,0,1-2.2,2.2h0a2.2,2.2,0,0,1-2.2-2.2v-.2A2.1,2.1,0,0,1,94.3,305Z"/><path class="p" d="M94.4,296.1h0a1,1,0,0,1,1,1v4.7a.9.9,0,0,1-1,.9h0a1,1,0,0,1-1-.9v-4.7A1.1,1.1,0,0,1,94.4,296.1Z"/><path class="l" d="M87.7,305h0a2.1,2.1,0,0,1,2.2,2.1v.2a2.2,2.2,0,0,1-2.2,2.2h0a2.2,2.2,0,0,1-2.2-2.2v-.2A2.1,2.1,0,0,1,87.7,305Z"/><path class="n" d="M87.8,290.6h0a1,1,0,0,1,1,1v10.2a.9.9,0,0,1-1,.9h0a1,1,0,0,1-1-.9V291.6A1.1,1.1,0,0,1,87.8,290.6Z"/><path class="h" d="M81.1,305h0a2.1,2.1,0,0,1,2.2,2.1v.2a2.2,2.2,0,0,1-2.2,2.2h0a2.2,2.2,0,0,1-2.2-2.2v-.2A2.1,2.1,0,0,1,81.1,305Z"/><path class="h" d="M81.2,293.2h0a1,1,0,0,1,1,1v7.6a1,1,0,0,1-1,.9h0a.9.9,0,0,1-1-.9v-7.6A.9.9,0,0,1,81.2,293.2Z"/><path class="g" d="M74.4,305h0a2.1,2.1,0,0,1,2.2,2.1v.2a2.2,2.2,0,0,1-2.2,2.2h0a2.1,2.1,0,0,1-2.1-2.2v-.2A2.1,2.1,0,0,1,74.4,305Z"/><path class="g" d="M74.6,297.5h0a1,1,0,0,1,1,.9v3.4a1,1,0,0,1-1,.9h0a.9.9,0,0,1-1-.9v-3.4A.9.9,0,0,1,74.6,297.5Z"/><path class="d" d="M65.7,322.9H220.1c3,0,5.5,1.8,5.5,4v25.6c0,2.2-2.5,4-5.5,4H65.7c-3,0-5.5-1.8-5.5-4V326.9C60.2,324.7,62.7,322.9,65.7,322.9Z"/><path class="e" d="M62.6,322.9H116v33.6H62.6a2.4,2.4,0,0,1-2.4-2.4V325.3A2.4,2.4,0,0,1,62.6,322.9Z"/><path class="f" d="M164.4,334.9h0a1.8,1.8,0,0,1,1.7,1.8h0a1.7,1.7,0,0,1-1.7,1.7h0a1.7,1.7,0,0,1-1.8-1.7h0A1.8,1.8,0,0,1,164.4,334.9Z"/><path class="g" d="M168.6,341.9h0a1.7,1.7,0,0,1,1.7,1.8h0a1.6,1.6,0,0,1-1.7,1.7h0a1.7,1.7,0,0,1-1.8-1.7h0A1.8,1.8,0,0,1,168.6,341.9Z"/><path class="f" d="M171.4,334.9h0a1.7,1.7,0,0,1,1.7,1.8h0a1.6,1.6,0,0,1-1.7,1.7h0a1.7,1.7,0,0,1-1.8-1.7h0A1.8,1.8,0,0,1,171.4,334.9Z"/><path class="f" d="M175.6,341.9h0a1.7,1.7,0,0,1,1.7,1.8h0a1.6,1.6,0,0,1-1.7,1.7h0a1.7,1.7,0,0,1-1.8-1.7h0A1.8,1.8,0,0,1,175.6,341.9Z"/><path class="h" d="M178.4,334.9h0a1.7,1.7,0,0,1,1.7,1.8h0a1.6,1.6,0,0,1-1.7,1.7h0a1.7,1.7,0,0,1-1.8-1.7h0A1.8,1.8,0,0,1,178.4,334.9Z"/><path class="f" d="M182.6,341.9h0a1.7,1.7,0,0,1,1.7,1.8h0a1.6,1.6,0,0,1-1.7,1.7h0a1.7,1.7,0,0,1-1.8-1.7h0A1.8,1.8,0,0,1,182.6,341.9Z"/><path class="f" d="M185.4,334.9h0a1.7,1.7,0,0,1,1.7,1.8h0a1.6,1.6,0,0,1-1.7,1.7h0a1.7,1.7,0,0,1-1.8-1.7h0A1.8,1.8,0,0,1,185.4,334.9Z"/><path class="g" d="M189.6,341.9h0a1.8,1.8,0,0,1,1.8,1.8h0a1.7,1.7,0,0,1-1.8,1.7h0a1.6,1.6,0,0,1-1.7-1.7h0A1.7,1.7,0,0,1,189.6,341.9Z"/><path class="f" d="M192.4,334.9h0a1.8,1.8,0,0,1,1.8,1.8h0a1.7,1.7,0,0,1-1.8,1.7h0a1.6,1.6,0,0,1-1.7-1.7h0A1.7,1.7,0,0,1,192.4,334.9Z"/><path class="f" d="M196.6,341.9h0a1.8,1.8,0,0,1,1.8,1.8h0a1.7,1.7,0,0,1-1.8,1.7h0a1.6,1.6,0,0,1-1.7-1.7h0A1.7,1.7,0,0,1,196.6,341.9Z"/><circle class="i" cx="208.9" cy="339.9" r="3"/><circle class="j" cx="208.9" cy="339.9" r="2.4"/><path class="f" d="M156.2,333.6h0a1.3,1.3,0,0,1,1.3,1.3v10a1.3,1.3,0,0,1-1.3,1.3h0a1.3,1.3,0,0,1-1.3-1.3v-10A1.3,1.3,0,0,1,156.2,333.6Z"/><path class="f" d="M150.9,333.6h0a1.3,1.3,0,0,1,1.3,1.3v10a1.3,1.3,0,0,1-1.3,1.3h0a1.3,1.3,0,0,1-1.3-1.3v-10A1.3,1.3,0,0,1,150.9,333.6Z"/><rect class="e" x="124.4" y="333.6" width="21.2" height="5.3"/><rect class="e" x="124.4" y="340.9" width="21.2" height="5.3"/><path class="h" d="M154.9,336.3h2.6v8.6a1.3,1.3,0,0,1-1.3,1.3h0a1.3,1.3,0,0,1-1.3-1.3v-8.6Z"/><path class="g" d="M149.6,341.3h2.6v3.6a1.3,1.3,0,0,1-1.3,1.3h0a1.3,1.3,0,0,1-1.3-1.3h0v-3.6Z"/><rect class="k" x="124.4" y="333.6" width="5.3" height="5.3"/><rect class="k" x="124.4" y="340.9" width="5.3" height="5.3"/><rect class="l" x="132.4" y="335.6" width="10.6" height="1.32"/><rect class="l" x="132.4" y="342.9" width="10.6" height="1.32"/><circle class="i" cx="208.9" cy="339.9" r="6.3"/><circle class="m" cx="208.9" cy="339.9" r="5.7"/><path class="l" d="M100.9,344.4h0a2.2,2.2,0,0,1,2.2,2.2v.2a2.2,2.2,0,0,1-2.2,2.2h0a2.2,2.2,0,0,1-2.2-2.2v-.2A2.2,2.2,0,0,1,100.9,344.4Z"/><path class="n" d="M101.1,331.6h0a1.1,1.1,0,0,1,1,1v8.6a1,1,0,0,1-1,1h0a.9.9,0,0,1-1-1v-8.6A1,1,0,0,1,101.1,331.6Z"/><path class="o" d="M94.3,344.4h0a2.2,2.2,0,0,1,2.2,2.2v.2a2.2,2.2,0,0,1-2.2,2.2h0a2.2,2.2,0,0,1-2.2-2.2v-.2A2.2,2.2,0,0,1,94.3,344.4Z"/><path class="p" d="M94.4,335.6h0a.9.9,0,0,1,1,1v4.6a.9.9,0,0,1-1,1h0a1,1,0,0,1-1-1v-4.6A1,1,0,0,1,94.4,335.6Z"/><path class="l" d="M87.7,344.4h0a2.2,2.2,0,0,1,2.2,2.2v.2a2.2,2.2,0,0,1-2.2,2.2h0a2.2,2.2,0,0,1-2.2-2.2v-.2A2.2,2.2,0,0,1,87.7,344.4Z"/><path class="n" d="M87.8,330.1h0a1,1,0,0,1,1,1v10.1a.9.9,0,0,1-1,1h0a1,1,0,0,1-1-1V331.1A1.1,1.1,0,0,1,87.8,330.1Z"/><path class="h" d="M81.1,344.4h0a2.2,2.2,0,0,1,2.2,2.2v.2a2.2,2.2,0,0,1-2.2,2.2h0a2.2,2.2,0,0,1-2.2-2.2v-.2A2.2,2.2,0,0,1,81.1,344.4Z"/><path class="h" d="M81.2,332.6h0a1.1,1.1,0,0,1,1,1v7.6a1,1,0,0,1-1,1h0a.9.9,0,0,1-1-1v-7.6A1,1,0,0,1,81.2,332.6Z"/><path class="g" d="M74.4,344.4h0a2.2,2.2,0,0,1,2.2,2.2v.2a2.2,2.2,0,0,1-2.2,2.2h0a2.1,2.1,0,0,1-2.1-2.2v-.2A2.1,2.1,0,0,1,74.4,344.4Z"/><path class="g" d="M74.6,336.9h0a1.1,1.1,0,0,1,1,1v3.3a1,1,0,0,1-1,1h0a.9.9,0,0,1-1-1v-3.3A1,1,0,0,1,74.6,336.9Z"/><line class="q" x1="292.4" y1="72.9" x2="292.4" y2="75.4"/><path class="r" d="M292.4,80.4V235.9a18.6,18.6,0,0,1-18.6,18.6H248.1"/><line class="q" x1="245.6" y1="254.5" x2="243.1" y2="254.5"/></svg>