<svg xmlns="http://www.w3.org/2000/svg" xmlns:xlink="http://www.w3.org/1999/xlink" viewBox="0 0 400 400"><defs><style>.a,.b{fill:#fff;}.b{font-size:53px;font-family:AdobeArabic-Regular, Adobe Arabic;}.c{opacity:0.58;isolation:isolate;fill:url(#a);}.d{fill:url(#b);}.e{fill:#288ed9;}.f{fill:#ffe7cb;}.g{fill:#edd7c0;}.h{fill:#0e71bb;}.i{fill:url(#c);}.j,.v,.w,.y{fill:none;}.j{stroke:#638be2;stroke-linecap:round;stroke-linejoin:round;stroke-width:4.39px;}.k{fill:#005b9f;}.l{fill:url(#d);}.m{fill:url(#e);}.n{fill:url(#f);}.o{fill:url(#g);}.p{fill:#f59b6b;}.q{fill:#28aae1;}.r{fill:#1f364c;}.s{fill:#52acea;}.t{fill:#21e2e2;}.u{fill:#ffbc98;}.w{stroke:#ffbc98;}.w,.y{stroke-width:0.88px;}.x{fill:#80c9ff;}.y{stroke:#21e2e2;}.z{fill:#137fcf;}.aa{fill:#d6eeff;}</style><linearGradient id="a" x1="87.12" y1="106.06" x2="272.87" y2="352.56" gradientUnits="userSpaceOnUse"><stop offset="0" stop-color="#c6e6ff"/><stop offset="1" stop-color="#fff"/></linearGradient><linearGradient id="b" x1="78.54" y1="268.37" x2="131.98" y2="268.37" gradientUnits="userSpaceOnUse"><stop offset="0" stop-color="#419ee3"/><stop offset="1" stop-color="#0d79c9"/></linearGradient><linearGradient id="c" x1="256.33" y1="271.26" x2="196.9" y2="271.26" xlink:href="#b"/><linearGradient id="d" x1="254.04" y1="280.51" x2="285.47" y2="280.51" gradientUnits="userSpaceOnUse"><stop offset="0" stop-color="#44989f"/><stop offset="0.21" stop-color="#39b0b4"/><stop offset="0.52" stop-color="#2ccbcd"/><stop offset="0.8" stop-color="#24dcdd"/><stop offset="1" stop-color="#21e2e2"/></linearGradient><linearGradient id="e" x1="250.86" y1="267.75" x2="265.13" y2="267.75" xlink:href="#d"/><linearGradient id="f" x1="224.81" y1="277.04" x2="252.45" y2="277.04" xlink:href="#d"/><linearGradient id="g" x1="300.71" y1="299.48" x2="204.94" y2="299.48" gradientUnits="userSpaceOnUse"><stop offset="0" stop-color="#ffbc98"/><stop offset="1" stop-color="#ff9f6c"/></linearGradient></defs><title>reseller host</title><path class="a" d="M377.8,428.4h-.3c-2.4,0-4-.5-5.3-1.7s-1.9-4.1-1.9-8.7-.3-12-.8-18.6a24.7,24.7,0,0,1,2.9-2.8h.2c.5,6.7.5,14.8.5,22.4v1.7a3.2,3.2,0,0,0,2.3,3.3,6.3,6.3,0,0,0,2,.4h.4Z"/><text class="b" transform="translate(159.7 -28.6)">یگدنیان تساه</text><path class="c" d="M310.6,319.1A19.8,19.8,0,0,0,327.9,309c19.2-35.3,12.5-87.3-13.4-101.3-32.5-17.4,13.4-68.4-29.7-94.3s-78,33.1-136.4.9S44.6,130.9,51.4,166c4.7,24.5,17.2,45.7-15.3,77-22.3,21.6-3.8,52,9.9,68.9a20,20,0,0,0,15.3,7.2Z"/><path class="d" d="M121.2,220.1c-22.9,23.8-42.7,96.6-42.7,96.6h32.9L132,268.4Z"/><path class="e" d="M240.5,224c-4.8-5.4-30.3-23.4-62.9-21.4-28.7,1.7-51.9,10.6-56.4,17.5-3.3,5,3.9,39,9,52.6a120.1,120.1,0,0,1,7.2,40.3s81.2-.4,81.6,0,10.1-29.9,11.4-45S228.8,236.1,240.5,224Z"/><path class="f" d="M196.6,174.3s.4,25.3,0,32.8-12.1,14.3-16.4,14.5-14-6.2-15.5-17V181.9Z"/><path class="g" d="M196.7,188c0-7.3-.1-13.7-.1-13.7l-31.9,7.6v18.6c2.7,11.7,20.3,8.5,24.5-2.5C191.6,191.6,193.6,189.7,196.7,188Z"/><path class="f" d="M156.3,164.5c1.2,18.5,8.7,36.4,20.6,34.5,14.8-2.3,19.3-24.8,18.8-37s-7.6-19.9-18.2-19.9S155.3,148.9,156.3,164.5Z"/><path class="f" d="M199.1,170.7c-.8,3.7-2.6,6.5-4,6.2s-1.9-3.4-1.1-7.1,2.6-6.4,4-6.2S199.9,167,199.1,170.7Z"/><path class="h" d="M156.5,167.4c-2.2-3.4-2.4-4.8-2.2-10.5s5-5.9,4.9-8.4,3-9,15.8-9.5,11.9,5.3,15.9,5.7,10.1,4.4,7.1,18.9c0,0-3.5.3-4.8,7.3a.7.7,0,0,1-1.2.3,12.3,12.3,0,0,1-1.1-2.7c-1-3.5-4.8,1.7-5.5-5.3-.5-4.9-12.6,4.2-21.6-3.9,0,0-1.4,1.8-5.2,1.7C156.3,160.9,156.5,167.4,156.5,167.4Z"/><path class="i" d="M256.2,297.9c0-20.9-6.1-62.8-15.7-73.9,0,0-15.2,8.1-19.9,33.7-1.5,7.7,1,29.6,1.6,38.8l-25.3,3.9.3,18.1h45.9C249.9,318.5,257.3,313,256.2,297.9Z"/><path class="f" d="M174.1,317.6l2.2-2,6.6,2.3a10.5,10.5,0,0,0,3.6.6h13.1s6.2-1.3,6.4-8.6a9,9,0,0,0-8.9-9.5H182.8l-2.2-.2-10.2-2.1a5.7,5.7,0,0,0-4.4.7l-5.8,3.3a13.9,13.9,0,0,0-3.1,2.3L146.6,315a2,2,0,0,0,1.5,3.5h23.7A3.3,3.3,0,0,0,174.1,317.6Z"/><line class="j" x1="14.2" y1="320.2" x2="397.8" y2="320.2"/><path class="k" d="M143.1,322.3h48.2a5,5,0,0,0,5-5h0a2.2,2.2,0,0,0-2.3-2.2H143.1a2.2,2.2,0,0,0-2.3,2.2v2.8A2.2,2.2,0,0,0,143.1,322.3Z"/><path class="k" d="M57.7,322.3H158.4a5.9,5.9,0,0,0,5.7-7.4l-17.8-64.7a9.5,9.5,0,0,0-9.3-7.1H36.3a5.9,5.9,0,0,0-5.7,7.4l17.8,64.7A9.7,9.7,0,0,0,57.7,322.3Z"/><path class="l" d="M285.5,267.2c-1.5.4-3.7,2.1-6,4.3a87.1,87.1,0,0,1-8.1,7.3c-1.9,1.5-3.9,2.8-5.7,4.2a58.6,58.6,0,0,0-5.2,3.9c-3.2,2.5-5.6,5-6.5,6.9.9-1.8,1.2-5.3,2.8-9.5a31.3,31.3,0,0,1,3.4-6.5,26,26,0,0,1,5.8-6.2,22.9,22.9,0,0,1,11.8-4.2C281.3,267.1,284,267.6,285.5,267.2Z"/><path class="m" d="M252.8,292.4c.1-1.9-.8-4.9-1.4-8.8a38.6,38.6,0,0,1,.3-14.3,51.3,51.3,0,0,1,7.1-16.5c2.7-4.3,5.3-7.5,6.3-9.7-1,2.2-1.5,6.3-2.1,11.2a161.4,161.4,0,0,1-2.6,17,63.2,63.2,0,0,1-4.5,12.8C254.3,287.7,252.9,290.5,252.8,292.4Z"/><path class="n" d="M224.8,260c1.5.7,4.4.7,8,1.8a23.5,23.5,0,0,1,11.3,6.9,29.8,29.8,0,0,1,7.2,14.9c.9,4.7.7,8.4,1.1,10.5-.4-2.2-2.4-5.3-5.1-8.6s-6.3-6.9-9.8-10.9-5.1-6.4-7.2-9.1S226.3,260.7,224.8,260Z"/><path class="o" d="M270.8,281.6H241.1a2.6,2.6,0,0,0-2.6,3l3.6,30.4a2.7,2.7,0,0,0,2.6,2.3h22.5a2.6,2.6,0,0,0,2.6-2.3l3.7-30.4A2.8,2.8,0,0,0,270.8,281.6Z"/><path class="p" d="M237,281.8l1.4,11.2a1.3,1.3,0,0,0,1.2,1.1h32.7a1.3,1.3,0,0,0,1.3-1.1l1.3-11.2a1.2,1.2,0,0,0-1.2-1.4H238.3A1.2,1.2,0,0,0,237,281.8Z"/><path class="a" d="M102.2,286c1.2,5.8-2.6,10.4-8.3,10.4a13.1,13.1,0,0,1-12.2-9.8c-1.4-5.6,1.9-10.4,7.6-10.8S101,280.1,102.2,286Z"/><path class="q" d="M99.8,285.1l-5.7-4.4-2.9,3.8h0L86.8,281l-3.3,4.7,4.3,3.4h0l5.5,4.4,3.5-4.6h0Zm-5.3-2.6,3.4,2.7L95.7,288l-3.4-2.6Zm-7.3.3,3.3,2.6-2,2.8-3.3-2.6Zm5.7,8.9-3.3-2.6,2-2.8L95,289Z"/><rect class="r" x="294" y="254.7" width="77.4" height="6.01"/><path class="h" d="M293.2,238.4h79.2c1.5,0,2.8.9,2.8,2.1v13.1c0,1.2-1.3,2.1-2.8,2.1H293.2c-1.5,0-2.8-.9-2.8-2.1V240.5C290.4,239.3,291.7,238.4,293.2,238.4Z"/><path class="k" d="M291.6,238.4H319v17.3H291.6a1.2,1.2,0,0,1-1.2-1.3V239.6A1.2,1.2,0,0,1,291.6,238.4Z"/><path class="s" d="M343.8,244.6h0a.9.9,0,0,1,.9.9h0a.9.9,0,0,1-.9.9h0a.9.9,0,0,1-.9-.9h0A.9.9,0,0,1,343.8,244.6Z"/><path class="t" d="M346,248.2h0a.9.9,0,0,1,.9.9h0a.9.9,0,0,1-.9.9h0a.9.9,0,0,1-.9-.9h0A.9.9,0,0,1,346,248.2Z"/><path class="s" d="M347.4,244.6h0a.9.9,0,0,1,.9.9h0a.9.9,0,0,1-.9.9h0a.9.9,0,0,1-.9-.9h0A.9.9,0,0,1,347.4,244.6Z"/><path class="s" d="M349.6,248.2h0a.9.9,0,0,1,.9.9h0a.9.9,0,0,1-.9.9h0a.9.9,0,0,1-.9-.9h0A.9.9,0,0,1,349.6,248.2Z"/><path class="u" d="M351,244.6h0a.9.9,0,0,1,.9.9h0a.9.9,0,0,1-.9.9h0a.9.9,0,0,1-.9-.9h0A.9.9,0,0,1,351,244.6Z"/><path class="s" d="M353.1,248.2h0a.9.9,0,0,1,.9.9h0a.9.9,0,0,1-.9.9h0a1,1,0,0,1-.9-.9h0A1,1,0,0,1,353.1,248.2Z"/><path class="s" d="M354.6,244.6h0a.9.9,0,0,1,.9.9h0a.9.9,0,0,1-.9.9h0a.9.9,0,0,1-.9-.9h0A.9.9,0,0,1,354.6,244.6Z"/><path class="t" d="M356.7,248.2h0a.9.9,0,0,1,.9.9h0a.9.9,0,0,1-.9.9h0a.9.9,0,0,1-.9-.9h0A.9.9,0,0,1,356.7,248.2Z"/><path class="s" d="M358.2,244.6h0a.9.9,0,0,1,.9.9h0a.9.9,0,0,1-.9.9h0a.9.9,0,0,1-.9-.9h0A.9.9,0,0,1,358.2,244.6Z"/><path class="s" d="M360.3,248.2h0a.9.9,0,0,1,.9.9h0a.9.9,0,0,1-.9.9h0a.9.9,0,0,1-.9-.9h0A.9.9,0,0,1,360.3,248.2Z"/><circle class="v" cx="366.6" cy="247.1" r="1.5"/><circle class="w" cx="366.6" cy="247.1" r="1.2"/><path class="s" d="M339.6,243.9h0a.7.7,0,0,1,.7.7v5.1a.7.7,0,0,1-.7.7h0a.7.7,0,0,1-.7-.7v-5.1A.7.7,0,0,1,339.6,243.9Z"/><path class="s" d="M336.9,243.9h0a.7.7,0,0,1,.7.7v5.1a.7.7,0,0,1-.7.7h0a.7.7,0,0,1-.7-.7v-5.1A.7.7,0,0,1,336.9,243.9Z"/><rect class="k" x="323.3" y="243.9" width="10.9" height="2.72"/><rect class="k" x="323.3" y="247.7" width="10.9" height="2.72"/><path class="u" d="M338.9,245.3h1.4v4.4a.7.7,0,0,1-.7.7h0a.7.7,0,0,1-.7-.7v-4.4Z"/><path class="t" d="M336.2,247.9h1.4v1.8a.7.7,0,0,1-.7.7h0a.7.7,0,0,1-.7-.7h0v-1.8Z"/><rect class="x" x="323.3" y="243.9" width="2.7" height="2.72"/><rect class="x" x="323.3" y="247.7" width="2.7" height="2.72"/><rect class="e" x="327.4" y="244.9" width="5.4" height="0.68"/><rect class="e" x="327.4" y="248.7" width="5.4" height="0.68"/><circle class="v" cx="366.6" cy="247.1" r="3.2"/><circle class="y" cx="366.6" cy="247.1" r="2.9"/><path class="e" d="M311.3,249.8h0a1.1,1.1,0,0,1,1.1,1.1h0a1.1,1.1,0,0,1-1.1,1.1h0a1.1,1.1,0,0,1-1.1-1.1h0A1.1,1.1,0,0,1,311.3,249.8Z"/><path class="z" d="M311.3,243.2h0a.5.5,0,0,1,.5.5v4.4a.5.5,0,0,1-.5.5h0a.5.5,0,0,1-.5-.5v-4.4A.5.5,0,0,1,311.3,243.2Z"/><path class="aa" d="M307.9,249.8h0a1.1,1.1,0,0,1,1.1,1.1h0a1.1,1.1,0,0,1-1.1,1.1h0a1.1,1.1,0,0,1-1.1-1.1h0A1.1,1.1,0,0,1,307.9,249.8Z"/><path class="a" d="M307.9,245.2h0a.6.6,0,0,1,.6.6v2.3a.6.6,0,0,1-.6.5h0a.5.5,0,0,1-.5-.5v-2.3A.6.6,0,0,1,307.9,245.2Z"/><path class="e" d="M304.5,249.8h0a1.1,1.1,0,0,1,1.1,1.1h0a1.1,1.1,0,0,1-1.1,1.1h0a1.1,1.1,0,0,1-1.1-1.1h0A1.1,1.1,0,0,1,304.5,249.8Z"/><path class="z" d="M304.6,242.4h0a.6.6,0,0,1,.5.5v5.2a.5.5,0,0,1-.5.5h0a.6.6,0,0,1-.6-.5v-5.2A.6.6,0,0,1,304.6,242.4Z"/><path class="u" d="M301.1,249.8h0a1.1,1.1,0,0,1,1.1,1.1h0a1.1,1.1,0,0,1-1.1,1.1h0A1.1,1.1,0,0,1,300,251h0A1.1,1.1,0,0,1,301.1,249.8Z"/><path class="u" d="M301.2,243.7h0a.5.5,0,0,1,.5.5v3.9a.5.5,0,0,1-.5.5h0a.6.6,0,0,1-.6-.5v-3.9A.6.6,0,0,1,301.2,243.7Z"/><path class="t" d="M297.7,249.8h0a1.1,1.1,0,0,1,1.1,1.1h0a1.1,1.1,0,0,1-1.1,1.1h0a1.1,1.1,0,0,1-1.1-1.1h0A1.1,1.1,0,0,1,297.7,249.8Z"/><path class="t" d="M297.8,245.9h0a.5.5,0,0,1,.5.5v1.7a.5.5,0,0,1-.5.5h0a.5.5,0,0,1-.5-.5v-1.7A.5.5,0,0,1,297.8,245.9Z"/><rect class="r" x="294" y="275.2" width="77.4" height="6.01"/><path class="h" d="M293.2,259h79.2c1.5,0,2.8.9,2.8,2v13.2c0,1.1-1.3,2-2.8,2H293.2c-1.5,0-2.8-.9-2.8-2V261C290.4,259.9,291.7,259,293.2,259Z"/><path class="k" d="M291.6,259H319v17.2H291.6a1.2,1.2,0,0,1-1.2-1.2V260.2A1.2,1.2,0,0,1,291.6,259Z"/><path class="s" d="M343.8,265.1h0a.9.9,0,0,1,.9.9h0a.9.9,0,0,1-.9.9h0a.9.9,0,0,1-.9-.9h0A.9.9,0,0,1,343.8,265.1Z"/><path class="t" d="M346,268.7h0a.9.9,0,0,1,.9.9h0a.9.9,0,0,1-.9.9h0a.9.9,0,0,1-.9-.9h0A.9.9,0,0,1,346,268.7Z"/><path class="s" d="M347.4,265.1h0a.9.9,0,0,1,.9.9h0a.9.9,0,0,1-.9.9h0a.9.9,0,0,1-.9-.9h0A.9.9,0,0,1,347.4,265.1Z"/><path class="s" d="M349.6,268.7h0a.9.9,0,0,1,.9.9h0a.9.9,0,0,1-.9.9h0a.9.9,0,0,1-.9-.9h0A.9.9,0,0,1,349.6,268.7Z"/><path class="u" d="M351,265.1h0a.9.9,0,0,1,.9.9h0a.9.9,0,0,1-.9.9h0a.9.9,0,0,1-.9-.9h0A.9.9,0,0,1,351,265.1Z"/><path class="s" d="M353.1,268.7h0a.9.9,0,0,1,.9.9h0a.9.9,0,0,1-.9.9h0a1,1,0,0,1-.9-.9h0A1,1,0,0,1,353.1,268.7Z"/><path class="s" d="M354.6,265.1h0a.9.9,0,0,1,.9.9h0a.9.9,0,0,1-.9.9h0a.9.9,0,0,1-.9-.9h0A.9.9,0,0,1,354.6,265.1Z"/><path class="t" d="M356.7,268.7h0a.9.9,0,0,1,.9.9h0a.9.9,0,0,1-.9.9h0a.9.9,0,0,1-.9-.9h0A.9.9,0,0,1,356.7,268.7Z"/><path class="s" d="M358.2,265.1h0a.9.9,0,0,1,.9.9h0a.9.9,0,0,1-.9.9h0a.9.9,0,0,1-.9-.9h0A.9.9,0,0,1,358.2,265.1Z"/><path class="s" d="M360.3,268.7h0a.9.9,0,0,1,.9.9h0a.9.9,0,0,1-.9.9h0a.9.9,0,0,1-.9-.9h0A.9.9,0,0,1,360.3,268.7Z"/><circle class="v" cx="366.6" cy="267.7" r="1.5"/><circle class="w" cx="366.6" cy="267.7" r="1.2"/><path class="s" d="M339.6,264.5h0a.7.7,0,0,1,.7.6v5.1a.7.7,0,0,1-.7.7h0a.7.7,0,0,1-.7-.7v-5.1A.7.7,0,0,1,339.6,264.5Z"/><path class="s" d="M336.9,264.5h0a.7.7,0,0,1,.7.6v5.1a.7.7,0,0,1-.7.7h0a.7.7,0,0,1-.7-.7v-5.1A.7.7,0,0,1,336.9,264.5Z"/><rect class="k" x="323.3" y="264.5" width="10.9" height="2.72"/><rect class="k" x="323.3" y="268.2" width="10.9" height="2.72"/><path class="u" d="M338.9,265.8h1.4v4.4a.7.7,0,0,1-.7.7h0a.7.7,0,0,1-.7-.7v-4.4Z"/><path class="t" d="M336.2,268.4h1.4v1.8a.7.7,0,0,1-.7.7h0a.7.7,0,0,1-.7-.7h0v-1.8Z"/><rect class="x" x="323.3" y="264.5" width="2.7" height="2.72"/><rect class="x" x="323.3" y="268.2" width="2.7" height="2.72"/><rect class="e" x="327.4" y="265.5" width="5.4" height="0.68"/><rect class="e" x="327.4" y="269.2" width="5.4" height="0.68"/><circle class="v" cx="366.6" cy="267.7" r="3.2"/><circle class="y" cx="366.6" cy="267.7" r="2.9"/><path class="e" d="M311.3,270.3h0a1.1,1.1,0,0,1,1.1,1.1h0a1.1,1.1,0,0,1-1.1,1.1h0a1.1,1.1,0,0,1-1.1-1.1h0A1.1,1.1,0,0,1,311.3,270.3Z"/><path class="z" d="M311.3,263.7h0a.6.6,0,0,1,.5.6v4.4a.5.5,0,0,1-.5.5h0a.5.5,0,0,1-.5-.5v-4.4A.6.6,0,0,1,311.3,263.7Z"/><path class="aa" d="M307.9,270.3h0a1.1,1.1,0,0,1,1.1,1.1h0a1.1,1.1,0,0,1-1.1,1.1h0a1.1,1.1,0,0,1-1.1-1.1h0A1.1,1.1,0,0,1,307.9,270.3Z"/><path class="a" d="M307.9,265.8h0a.6.6,0,0,1,.6.5v2.4a.6.6,0,0,1-.6.5h0a.5.5,0,0,1-.5-.5v-2.4A.5.5,0,0,1,307.9,265.8Z"/><path class="e" d="M304.5,270.3h0a1.1,1.1,0,0,1,1.1,1.1h0a1.1,1.1,0,0,1-1.1,1.1h0a1.1,1.1,0,0,1-1.1-1.1h0A1.1,1.1,0,0,1,304.5,270.3Z"/><path class="z" d="M304.6,263h0a.5.5,0,0,1,.5.5v5.2a.5.5,0,0,1-.5.5h0a.6.6,0,0,1-.6-.5v-5.2A.6.6,0,0,1,304.6,263Z"/><path class="u" d="M301.1,270.3h0a1.1,1.1,0,0,1,1.1,1.1h0a1.1,1.1,0,0,1-1.1,1.1h0a1.1,1.1,0,0,1-1.1-1.1h0A1.1,1.1,0,0,1,301.1,270.3Z"/><path class="u" d="M301.2,264.3h0a.5.5,0,0,1,.5.5v3.9a.5.5,0,0,1-.5.5h0a.6.6,0,0,1-.6-.5v-3.9A.6.6,0,0,1,301.2,264.3Z"/><path class="t" d="M297.7,270.3h0a1.1,1.1,0,0,1,1.1,1.1h0a1.1,1.1,0,0,1-1.1,1.1h0a1.1,1.1,0,0,1-1.1-1.1h0A1.1,1.1,0,0,1,297.7,270.3Z"/><path class="t" d="M297.8,266.5h0a.5.5,0,0,1,.5.5v1.7a.5.5,0,0,1-.5.5h0a.5.5,0,0,1-.5-.5V267A.5.5,0,0,1,297.8,266.5Z"/><rect class="r" x="294" y="295.8" width="77.4" height="6.01"/><path class="h" d="M293.2,279.5h79.2c1.5,0,2.8.9,2.8,2.1v13.1c0,1.1-1.3,2.1-2.8,2.1H293.2c-1.5,0-2.8-1-2.8-2.1V281.6C290.4,280.4,291.7,279.5,293.2,279.5Z"/><path class="k" d="M291.6,279.5H319v17.3H291.6a1.2,1.2,0,0,1-1.2-1.3V280.7A1.2,1.2,0,0,1,291.6,279.5Z"/><path class="s" d="M343.8,285.7h0a.9.9,0,0,1,.9.9h0a.9.9,0,0,1-.9.9h0a.9.9,0,0,1-.9-.9h0A.9.9,0,0,1,343.8,285.7Z"/><path class="t" d="M346,289.3h0a.9.9,0,0,1,.9.9h0a.9.9,0,0,1-.9.9h0a.9.9,0,0,1-.9-.9h0A.9.9,0,0,1,346,289.3Z"/><path class="s" d="M347.4,285.7h0a.9.9,0,0,1,.9.9h0a.9.9,0,0,1-.9.9h0a.9.9,0,0,1-.9-.9h0A.9.9,0,0,1,347.4,285.7Z"/><path class="s" d="M349.6,289.3h0a.9.9,0,0,1,.9.9h0a.9.9,0,0,1-.9.9h0a.9.9,0,0,1-.9-.9h0A.9.9,0,0,1,349.6,289.3Z"/><path class="u" d="M351,285.7h0a.9.9,0,0,1,.9.9h0a.9.9,0,0,1-.9.9h0a.9.9,0,0,1-.9-.9h0A.9.9,0,0,1,351,285.7Z"/><path class="s" d="M353.1,289.3h0a.9.9,0,0,1,.9.9h0a.9.9,0,0,1-.9.9h0a1,1,0,0,1-.9-.9h0A1,1,0,0,1,353.1,289.3Z"/><path class="s" d="M354.6,285.7h0a.9.9,0,0,1,.9.9h0a.9.9,0,0,1-.9.9h0a.9.9,0,0,1-.9-.9h0A.9.9,0,0,1,354.6,285.7Z"/><path class="t" d="M356.7,289.3h0a.9.9,0,0,1,.9.9h0a.9.9,0,0,1-.9.9h0a.9.9,0,0,1-.9-.9h0A.9.9,0,0,1,356.7,289.3Z"/><path class="s" d="M358.2,285.7h0a.9.9,0,0,1,.9.9h0a.9.9,0,0,1-.9.9h0a.9.9,0,0,1-.9-.9h0A.9.9,0,0,1,358.2,285.7Z"/><path class="s" d="M360.3,289.3h0a.9.9,0,0,1,.9.9h0a.9.9,0,0,1-.9.9h0a.9.9,0,0,1-.9-.9h0A.9.9,0,0,1,360.3,289.3Z"/><circle class="v" cx="366.6" cy="288.2" r="1.5"/><circle class="w" cx="366.6" cy="288.2" r="1.2"/><path class="s" d="M339.6,285h0a.7.7,0,0,1,.7.7v5.1a.7.7,0,0,1-.7.7h0a.7.7,0,0,1-.7-.7v-5.1A.7.7,0,0,1,339.6,285Z"/><path class="s" d="M336.9,285h0a.7.7,0,0,1,.7.7v5.1a.7.7,0,0,1-.7.7h0a.7.7,0,0,1-.7-.7v-5.1A.7.7,0,0,1,336.9,285Z"/><rect class="k" x="323.3" y="285" width="10.9" height="2.72"/><rect class="k" x="323.3" y="288.7" width="10.9" height="2.72"/><path class="u" d="M338.9,286.4h1.4v4.4a.7.7,0,0,1-.7.7h0a.7.7,0,0,1-.7-.7v-4.4Z"/><path class="t" d="M336.2,288.9h1.4v1.9a.7.7,0,0,1-.7.7h0a.7.7,0,0,1-.7-.7h0v-1.9Z"/><rect class="x" x="323.3" y="285" width="2.7" height="2.72"/><rect class="x" x="323.3" y="288.7" width="2.7" height="2.72"/><rect class="e" x="327.4" y="286" width="5.4" height="0.68"/><rect class="e" x="327.4" y="289.8" width="5.4" height="0.68"/><circle class="v" cx="366.6" cy="288.2" r="3.2"/><circle class="y" cx="366.6" cy="288.2" r="2.9"/><path class="e" d="M311.3,290.9h0a1.1,1.1,0,0,1,1.1,1.1h0a1.1,1.1,0,0,1-1.1,1.1h0a1.1,1.1,0,0,1-1.1-1.1h0A1.1,1.1,0,0,1,311.3,290.9Z"/><path class="z" d="M311.3,284.3h0a.5.5,0,0,1,.5.5v4.4a.5.5,0,0,1-.5.5h0a.5.5,0,0,1-.5-.5v-4.4A.5.5,0,0,1,311.3,284.3Z"/><path class="aa" d="M307.9,290.9h0A1.1,1.1,0,0,1,309,292h0a1.1,1.1,0,0,1-1.1,1.1h0a1.1,1.1,0,0,1-1.1-1.1h0A1.1,1.1,0,0,1,307.9,290.9Z"/><path class="a" d="M307.9,286.3h0a.6.6,0,0,1,.6.5v2.4a.6.6,0,0,1-.6.5h0a.5.5,0,0,1-.5-.5v-2.4A.6.6,0,0,1,307.9,286.3Z"/><path class="e" d="M304.5,290.9h0a1.1,1.1,0,0,1,1.1,1.1h0a1.1,1.1,0,0,1-1.1,1.1h0a1.1,1.1,0,0,1-1.1-1.1h0A1.1,1.1,0,0,1,304.5,290.9Z"/><path class="z" d="M304.6,283.5h0a.5.5,0,0,1,.5.5v5.2a.5.5,0,0,1-.5.5h0a.6.6,0,0,1-.6-.5V284A.6.6,0,0,1,304.6,283.5Z"/><path class="u" d="M301.1,290.9h0a1.1,1.1,0,0,1,1.1,1.1h0a1.1,1.1,0,0,1-1.1,1.1h0a1.1,1.1,0,0,1-1.1-1.1h0A1.1,1.1,0,0,1,301.1,290.9Z"/><path class="u" d="M301.2,284.8h0a.5.5,0,0,1,.5.5v3.9a.5.5,0,0,1-.5.5h0a.6.6,0,0,1-.6-.5v-3.9A.6.6,0,0,1,301.2,284.8Z"/><path class="t" d="M297.7,290.9h0a1.1,1.1,0,0,1,1.1,1.1h0a1.1,1.1,0,0,1-1.1,1.1h0a1.1,1.1,0,0,1-1.1-1.1h0A1.1,1.1,0,0,1,297.7,290.9Z"/><path class="t" d="M297.8,287h0a.5.5,0,0,1,.5.5v1.7a.5.5,0,0,1-.5.5h0a.5.5,0,0,1-.5-.5v-1.7A.5.5,0,0,1,297.8,287Z"/><path class="h" d="M293.2,300.1h79.2c1.5,0,2.8.9,2.8,2v13.2c0,1.1-1.3,2-2.8,2H293.2c-1.5,0-2.8-.9-2.8-2V302.1C290.4,301,291.7,300.1,293.2,300.1Z"/><path class="k" d="M291.6,300.1H319v17.2H291.6a1.2,1.2,0,0,1-1.2-1.2V301.3A1.2,1.2,0,0,1,291.6,300.1Z"/><path class="s" d="M343.8,306.2h0a.9.9,0,0,1,.9.9h0a.9.9,0,0,1-.9.9h0a.9.9,0,0,1-.9-.9h0A.9.9,0,0,1,343.8,306.2Z"/><path class="t" d="M346,309.8h0a.9.9,0,0,1,.9.9h0a.9.9,0,0,1-.9.9h0a.9.9,0,0,1-.9-.9h0A.9.9,0,0,1,346,309.8Z"/><path class="s" d="M347.4,306.2h0a.9.9,0,0,1,.9.9h0a.9.9,0,0,1-.9.9h0a.9.9,0,0,1-.9-.9h0A.9.9,0,0,1,347.4,306.2Z"/><path class="s" d="M349.6,309.8h0a.9.9,0,0,1,.9.9h0a.9.9,0,0,1-.9.9h0a.9.9,0,0,1-.9-.9h0A.9.9,0,0,1,349.6,309.8Z"/><path class="u" d="M351,306.2h0a.9.9,0,0,1,.9.9h0a.9.9,0,0,1-.9.9h0a.9.9,0,0,1-.9-.9h0A.9.9,0,0,1,351,306.2Z"/><path class="s" d="M353.1,309.8h0a.9.9,0,0,1,.9.9h0a.9.9,0,0,1-.9.9h0a1,1,0,0,1-.9-.9h0A1,1,0,0,1,353.1,309.8Z"/><path class="s" d="M354.6,306.2h0a.9.9,0,0,1,.9.9h0a.9.9,0,0,1-.9.9h0a.9.9,0,0,1-.9-.9h0A.9.9,0,0,1,354.6,306.2Z"/><path class="t" d="M356.7,309.8h0a.9.9,0,0,1,.9.9h0a.9.9,0,0,1-.9.9h0a.9.9,0,0,1-.9-.9h0A.9.9,0,0,1,356.7,309.8Z"/><path class="s" d="M358.2,306.2h0a.9.9,0,0,1,.9.9h0a.9.9,0,0,1-.9.9h0a.9.9,0,0,1-.9-.9h0A.9.9,0,0,1,358.2,306.2Z"/><path class="s" d="M360.3,309.8h0a.9.9,0,0,1,.9.9h0a.9.9,0,0,1-.9.9h0a.9.9,0,0,1-.9-.9h0A.9.9,0,0,1,360.3,309.8Z"/><circle class="v" cx="366.6" cy="308.8" r="1.5"/><circle class="w" cx="366.6" cy="308.8" r="1.2"/><path class="s" d="M339.6,305.6h0a.7.7,0,0,1,.7.6v5.1a.7.7,0,0,1-.7.7h0a.7.7,0,0,1-.7-.7v-5.1A.7.7,0,0,1,339.6,305.6Z"/><path class="s" d="M336.9,305.6h0a.7.7,0,0,1,.7.6v5.1a.7.7,0,0,1-.7.7h0a.7.7,0,0,1-.7-.7v-5.1A.7.7,0,0,1,336.9,305.6Z"/><rect class="k" x="323.3" y="305.6" width="10.9" height="2.72"/><rect class="k" x="323.3" y="309.3" width="10.9" height="2.72"/><path class="u" d="M338.9,306.9h1.4v4.4a.7.7,0,0,1-.7.7h0a.7.7,0,0,1-.7-.7v-4.4Z"/><path class="t" d="M336.2,309.5h1.4v1.8a.7.7,0,0,1-.7.7h0a.7.7,0,0,1-.7-.7h0v-1.8Z"/><rect class="x" x="323.3" y="305.6" width="2.7" height="2.72"/><rect class="x" x="323.3" y="309.3" width="2.7" height="2.72"/><rect class="e" x="327.4" y="306.6" width="5.4" height="0.68"/><rect class="e" x="327.4" y="310.3" width="5.4" height="0.68"/><circle class="v" cx="366.6" cy="308.8" r="3.2"/><circle class="y" cx="366.6" cy="308.8" r="2.9"/><path class="e" d="M311.3,311.1h0a1.1,1.1,0,0,1,1.1,1.1h0a1.1,1.1,0,0,1-1.1,1.1h0a1.1,1.1,0,0,1-1.1-1.1h0A1.1,1.1,0,0,1,311.3,311.1Z"/><path class="z" d="M311.3,304.5h0a.5.5,0,0,1,.5.5v4.5a.5.5,0,0,1-.5.5h0a.6.6,0,0,1-.5-.5V305A.6.6,0,0,1,311.3,304.5Z"/><path class="aa" d="M307.9,311.1h0a1.1,1.1,0,0,1,1.1,1.1h0a1.1,1.1,0,0,1-1.1,1.1h0a1.1,1.1,0,0,1-1.1-1.1h0A1.1,1.1,0,0,1,307.9,311.1Z"/><path class="a" d="M307.9,306.6h0a.6.6,0,0,1,.6.5v2.4a.6.6,0,0,1-.6.5h0a.6.6,0,0,1-.5-.5v-2.4A.5.5,0,0,1,307.9,306.6Z"/><path class="e" d="M304.5,311.1h0a1.1,1.1,0,0,1,1.1,1.1h0a1.1,1.1,0,0,1-1.1,1.1h0a1.1,1.1,0,0,1-1.1-1.1h0A1.1,1.1,0,0,1,304.5,311.1Z"/><path class="z" d="M304.6,303.8h0a.5.5,0,0,1,.5.5v5.2a.6.6,0,0,1-.5.5h0a.6.6,0,0,1-.6-.5v-5.2A.6.6,0,0,1,304.6,303.8Z"/><path class="u" d="M301.1,311.1h0a1.1,1.1,0,0,1,1.1,1.1h0a1.1,1.1,0,0,1-1.1,1.1h0a1.1,1.1,0,0,1-1.1-1.1h0A1.1,1.1,0,0,1,301.1,311.1Z"/><path class="u" d="M301.2,305h0a.6.6,0,0,1,.5.6v3.9a.6.6,0,0,1-.5.5h0a.6.6,0,0,1-.6-.5v-3.9A.6.6,0,0,1,301.2,305Z"/><path class="t" d="M297.7,311.1h0a1.1,1.1,0,0,1,1.1,1.1h0a1.1,1.1,0,0,1-1.1,1.1h0a1.1,1.1,0,0,1-1.1-1.1h0A1.1,1.1,0,0,1,297.7,311.1Z"/><path class="t" d="M297.8,307.2h0a.6.6,0,0,1,.5.6v1.7a.6.6,0,0,1-.5.5h0a.5.5,0,0,1-.5-.5v-1.7A.6.6,0,0,1,297.8,307.2Z"/></svg>