<?xml version="1.0" encoding="utf-8"?>
<!-- Generator: Adobe Illustrator 22.0.1, SVG Export Plug-In . SVG Version: 6.00 Build 0)  -->
<svg version="1.1" id="Layer_1" xmlns="http://www.w3.org/2000/svg" xmlns:xlink="http://www.w3.org/1999/xlink" x="0px" y="0px"
	 viewBox="0 0 60 60" enable-background="new 0 0 60 60" xml:space="preserve">
<g>
	<g id="Group_5471" transform="translate(-15374 -17915.93)">
		<g id="Group_5385" transform="translate(-79 150)">
			<g id="Path_4726">
				<path fill="#D6EEFF" d="M15503.4,17775.4v38.4c0,0.9-0.7,1.6-1.6,1.6l0,0h2.4c0.9,0,1.6-0.7,1.6-1.6l0,0v-38.4H15503.4z"/>
			</g>
			<g id="Group_5310" transform="translate(4 37.089)">
				<g id="Path_4737">
					<path fill="#137FCF" d="M15484.1,17748.1c0,0.4-0.3,0.7-0.7,0.7s-0.7-0.3-0.7-0.7c0-0.4,0.3-0.7,0.7-0.7
						S15484.1,17747.7,15484.1,17748.1L15484.1,17748.1"/>
				</g>
				<g id="Path_4738">
					<path fill="#137FCF" d="M15465.3,17756.1c-1.6,0-2.9-1.3-2.9-2.9c0-0.4,0.3-0.7,0.7-0.7s0.7,0.3,0.7,0.7c0,0,0,0,0,0.1
						c0,0.8,0.6,1.4,1.4,1.4c0.8,0,1.4-0.6,1.4-1.4s-0.6-1.4-1.4-1.4c-1.6,0-2.9-1.3-2.9-2.9s1.3-2.9,2.9-2.9c1.6,0,2.9,1.3,2.9,2.9
						l0,0c0,0.4-0.3,0.7-0.7,0.7s-0.7-0.3-0.7-0.7c0-0.8-0.6-1.4-1.4-1.4c-0.8,0-1.4,0.6-1.4,1.4s0.6,1.4,1.4,1.4
						c1.6,0,2.9,1.3,2.9,2.9C15468.2,17754.8,15466.9,17756.1,15465.3,17756.1L15465.3,17756.1z"/>
				</g>
				<g id="Path_4739">
					<path fill="#137FCF" d="M15473.3,17756.1c-2,0-3.6-1.6-3.6-3.6s1.6-3.6,3.6-3.6c1,0,2,0.4,2.7,1.2c0.3,0.3,0.3,0.7,0,1
						s-0.7,0.3-1,0l0,0c-0.8-0.9-2.2-1-3.1-0.2c-0.9,0.8-1,2.2-0.2,3.1s2.2,1,3.1,0.2c0.1-0.1,0.1-0.1,0.2-0.2
						c0.3-0.3,0.7-0.3,1-0.1c0.3,0.3,0.3,0.7,0.1,1l0,0C15475.3,17755.6,15474.3,17756.1,15473.3,17756.1z"/>
				</g>
				<g id="Path_4740">
					<path fill="#137FCF" d="M15478.3,17756.1c-0.4,0-0.7-0.3-0.7-0.7l0,0v-5.8c0-0.4,0.3-0.7,0.7-0.7s0.7,0.3,0.7,0.7
						c0,0,0,0,0,0.1v5.8C15479.1,17755.8,15478.7,17756.1,15478.3,17756.1z"/>
				</g>
				<g id="Path_4741">
					<path fill="#137FCF" d="M15478.3,17752.5c-0.4,0-0.7-0.3-0.7-0.7l0,0c0-1.6,1.3-2.9,2.9-2.9c0.4,0,0.7,0.3,0.7,0.7
						c0,0.4-0.3,0.7-0.7,0.7c0,0,0,0-0.1,0c-0.8,0-1.4,0.6-1.4,1.4C15479.1,17752.1,15478.7,17752.5,15478.3,17752.5z"/>
				</g>
				<g id="Path_4742">
					<path fill="#137FCF" d="M15483.4,17756.1c-0.4,0-0.7-0.3-0.7-0.7l0,0v-4.3c0-0.4,0.3-0.7,0.7-0.7s0.7,0.3,0.7,0.7
						c0,0,0,0,0,0.1v4.3C15484.1,17755.8,15483.8,17756.1,15483.4,17756.1z"/>
				</g>
				<g id="Path_4743">
					<path fill="#137FCF" d="M15486.3,17756.1c-0.4,0-0.7-0.3-0.7-0.7l0,0v-7.2c0-0.4,0.3-0.7,0.7-0.7s0.7,0.3,0.7,0.7v7.2
						C15487,17755.8,15486.7,17756.1,15486.3,17756.1z"/>
				</g>
				<g id="Path_4744">
					<path fill="#137FCF" d="M15488.4,17751.7h-2.2c-0.4,0-0.7-0.3-0.7-0.7l0,0v-2.9c0-0.4,0.3-0.7,0.7-0.7l0,0h2.2
						c1.2,0,2.1,1,2.1,2.2C15490.5,17750.8,15489.6,17751.7,15488.4,17751.7L15488.4,17751.7z M15487,17750.3h1.4
						c0.4,0,0.7-0.3,0.7-0.7s-0.3-0.7-0.7-0.7h-1.4V17750.3z"/>
				</g>
				<g id="Path_4745">
					<path fill="#137FCF" d="M15495.7,17750.3h-2.9c-0.4,0-0.7-0.3-0.7-0.7c0-0.4,0.3-0.7,0.7-0.7h2.9c0.4,0,0.7,0.3,0.7,0.7
						C15496.4,17749.9,15496.1,17750.3,15495.7,17750.3L15495.7,17750.3z"/>
				</g>
				<g id="Path_4746">
					<path fill="#137FCF" d="M15496.4,17756.1c-1.6,0-2.9-1.3-2.9-2.9v-5.8c0-0.4,0.3-0.7,0.7-0.7s0.7,0.3,0.7,0.7c0,0,0,0,0,0.1
						v5.8c0,0.8,0.6,1.4,1.4,1.4c0.4,0,0.7,0.3,0.7,0.7C15497.1,17755.8,15496.8,17756.1,15496.4,17756.1L15496.4,17756.1z"/>
				</g>
			</g>
			<g id="Rectangle_2228" transform="translate(718.761 2313.927)">
				<g>
					<path fill="none" d="M14743.6,15454h42c1.7,0,3,1.3,3,3v42c0,1.7-1.3,3-3,3h-42c-1.7,0-3-1.3-3-3v-42
						C14740.6,15455.3,14742,15454,14743.6,15454z"/>
				</g>
				<g>
					<path fill="#137FCF" d="M14785.6,15502h-42c-1.7,0-3-1.3-3-3v-42c0-1.7,1.3-3,3-3h42c1.7,0,3,1.3,3,3v42
						C14788.6,15500.7,14787.3,15502,14785.6,15502z M14743.6,15456c-0.6,0-1,0.4-1,1v42c0,0.6,0.4,1,1,1h42c0.6,0,1-0.4,1-1v-42
						c0-0.6-0.4-1-1-1H14743.6z"/>
				</g>
			</g>
			<g id="Rectangle_2229" transform="translate(718.762 2313.928)">
				<g>
					<path fill="#D6EEFF" d="M14743.6,15454h42c1.7,0,3,1.1,3,2.5v6.5l0,0h-48l0,0v-6.5C14740.6,15455.1,14742,15454,14743.6,15454z
						"/>
				</g>
				<g>
					<path fill="#137FCF" d="M14786.6,15465h-44c-1.1,0-2-0.9-2-2v-6c0-1.7,1.3-3,3-3h42c1.7,0,3,1.3,3,3v6
						C14788.6,15464.1,14787.7,15465,14786.6,15465z M14743.6,15456c-0.6,0-1,0.4-1,1v6h44v-6c0-0.6-0.4-1-1-1H14743.6z"/>
				</g>
			</g>
			<g id="Group_5311" transform="translate(1)">
				<g id="Path_4734">
					<path fill="#137FCF" d="M15465.8,17773.4c0,0.6-0.4,1-1,1s-1-0.4-1-1s0.4-1,1-1S15465.8,17772.8,15465.8,17773.4"/>
				</g>
				<g id="Path_4735">
					<path fill="#137FCF" d="M15469,17773.4c0,0.6-0.4,1-1,1s-1-0.4-1-1s0.4-1,1-1C15468.6,17772.4,15469,17772.8,15469,17773.4"/>
				</g>
				<g id="Path_4736">
					<path fill="#137FCF" d="M15472.2,17773.4c0,0.6-0.4,1-1,1s-1-0.4-1-1s0.4-1,1-1
						C15471.8,17772.4,15472.2,17772.8,15472.2,17773.4"/>
				</g>
			</g>
		</g>
		<g id="ic_settings_black_24px" transform="translate(667.439 2530)">
			<g id="Path_4748">
				<path fill="#FFFFFF" d="M14746.2,15431.6c0.1-0.4,0.1-0.8,0.1-1.2s0-0.8-0.1-1.2l2.6-2c0.2-0.2,0.3-0.5,0.1-0.8l-2.5-4.3
					c-0.2-0.3-0.5-0.4-0.8-0.3l-3.1,1.2c-0.6-0.5-1.3-0.9-2.1-1.2l-0.5-3.3c0-0.3-0.3-0.5-0.6-0.5h-5c-0.3,0-0.6,0.2-0.6,0.5
					l-0.5,3.3c-0.7,0.3-1.4,0.7-2.1,1.2l-3.1-1.2c-0.3-0.1-0.6,0-0.8,0.3l-2.5,4.3c-0.2,0.3-0.1,0.6,0.1,0.8l2.6,2
					c-0.1,0.4-0.1,0.8-0.1,1.2s0,0.8,0.1,1.2l-2.6,2c-0.2,0.2-0.3,0.5-0.1,0.8l2.5,4.3c0.2,0.3,0.5,0.4,0.8,0.3l3.1-1.2
					c0.6,0.5,1.3,0.9,2.1,1.2l0.5,3.3c0,0.3,0.3,0.5,0.6,0.5h5c0.3,0,0.6-0.2,0.6-0.5l0.5-3.3c0.7-0.3,1.4-0.7,2.1-1.2l3.1,1.2
					c0.3,0.1,0.6,0,0.8-0.3l2.5-4.3c0.1-0.3,0.1-0.6-0.1-0.8L14746.2,15431.6z M14737,15434.7c-2.4,0-4.3-1.9-4.3-4.3
					c0-2.4,1.9-4.3,4.3-4.3c2.4,0,4.3,1.9,4.3,4.3l0,0C14741.3,15432.8,14739.3,15434.7,14737,15434.7L14737,15434.7z"/>
				<path fill="#137FCF" d="M14734.4,15443.8c-0.8,0-1.5-0.6-1.6-1.4l-0.4-2.7c-0.5-0.2-0.9-0.5-1.3-0.8l-2.6,1
					c-0.8,0.3-1.6,0-2-0.7l-2.5-4.3c-0.4-0.7-0.2-1.6,0.4-2.1l2.2-1.7c0-0.3,0-0.5,0-0.8s0-0.5,0-0.8l-2.2-1.7
					c-0.6-0.5-0.8-1.4-0.4-2.1l2.5-4.3c0.4-0.7,1.2-1,2-0.7l2.6,1c0.4-0.3,0.9-0.5,1.3-0.8l0.4-2.7c0.1-0.8,0.8-1.4,1.6-1.4h4.9
					c0.8,0,1.5,0.6,1.6,1.4l0.4,2.7c0.5,0.2,0.9,0.5,1.3,0.8l2.6-1c0.8-0.3,1.6,0,2,0.7l2.5,4.3c0.4,0.7,0.2,1.6-0.4,2.1l-2.2,1.7
					c0,0.3,0,0.5,0,0.8s0,0.5,0,0.8l2.2,1.7c0.6,0.5,0.8,1.4,0.4,2.1l-2.5,4.3c-0.4,0.7-1.2,1-2,0.7l-2.6-1
					c-0.4,0.3-0.9,0.5-1.3,0.8l-0.4,2.7c-0.1,0.8-0.8,1.4-1.6,1.4l0,0H14734.4C14734.5,15443.8,14734.5,15443.8,14734.4,15443.8z
					 M14739,15442.1L14739,15442.1L14739,15442.1z M14734.9,15442.1L14734.9,15442.1L14734.9,15442.1z M14734.5,15441.8
					L14734.5,15441.8L14734.5,15441.8L14734.5,15441.8z M14731.5,15436.6l0.5,0.4c0.6,0.4,1.2,0.8,1.9,1.1l0.5,0.2l0.5,3.5h4.3
					l0.5-3.5l0.5-0.2c0.7-0.3,1.3-0.6,1.9-1.1l0.5-0.3l3.3,1.3l2.1-3.7l-2.8-2.2l0.1-0.6c0-0.4,0.1-0.7,0.1-1.1c0-0.3,0-0.7-0.1-1.1
					l-0.1-0.6l2.8-2.2l-2.1-3.7l-3.3,1.3l-0.5-0.4c-0.6-0.4-1.2-0.8-1.9-1.1l-0.5-0.2l-0.5-3.5h-4.3l-0.5,3.5l-0.5,0.2
					c-0.7,0.3-1.3,0.6-1.9,1.1l-0.5,0.3l-3.3-1.3l-2.1,3.7l2.8,2.2l-0.1,0.6c0,0.4-0.1,0.7-0.1,1.1c0,0.3,0,0.7,0.1,1.1l0.1,0.6
					l-2.8,2.2l2.1,3.7L14731.5,15436.6z M14739.4,15441.8L14739.4,15441.8L14739.4,15441.8L14739.4,15441.8z M14745.6,15438.2
					L14745.6,15438.2L14745.6,15438.2z M14746.1,15438.1L14746.1,15438.1L14746.1,15438.1z M14725.9,15426.8L14725.9,15426.8
					L14725.9,15426.8z M14727.9,15422.7L14727.9,15422.7L14727.9,15422.7z M14728.4,15422.5L14728.4,15422.5
					C14728.3,15422.5,14728.3,15422.5,14728.4,15422.5z M14734.5,15419L14734.5,15419L14734.5,15419z M14739.4,15419L14739.4,15419
					L14739.4,15419z M14739,15418.7L14739,15418.7L14739,15418.7z M14734.9,15418.7L14734.9,15418.7L14734.9,15418.7z
					 M14737,15435.7L14737,15435.7c-2.9,0-5.3-2.4-5.3-5.3s2.4-5.3,5.3-5.3s5.3,2.4,5.3,5.3
					C14742.3,15433.3,14739.9,15435.7,14737,15435.7z M14737,15427c-1.8,0-3.3,1.5-3.3,3.3s1.5,3.3,3.3,3.3s3.3-1.5,3.3-3.3
					C14740.3,15428.5,14738.8,15427,14737,15427z"/>
			</g>
		</g>
	</g>
</g>
</svg>
