<svg xmlns="http://www.w3.org/2000/svg" xmlns:xlink="http://www.w3.org/1999/xlink" viewBox="0 0 400 400"><defs><style>.a{fill:url(#a);}.b{font-size:59.16px;font-family:AdobeArabic-Regular, Adobe Arabic;}.b,.l{fill:#fff;}.c{fill:#00aeef;}.d,.e,.f{fill:none;stroke:#f7941d;stroke-width:0.87px;}.d,.e,.f,.g{stroke-miterlimit:10;}.e{stroke-dasharray:4.56 4.56;}.f{stroke-dasharray:4.36 4.36;}.g{fill:#5fbeed;stroke:#0e71bb;stroke-width:3.6px;}.h{fill:#156aa9;}.i{fill:#3581c3;}.j{fill:#77c1eb;}.k{fill:#2c72b8;}.m{fill:#28aae1;}</style><linearGradient id="a" x1="198.87" y1="389.04" x2="198.87" y2="74.12" gradientUnits="userSpaceOnUse"><stop offset="0" stop-color="#c6e6ff"/><stop offset="1" stop-color="#fff"/></linearGradient></defs><title>shared-host</title><path class="a" d="M382.3,218.9c-5.2,47-26.7,97.5-81,131.8l-5.5,3.4-7.7,4.4a246.4,246.4,0,0,1-36.9,16.9l-7.5,2.6-7.3,2.2a234.3,234.3,0,0,1-30.9,6.7C146,395.4,92,378,57,347.9a134,134,0,0,1-17.4-18,121.1,121.1,0,0,1-11.8-17.7c-30.5-56.3-7-123.8,42.9-140.9,54.8-18.7,80.4-2.7,144.1-55.4s127.9-58.8,153.9.1c4.4,9.9,8.4,23.1,11.2,38.3A227.3,227.3,0,0,1,382.3,218.9Z"/><text class="b" transform="translate(145.5 -48.6)">یکاتشا تساه</text><path class="c" d="M245.6,114.6a25.6,25.6,0,0,0-11.7,2.8A23.7,23.7,0,0,0,203.5,107a34.6,34.6,0,0,0-66.9,4.6,26.4,26.4,0,0,0-8.9-1.5,27.5,27.5,0,1,0,0,54.9H245.6a25.2,25.2,0,1,0,0-50.4Z"/><line class="d" x1="208.8" y1="154.6" x2="208.8" y2="156.8"/><line class="e" x1="208.8" y1="161.4" x2="208.8" y2="241.1"/><line class="d" x1="208.8" y1="243.4" x2="208.8" y2="245.6"/><line class="d" x1="165.9" y1="154.6" x2="165.9" y2="156.8"/><path class="f" d="M165.9,161.2v23.1a15.7,15.7,0,0,1-15.7,15.8H102a15.7,15.7,0,0,0-15.8,15.7v25.4"/><line class="d" x1="86.2" y1="243.4" x2="86.2" y2="245.6"/><line class="d" x1="250.3" y1="154.6" x2="250.3" y2="156.8"/><path class="f" d="M250.3,161.2v23.1A15.7,15.7,0,0,0,266,200.1h48.2A15.7,15.7,0,0,1,330,215.8v25.4"/><line class="d" x1="330" y1="243.4" x2="330" y2="245.6"/><rect class="g" x="34.1" y="258.5" width="103.7" height="60.94" rx="2.3"/><path class="h" d="M29,321.1H143.5a0,0,0,0,1,0,0v4a1.4,1.4,0,0,1-1.4,1.4H30.4a1.4,1.4,0,0,1-1.4-1.4v-4A0,0,0,0,1,29,321.1Z"/><circle class="i" cx="82.3" cy="323.8" r="1.4"/><circle class="j" cx="86" cy="323.8" r="1.4"/><circle class="k" cx="89.7" cy="323.8" r="1.4"/><circle class="l" cx="86.2" cy="289.7" r="10.1"/><path class="m" d="M94.3,288.8l-4.5-4.5-3.6,3.6h0l-3.5-3.6-4.5,4.5,3.6,3.6h0l4.4,4.4,4.5-4.4h0Zm-4.5-2.7,2.7,2.7-2.7,2.7-2.7-2.7Zm-7.1,0,2.6,2.7-2.6,2.7L80,288.8Zm3.5,9-2.6-2.7,2.6-2.7,2.7,2.7Z"/><rect class="g" x="156.9" y="258.5" width="103.7" height="60.94" rx="2.3"/><path class="h" d="M151.7,321.1H266.2a0,0,0,0,1,0,0v4a1.4,1.4,0,0,1-1.4,1.4H153.1a1.4,1.4,0,0,1-1.4-1.4v-4A0,0,0,0,1,151.7,321.1Z"/><circle class="i" cx="205.1" cy="323.8" r="1.4"/><circle class="j" cx="208.8" cy="323.8" r="1.4"/><circle class="k" cx="212.4" cy="323.8" r="1.4"/><circle class="l" cx="209" cy="289.7" r="10.1"/><path class="m" d="M217,288.8l-4.4-4.5-3.6,3.6h0l-3.6-3.6-4.5,4.5,3.6,3.6h0l4.5,4.4,4.4-4.4h0Zm-4.4-2.7,2.6,2.7-2.6,2.7-2.7-2.7Zm-7.2,0,2.7,2.7-2.7,2.7-2.7-2.7Zm3.6,9-2.7-2.7,2.7-2.7,2.7,2.7Z"/><rect class="g" x="279.6" y="258.5" width="103.7" height="60.94" rx="2.3"/><path class="h" d="M274.5,321.1H389a0,0,0,0,1,0,0v4a1.4,1.4,0,0,1-1.4,1.4H275.9a1.4,1.4,0,0,1-1.4-1.4v-4A0,0,0,0,1,274.5,321.1Z"/><circle class="i" cx="327.8" cy="323.8" r="1.4"/><circle class="j" cx="331.5" cy="323.8" r="1.4"/><circle class="k" cx="335.2" cy="323.8" r="1.4"/><circle class="l" cx="331.7" cy="289.7" r="10.1"/><path class="m" d="M339.8,288.8l-4.5-4.5-3.6,3.6h0l-3.5-3.6-4.5,4.5,3.5,3.6h0l4.5,4.4,4.5-4.4h0Zm-4.5-2.7,2.7,2.7-2.7,2.7-2.7-2.7Zm-7.2,0,2.7,2.7-2.7,2.7-2.6-2.7Zm3.6,9-2.7-2.7,2.7-2.7,2.7,2.7Z"/></svg>