<?xml version="1.0" encoding="utf-8"?>
<!-- Generator: Adobe Illustrator 22.0.1, SVG Export Plug-In . SVG Version: 6.00 Build 0)  -->
<svg version="1.1" id="Layer_1" xmlns="http://www.w3.org/2000/svg" xmlns:xlink="http://www.w3.org/1999/xlink" x="0px" y="0px"
	 viewBox="0 0 60 60" enable-background="new 0 0 60 60" xml:space="preserve">
<g>
	<g id="Group_5381" transform="translate(-15367 -17856.795)">
		<path fill="#FFFFFF" d="M15420.1,17886.8c0-12.7-10.3-23-23-23s-23,10.3-23,23s10.3,23,23,23S15420.1,17899.5,15420.1,17886.8z
			 M15397.1,17900.1c-7.3,0-13.3-6-13.3-13.3s6-13.3,13.3-13.3s13.3,6,13.3,13.3l0,0
			C15410.4,17894.1,15404.4,17900.1,15397.1,17900.1z"/>
		<path fill="#137FCF" d="M15422.1,17886.8c0-4.2-1-8.1-2.9-11.6l0.6-0.4l-0.5-0.9c-0.9-1.6-2.1-3.1-3.3-4.5l0.6-0.6
			c0.4-0.5,0.4-1.2,0-1.6s-1.1-0.4-1.6,0l-0.6,0.6c-1.4-1.3-2.9-2.4-4.5-3.3l-0.9-0.5l-0.4,0.6c-3.5-1.8-7.4-2.9-11.6-2.9
			s-8.1,1-11.6,2.9l-0.4-0.6l-0.9,0.5c-1.6,0.9-3.1,2.1-4.5,3.3l-0.6-0.6c-0.4-0.4-1.2-0.4-1.6,0c-0.4,0.4-0.4,1.2,0,1.6l0.6,0.6
			c-1.3,1.4-2.4,2.9-3.3,4.5l-0.5,0.9l0.6,0.4c-1.8,3.5-2.9,7.4-2.9,11.6s1,8.1,2.9,11.6l-0.6,0.4l0.5,0.9c0.9,1.6,2.1,3.1,3.3,4.5
			l-0.6,0.6c-0.4,0.4-0.4,1.2,0,1.6s1.2,0.4,1.6,0l0.6-0.6c1.4,1.3,2.9,2.4,4.5,3.3l0.9,0.5l0.4-0.6c3.5,1.8,7.4,2.9,11.6,2.9
			c4.2,0,8.1-1,11.6-2.9l0.4,0.6l0.9-0.5c1.6-0.9,3.1-2.1,4.5-3.3l0.6,0.6c0.4,0.4,1.2,0.4,1.6,0c0.4-0.4,0.4-1.2,0-1.6l-0.6-0.6
			c1.3-1.4,2.4-2.9,3.3-4.5l0.5-0.9l-0.6-0.4C15421.1,17894.9,15422.1,17891,15422.1,17886.8z M15409.4,17867.4c2.8,1.8,5.2,4.2,7,7
			l-7,4.1c-1.1-1.6-2.5-3-4.1-4.1L15409.4,17867.4z M15402.6,17898.4c-1.7,0.8-3.6,1.3-5.5,1.3c-2,0-3.9-0.5-5.5-1.3l0.3-0.4
			l-0.9-0.5c-1.9-1.1-3.4-2.6-4.5-4.5l-0.5-0.9l-0.4,0.3c-0.8-1.7-1.3-3.6-1.3-5.5s0.5-3.9,1.3-5.5l0.4,0.3l0.5-0.9
			c1.1-1.9,2.6-3.4,4.5-4.5l0.9-0.5l-0.3-0.4c1.7-0.8,3.6-1.3,5.5-1.3c2,0,3.9,0.5,5.5,1.3l-0.3,0.4l0.9,0.5
			c1.9,1.1,3.4,2.6,4.5,4.5l0.5,0.9l0.4-0.3c0.8,1.7,1.3,3.6,1.3,5.5s-0.5,3.9-1.3,5.5l-0.4-0.3l-0.5,0.9c-1.1,1.9-2.6,3.4-4.5,4.5
			l-0.9,0.5L15402.6,17898.4z M15397.1,17863.8c3.8,0,7.4,0.9,10.6,2.6l-4.1,7.1c-2-1-4.2-1.5-6.5-1.5c-2.4,0-4.6,0.6-6.5,1.5
			l-4.1-7.1C15389.7,17864.7,15393.3,17863.8,15397.1,17863.8z M15384.8,17867.4l4.1,7c-1.6,1.1-3,2.5-4.1,4.1l-7-4.1
			C15379.5,17871.6,15381.9,17869.2,15384.8,17867.4z M15374.1,17886.8c0-3.8,0.9-7.4,2.6-10.6l7.1,4.1c-1,2-1.5,4.2-1.5,6.5
			c0,2.4,0.6,4.6,1.5,6.5l-7.1,4.1C15375,17894.2,15374.1,17890.6,15374.1,17886.8z M15384.8,17906.2c-2.8-1.8-5.2-4.2-7-7l7-4.1
			c1.1,1.6,2.5,3,4.1,4.1L15384.8,17906.2z M15397.1,17909.8c-3.8,0-7.4-0.9-10.6-2.6l4.1-7.1c2,1,4.2,1.5,6.5,1.5
			c2.4,0,4.6-0.6,6.5-1.5l4.1,7.1C15404.5,17908.8,15400.9,17909.8,15397.1,17909.8z M15409.5,17906.2l-4.1-7c1.6-1.1,3-2.5,4.1-4.1
			l7,4.1C15414.7,17902,15412.3,17904.4,15409.5,17906.2z M15410.4,17893.3c1-2,1.5-4.2,1.5-6.5c0-2.4-0.6-4.6-1.5-6.5l7.1-4.1
			c1.7,3.2,2.6,6.8,2.6,10.6c0,3.8-0.9,7.4-2.6,10.6L15410.4,17893.3z"/>
		<path fill="#D6EEFF" d="M15405.1,17874.9c0.6,0.4,1.3,1,2.1,1.7c0.8,0.8,1.4,1.5,1.8,2.2c2.7-1.6,5.4-3.1,8.1-4.7
			c-0.8-1.2-1.8-2.7-3.3-4.1c-1.4-1.4-2.8-2.4-4-3.2C15408.2,17869.5,15406.7,17872.2,15405.1,17874.9z"/>
		<path fill="#D6EEFF" d="M15385.2,17894.8c-2.7,1.6-5.4,3.1-8.1,4.7c0.7,1.1,1.7,2.5,3.1,3.9c1.5,1.5,3,2.6,4.2,3.4
			c1.6-2.7,3.1-5.4,4.7-8.1c-0.6-0.4-1.4-1-2.1-1.8C15386.2,17896.2,15385.7,17895.4,15385.2,17894.8z"/>
		<path fill="#D6EEFF" d="M15389.1,17874.9c-1.6-2.7-3.1-5.4-4.7-8.1c-1.2,0.7-2.5,1.8-4,3.2c-1.5,1.5-2.6,2.9-3.3,4.1
			c2.7,1.6,5.4,3.1,8.1,4.7c0.4-0.6,1-1.3,1.7-2.1C15387.7,17876,15388.5,17875.4,15389.1,17874.9z"/>
		<path fill="#D6EEFF" d="M15417.1,17899.5c-2.7-1.6-5.4-3.1-8.1-4.7c-0.4,0.6-0.9,1.3-1.6,2c-0.8,0.8-1.6,1.4-2.2,1.9
			c1.6,2.7,3.1,5.4,4.7,8.1c1.2-0.7,2.6-1.8,4-3.2C15415.3,17902.1,15416.4,17900.7,15417.1,17899.5z"/>
	</g>
</g>
</svg>
