<svg xmlns="http://www.w3.org/2000/svg" xmlns:xlink="http://www.w3.org/1999/xlink" viewBox="0 0 400 400"><defs><style>.a{isolation:isolate;}.b{fill:url(#a);}.c{fill:url(#b);}.d{fill:url(#c);}.e{fill:url(#d);}.f{fill:url(#e);}.g{fill:url(#f);}.h{fill:url(#g);}.i{fill:#0e71bb;}.j{fill:url(#h);}.k{fill:url(#i);}.l{fill:url(#j);}.m{fill:url(#k);}.n{fill:#288ed9;}.o{fill:#ffc38a;}.p{fill:#1f364c;}.q{fill:url(#l);}.r{fill:#21e2e2;}.s{fill:url(#m);}.t{fill:#f0d2b9;}.u{fill:#005b9f;}.v{fill:url(#n);}.w{fill:url(#o);}.x{fill:url(#p);}.y{fill:#ffe7cb;}.z{fill:#52acea;}.aa{fill:#ffbc98;}.ab,.ac,.ae{fill:none;}.ac{stroke:#ffbc98;}.ac,.ae{stroke-width:0.39px;}.ad{fill:#80c9ff;}.ae{stroke:#21e2e2;}.af{fill:#137fcf;}.ag{fill:#d6eeff;}.ah,.aj{fill:#fff;}.ai{fill:url(#q);}.aj{opacity:0.57;mix-blend-mode:overlay;}.ak{fill:url(#r);}.al{fill:url(#s);}.am{fill:url(#t);}.an{fill:url(#u);}.ao{fill:url(#v);}.ap{fill:#00c1bc;}.aq{fill:#4987ce;}</style><linearGradient id="a" x1="19.32" y1="197.37" x2="386.97" y2="197.37" gradientUnits="userSpaceOnUse"><stop offset="0" stop-color="#c6e6ff"/><stop offset="1" stop-color="#fff"/></linearGradient><linearGradient id="b" x1="-6781.61" y1="167.74" x2="-6781.61" y2="173.61" gradientTransform="matrix(1, 0, 0, -1, 7028.54, 341.36)" gradientUnits="userSpaceOnUse"><stop offset="0" stop-color="#f9fbfc"/><stop offset="0.3" stop-color="#f5f8fc"/><stop offset="0.6" stop-color="#e9effd"/><stop offset="0.91" stop-color="#d4e0fe"/><stop offset="1" stop-color="#cddbff"/></linearGradient><linearGradient id="c" x1="-6811.89" y1="282.56" x2="-6752.4" y2="282.56" gradientTransform="matrix(1, 0, 0, -1, 7029.62, 565.13)" gradientUnits="userSpaceOnUse"><stop offset="0" stop-color="#07154b"/><stop offset="0.26" stop-color="#0c174e"/><stop offset="0.58" stop-color="#1b1d57"/><stop offset="0.93" stop-color="#332767"/><stop offset="1" stop-color="#39296a"/></linearGradient><linearGradient id="d" x1="-6786.87" y1="290.6" x2="-6777.41" y2="290.6" gradientTransform="matrix(1, 0, 0, -1, 7029.62, 581.21)" xlink:href="#c"/><linearGradient id="e" x1="-6784.02" y1="301.06" x2="-6780.26" y2="301.06" gradientTransform="matrix(1, 0, 0, -1, 7029.62, 602.12)" xlink:href="#c"/><linearGradient id="f" x1="-6784.55" y1="320.44" x2="-6779.73" y2="320.44" gradientTransform="matrix(1, 0, 0, -1, 7029.62, 640.88)" xlink:href="#c"/><linearGradient id="g" x1="-6790.68" y1="287.07" x2="-6773.6" y2="287.07" gradientTransform="matrix(-1, 0, 0, 1, -6534.67, 0)" xlink:href="#c"/><linearGradient id="h" x1="-6807.61" y1="332.85" x2="-6783.5" y2="332.85" gradientTransform="matrix(-1, 0, 0, 1, -6534.67, 0)" xlink:href="#c"/><linearGradient id="i" x1="-6806.67" y1="340.92" x2="-6800.72" y2="340.92" gradientTransform="matrix(-1, 0, 0, 1, -6534.67, 0)" xlink:href="#c"/><linearGradient id="j" x1="-6780.79" y1="332.85" x2="-6756.68" y2="332.85" gradientTransform="matrix(-1, 0, 0, 1, -6534.67, 0)" xlink:href="#c"/><linearGradient id="k" x1="-6763.56" y1="340.92" x2="-6757.61" y2="340.92" gradientTransform="matrix(-1, 0, 0, 1, -6534.67, 0)" xlink:href="#c"/><linearGradient id="l" x1="-6736.21" y1="343.86" x2="-6736.21" y2="309.69" gradientTransform="matrix(-1, 0, 0, 1, -6534.67, 0)" gradientUnits="userSpaceOnUse"><stop offset="0" stop-color="#ffd1c1"/><stop offset="0.28" stop-color="#ffcebe"/><stop offset="0.51" stop-color="#ffc6b4"/><stop offset="0.72" stop-color="#ffb8a2"/><stop offset="0.92" stop-color="#ffa48b"/><stop offset="1" stop-color="#ff9a7f"/></linearGradient><linearGradient id="m" x1="-6828.08" y1="343.86" x2="-6828.08" y2="309.69" xlink:href="#l"/><linearGradient id="n" x1="-6854.25" y1="289.57" x2="-6844.07" y2="289.57" gradientTransform="matrix(-1, 0, 0, 1, -6534.67, 0)" xlink:href="#c"/><linearGradient id="o" x1="-6631.09" y1="289.57" x2="-6620.91" y2="289.57" gradientTransform="matrix(-1, 0, 0, 1, -6534.67, 0)" xlink:href="#c"/><linearGradient id="p" x1="-6737.58" y1="218.68" x2="-6737.58" y2="242.13" gradientTransform="matrix(1, 0, 0, -1, 6940.49, 463.58)" gradientUnits="userSpaceOnUse"><stop offset="0" stop-color="#f4f3f1"/><stop offset="0.74" stop-color="#9d9d9f"/><stop offset="1" stop-color="#7d7e81"/></linearGradient><linearGradient id="q" x1="-6264.45" y1="-496.81" x2="-6286.62" y2="-535.21" gradientTransform="matrix(-1, 0.06, -0.06, -1, -6216.04, 159.92)" gradientUnits="userSpaceOnUse"><stop offset="0" stop-color="#419ee3"/><stop offset="1" stop-color="#0d79c9"/></linearGradient><linearGradient id="r" x1="121.45" y1="-100.05" x2="137.63" y2="-90.3" gradientTransform="translate(-48.9 368.4) rotate(7.1)" gradientUnits="userSpaceOnUse"><stop offset="0" stop-color="#ffbc98"/><stop offset="1" stop-color="#ff9f6c"/></linearGradient><linearGradient id="s" x1="97.42" y1="11.93" x2="68.12" y2="-38.81" gradientTransform="translate(-34.5 288.6) rotate(5.5)" gradientUnits="userSpaceOnUse"><stop offset="0" stop-color="#44989f"/><stop offset="0.21" stop-color="#39b0b4"/><stop offset="0.52" stop-color="#2ccbcd"/><stop offset="0.8" stop-color="#24dcdd"/><stop offset="1" stop-color="#21e2e2"/></linearGradient><linearGradient id="t" x1="107.75" y1="-0.7" x2="73.79" y2="-59.51" gradientTransform="translate(-34.5 288.6) rotate(5.5)" xlink:href="#q"/><linearGradient id="u" x1="129.9" y1="-62.36" x2="104.37" y2="-106.58" gradientTransform="matrix(0.99, 0.16, -0.16, 0.99, -55.19, 341.75)" xlink:href="#s"/><linearGradient id="v" x1="69.93" y1="309.18" x2="69.93" y2="402.28" gradientTransform="matrix(1, 0, 0, 1, 0, 0)" xlink:href="#r"/></defs><title>windows-host</title><g class="a"><path class="b" d="M81.9,343.5c-49.9,0-79.9-55.9-51.7-97,.6-.9,1.3-1.8,1.9-2.8C74.3,184.9,47.6,173,82,104.9s121.3-76.1,160,3.7c10.6,21.7,47.2,51,73.2,67,21,13,70.2,22.8,71.8,101a84.4,84.4,0,0,1-1.6,16.3,62.1,62.1,0,0,1-61.2,50.6Z"/><rect class="c" x="237.4" y="167.7" width="19.1" height="5.87" transform="translate(493.9 341.4) rotate(180)"/><rect class="d" x="217.7" y="280.1" width="59.5" height="4.89" transform="translate(494.9 565.1) rotate(180)"/><rect class="e" x="242.7" y="289.1" width="9.5" height="2.96" transform="translate(494.9 581.2) rotate(180)"/><rect class="f" x="245.6" y="292.1" width="3.8" height="17.95" transform="translate(494.9 602.1) rotate(180)"/><rect class="g" x="245.1" y="310" width="4.8" height="20.81" transform="translate(494.9 640.9) rotate(180)"/><polygon class="h" points="245 285 249.9 285 256 285 253.5 289.1 249.9 289.1 245 289.1 241.4 289.1 238.9 285 245 285"/><path class="i" d="M250.4,263.2h-5.9c-9.8.5-29.5,3.1-25.8,16.9h57.5C279.9,266.3,260.2,263.7,250.4,263.2Z"/><path class="j" d="M248.8,329.8l24.1,10.9a6.1,6.1,0,0,0-1.3-4.2c-1.7-2-14.1-7.7-22.8-11.5Z"/><circle class="k" cx="269" cy="340.9" r="3"/><path class="l" d="M246.1,325c-8.7,3.8-21.1,9.5-22.7,11.5a6.2,6.2,0,0,0-1.4,4.2l24.1-10.9Z"/><circle class="m" cx="225.9" cy="340.9" r="3"/><path class="n" d="M204.9,211.7a65,65,0,0,1,2.5-6.1h0s9.3-26.4,16.1-28.8l7.6-1.7-4.3,30.5h-5.9c-2,4.3-4.1,8.6-6.3,12.7-1.1,2.1-2.2,4.3-4.1,5.7s-5,1.5-6.4-.5a6.5,6.5,0,0,1-1-3.9A26.7,26.7,0,0,1,204.9,211.7Z"/><path class="n" d="M262.9,175.1c.5,0,7.5,1.6,7.7,1.7,6.8,2.4,17.1,31.1,17.1,31.1h0l1.5,3.8a23.8,23.8,0,0,1,1.7,7.9,5.8,5.8,0,0,1-.9,3.9c-1.4,2-4.5,1.9-6.5.5s-2.6-3.8-4-5.7a64.9,64.9,0,0,1-7.4-12.2l-4.9-.5Z"/><path class="o" d="M217.9,330.1c0-.3-.1-.5-.1-.8S217.9,329.9,217.9,330.1Z"/><path class="o" d="M199.8,335.3h0Z"/><path class="o" d="M200.3,335.2l.3-.2Z"/><path class="o" d="M195.7,334.5l-.3-.2Z"/><path class="o" d="M195.1,334h0Z"/><path class="p" d="M199,255.6l.3-.7c1.5-3.1,5.5-4.4,8.3-5.7,4.8-2.1,9.7-3.8,14.5-5.8s12.4-4.6,18.8-3.6a16.5,16.5,0,0,1,6.6,2.7,15.9,15.9,0,0,1,6.6-2.7c6.4-1,12.8,1.2,18.7,3.6s9.8,3.7,14.5,5.8c2.8,1.3,6.9,2.6,8.4,5.7a1.4,1.4,0,0,1,.2.7c1,2.9-.3,6.1-1.7,8.6s-3.4,5.8-5.1,6.2c-7.1,1.6-14.5,1.4-21.6.5-4.4-.6-8.7-1.4-13-2.3a64.6,64.6,0,0,1-7-1.7,64.6,64.6,0,0,1-7,1.7c-4.3.9-8.6,1.7-13,2.3-7.2.9-14.5,1.1-21.6-.5-1.8-.4-4.3-4.7-5.1-6.2S198.1,258.5,199,255.6Z"/><path class="n" d="M247,171.1h.1c11.6.1,23.5,7.2,23.5,7.2s-.1,2.2-.2,3.3c-.4,8.4-.8,16.7-1.3,25.1-.2,5.1-.5,10.2-.8,15.3s-.8,10.2.5,15.6c.4,1.6.9,3.4.3,4.9a5.3,5.3,0,0,1-2.4,2.5c-1.7,1-3.5,2.1-5.4,3-8.9,4.2-18.7,2.6-28,.4-3-.7-6.2-1.6-8.2-4.6a8.9,8.9,0,0,1-.8-1.7,9.8,9.8,0,0,1,.5-4.5c.3-1.3.5-2.7.7-4,.8-6,.2-12.3-.1-18.4l-.9-17.3c-.4-6.5-.7-13-1-19.6C223.5,178.3,235.4,171.2,247,171.1Z"/><path class="q" d="M186.4,338.5h0l1.1-1-.4.2.4-.2a11.7,11.7,0,0,1,2.8-1.7l.9-.5,3.1-1.7c0-.1.1-.1.1-.2h0c.6-.6,10.8-11.7,11.3-12.7.9-4.1.2-10.2.2-10.2l8.5-.7s-1.2,7.5,0,13.2a17.3,17.3,0,0,1,1.4,2c0,.1,0,.2.1.2h-.1c1.2.5,2,4.1,2.1,5.3a4.1,4.1,0,0,1,0,1.9,3.5,3.5,0,0,1-2.1,2,52.2,52.2,0,0,1-5.4,2.4c-3.3,1.6-6.5,3.6-10,4.9s-8,1.5-12,2.1c-1,.2-2.7.1-3.2-1.1S185.7,339.5,186.4,338.5Z"/><path class="r" d="M185.1,342.2a.9.9,0,0,0,.1.5,2.3,2.3,0,0,0,2.1,1.2h1.1l6.1-.7,2.2-.4.8-.2,1.4-.3.8-.2.7-.3,2.5-1.1,3.2-1.6,4.3-2.2,1.4-.6,1.3-.5a22.4,22.4,0,0,0,2.7-1.3,4,4,0,0,0,1.5-1l.2-.3a1.6,1.6,0,0,0,.4-.7,1.5,1.5,0,0,0,.1-.7v-.2a3.1,3.1,0,0,0-.1-1,5.5,5.5,0,0,0-.3-1.6.9.9,0,0,0-.1-.5,1.9,1.9,0,0,0-.2-.7c-.1-.2-.1-.4-.2-.6l-.3-.7v-.3c-.4-.7-.9-1.2-1.3-1.8l-.6-.8c-3.1,2.9-9.2,3.6-12.1.5-3.2,3.7-7.8,8.8-8.3,9.3h0c-.1,0-.1,0-.1.1l-3.1,1.7-.9.5-.7.3a.1.1,0,0,0-.1.1l-.6.3a7.1,7.1,0,0,0-1.4,1l-.4.2.4-.2-.4.3c-.1.1-.1.2-.2.2s-.1.1-.1.2l-.4.3h0c-.1.1-.1.2-.2.2h0l-.2.3-.6,1.2a.4.4,0,0,1-.1.3c0,.2-.1.4-.1.6a1.3,1.3,0,0,0-.1.6.4.4,0,0,0,0,.5Zm9.2-8.7h0l-2.2,1.3H192l-.7.4Z"/><path class="p" d="M200.5,254.9s-2.2,0-1.7,6.2,4.6,62.2,4.6,62.2l12.1.4s4.8-43.3-3.1-64.2C212.4,259.5,208.2,250.2,200.5,254.9Z"/><path class="s" d="M308.6,338.5a.1.1,0,0,1-.1-.1,5.2,5.2,0,0,0-1.1-1l.5.2-.5-.2a11.1,11.1,0,0,0-2.7-1.7l-1-.5-3-1.7-.2-.2h0c-.6-.6-10.8-11.7-11.3-12.7-.9-4.1-.2-10.2-.2-10.2l-8.4-.7s1.2,7.5,0,13.2a7.2,7.2,0,0,0-1.4,2,.3.3,0,0,1-.1.2h0c-1.2.5-1.9,4.1-2.1,5.3a4.1,4.1,0,0,0,.1,1.9,3.6,3.6,0,0,0,2,2c1.8,1,3.7,1.6,5.5,2.4a103,103,0,0,0,10,4.9c3.8,1.4,7.9,1.5,11.9,2.1,1.1.2,2.7.1,3.3-1.1S309.3,339.5,308.6,338.5Z"/><path class="o" d="M277.1,330.1a2.2,2.2,0,0,1,.1-.8A2.5,2.5,0,0,0,277.1,330.1Z"/><path class="o" d="M295.1,335.3h0Z"/><path class="o" d="M294.7,335.2l-.4-.2Z"/><path class="o" d="M299.3,334.5l.2-.2Z"/><path class="o" d="M299.8,334a.1.1,0,0,1-.1.1A.1.1,0,0,0,299.8,334Z"/><path class="r" d="M309.9,342.2v-.5c0-.2-.1-.4-.1-.6a1.4,1.4,0,0,0-.2-.6.4.4,0,0,0-.1-.3,6.7,6.7,0,0,0-.6-1.2c0-.1-.1-.2-.2-.3h0a.3.3,0,0,1-.1-.2.1.1,0,0,1-.1-.1l-.3-.3-.2-.2a.3.3,0,0,1-.1-.2l-.5-.3.5.2-.5-.2-1.3-1-.7-.3c0-.1,0-.1-.1-.1l-.6-.3-1-.5-3-1.7h-.2c-.4-.5-5.1-5.6-8.2-9.3-2.9,3.1-9.1,2.4-12.2-.5.1,0-.5.7-.5.8s-.9,1.1-1.3,1.8l-.2.3-.3.7a1.4,1.4,0,0,1-.2.6,1.9,1.9,0,0,1-.2.7.9.9,0,0,1-.1.5c-.1.6-.2,1.2-.3,1.6s-.1.6-.1,1v.2a1.4,1.4,0,0,0,.2.7,1.5,1.5,0,0,0,.3.7l.2.3a4.9,4.9,0,0,0,1.5,1l2.7,1.3,1.4.5,1.4.6,4.3,2.2,3.1,1.6,2.6,1.1.7.3.7.2,1.4.3.8.2,2.3.4,6,.7h1.1a2.6,2.6,0,0,0,2.2-1.2c0-.2.1-.3.1-.5Zm-6.2-7-.8-.4h0l-2.2-1.3h0Z"/><path class="p" d="M294.5,254.9s2.2,0,1.6,6.2-3,63.9-3,63.9l-14.9.7s-3.5-45.3,4.3-66.2C282.5,259.5,286.8,250.2,294.5,254.9Z"/><path class="n" d="M246,218.1c.3-.9-.3-1.5-.2-2.4a3.4,3.4,0,0,1,1-1.6c.7-.7.2-1.3,0-2.2s1.1-1.2,1.3-1.4a16.6,16.6,0,0,0,1.3-1.4c.5-.8,0-1.4-.5-2l-6.5,2.2c.4-.7,1.1-2.2,1.6-3.3s-1.1-1.8-1.1-1.8a7.3,7.3,0,0,1-1.7,2.8l-2.2,1.7h0l-3.3,2.8-3.6,1.8s-20.8-1.2-24.7,1.6c-1.7,1.2-3.9,3.3-4.2,5.5-.6,4.2,3.8,6,7,6.4s8.3-1.8,12.3-3.2l4.9-1.7c1.5-.4,3.4-1.4,5-1.5l12-.4C245.1,219.9,245.8,218.8,246,218.1Z"/><path class="n" d="M248.1,218.1c-.4-.9.3-1.5.2-2.4a3.4,3.4,0,0,0-1-1.6c-.7-.7-.2-1.3,0-2.2s-1.1-1.2-1.3-1.4l-1.4-1.4c-.5-.8.1-1.4.6-2l6.5,2.2c-.4-.7-1.1-2.2-1.6-3.3s1.1-1.8,1.1-1.8a7.3,7.3,0,0,0,1.7,2.8l2.1,1.7h0l3.3,2.8,3.7,1.8s20.8-1.2,24.7,1.6c1.7,1.2,3.9,3.3,4.2,5.5.5,4.2-3.9,6-7.1,6.4s-8.2-1.8-12.2-3.2l-5-1.7c-1.5-.4-3.4-1.4-4.9-1.5l-12-.4C248.9,219.9,248.3,218.8,248.1,218.1Z"/><path class="t" d="M255.7,161.1l-1,11.5s-4,6.7-15.3,0l-1-8.5Z"/><rect class="u" x="220.1" y="196.2" width="52.4" height="29.5" transform="translate(492.6 421.9) rotate(180)"/><polygon class="v" points="319.6 343.1 319.6 343.9 315.4 343.9 309.4 235.2 315.3 235.2 319.6 343.1"/><polygon class="w" points="90.5 235.2 96.4 235.2 90.4 343.9 86.2 343.9 90.5 235.2"/><rect class="x" x="83.5" y="225.7" width="238.8" height="12.24" transform="translate(405.8 463.6) rotate(180)"/><path class="y" d="M255.8,142.4l.4,5.8.6,8.9.2,2.5c-6,9.5-15.4,10.2-18.3,6.8s-3.7-21.7-3.7-21.7Z"/><path class="i" d="M254.8,142.3l-.8,11.6,3.1-3.7-1.8,17.9s12.9-15.8,9.8-24l-1.3-1.1s4.4-7.4-9-9-24.2-1.9-24.2,3.8a28.3,28.3,0,0,0,1.1,9.1Z"/><path class="y" d="M260.7,151.4c1.3,2.4-.1,6.9-5,7.9l1-8.2A2.5,2.5,0,0,1,260.7,151.4Z"/><polygon class="i" points="258.4 144.3 244.9 145.9 251.5 139.9 258.4 144.3"/><rect class="p" x="104.8" y="183.4" width="77.7" height="6.04"/><path class="i" d="M104,167.1h79.5c1.5,0,2.8.9,2.8,2.1v13.2c0,1.1-1.3,2-2.8,2H104c-1.5,0-2.8-.9-2.8-2V169.2C101.2,168,102.5,167.1,104,167.1Z"/><path class="u" d="M102.4,167.1h27.5v17.3H102.4a1.2,1.2,0,0,1-1.2-1.2V168.3A1.2,1.2,0,0,1,102.4,167.1Z"/><path class="z" d="M154.8,173.3h0a.9.9,0,0,1,.9.9h0a.9.9,0,0,1-.9.9h0a.9.9,0,0,1-.9-.9h0A.9.9,0,0,1,154.8,173.3Z"/><path class="r" d="M157,176.9h0a.9.9,0,0,1,.9.9h0a.9.9,0,0,1-.9.9h0a.9.9,0,0,1-.9-.9h0A.9.9,0,0,1,157,176.9Z"/><path class="z" d="M158.4,173.3h0a.9.9,0,0,1,.9.9h0a.9.9,0,0,1-.9.9h0a.9.9,0,0,1-.9-.9h0A.9.9,0,0,1,158.4,173.3Z"/><path class="z" d="M160.6,176.9h0a.9.9,0,0,1,.9.9h0a.9.9,0,0,1-.9.9h0a.9.9,0,0,1-.9-.9h0A.9.9,0,0,1,160.6,176.9Z"/><path class="aa" d="M162,173.3h0a.9.9,0,0,1,.9.9h0a.9.9,0,0,1-.9.9h0a.9.9,0,0,1-.9-.9h0A.9.9,0,0,1,162,173.3Z"/><path class="z" d="M164.2,176.9h0a.9.9,0,0,1,.9.9h0a.9.9,0,0,1-.9.9h0a.9.9,0,0,1-.9-.9h0A.9.9,0,0,1,164.2,176.9Z"/><path class="z" d="M165.6,173.3h0a.9.9,0,0,1,.9.9h0a.9.9,0,0,1-.9.9h0a.9.9,0,0,1-.9-.9h0A.9.9,0,0,1,165.6,173.3Z"/><path class="r" d="M167.8,176.9h0a.9.9,0,0,1,.9.9h0a.9.9,0,0,1-.9.9h0a.9.9,0,0,1-.9-.9h0A.9.9,0,0,1,167.8,176.9Z"/><path class="z" d="M169.2,173.3h0a.9.9,0,0,1,.9.9h0a.9.9,0,0,1-.9.9h0a.9.9,0,0,1-.9-.9h0A.9.9,0,0,1,169.2,173.3Z"/><path class="z" d="M171.4,176.9h0a.9.9,0,0,1,.9.9h0a.9.9,0,0,1-.9.9h0a.9.9,0,0,1-.9-.9h0A.9.9,0,0,1,171.4,176.9Z"/><circle class="ab" cx="177.7" cy="175.9" r="1.5"/><circle class="ac" cx="177.7" cy="175.9" r="1.2"/><path class="z" d="M150.6,172.6h0a.7.7,0,0,1,.7.7v5.1a.7.7,0,0,1-.7.7h0a.7.7,0,0,1-.7-.7v-5.1A.7.7,0,0,1,150.6,172.6Z"/><path class="z" d="M147.9,172.6h0a.7.7,0,0,1,.7.7v5.1a.7.7,0,0,1-.7.7h0a.7.7,0,0,1-.7-.7v-5.1A.7.7,0,0,1,147.9,172.6Z"/><rect class="u" x="134.2" y="172.6" width="10.9" height="2.73"/><rect class="u" x="134.2" y="176.4" width="10.9" height="2.73"/><path class="aa" d="M149.9,174h1.4v4.4a.7.7,0,0,1-.7.7h0a.7.7,0,0,1-.7-.7V174Z"/><path class="r" d="M147.2,176.6h1.4v1.8a.7.7,0,0,1-.7.7h0a.7.7,0,0,1-.7-.7h0v-1.8Z"/><rect class="ad" x="134.2" y="172.6" width="2.7" height="2.73"/><rect class="ad" x="134.2" y="176.4" width="2.7" height="2.73"/><rect class="n" x="138.3" y="173.7" width="5.5" height="0.68"/><rect class="n" x="138.3" y="177.4" width="5.5" height="0.68"/><circle class="ab" cx="177.7" cy="175.9" r="3.2"/><circle class="ae" cx="177.7" cy="175.9" r="2.9"/><path class="n" d="M122.2,178.5h0a1.1,1.1,0,0,1,1.1,1.1h0a1.1,1.1,0,0,1-1.1,1.1h0a1.1,1.1,0,0,1-1.2-1.1h0A1.1,1.1,0,0,1,122.2,178.5Z"/><path class="af" d="M122.2,171.9h0a.5.5,0,0,1,.5.5v4.5a.5.5,0,0,1-.5.5h0a.5.5,0,0,1-.5-.5v-4.5A.5.5,0,0,1,122.2,171.9Z"/><path class="ag" d="M118.7,178.5h0a1.1,1.1,0,0,1,1.2,1.1h0a1.1,1.1,0,0,1-1.2,1.1h0a1.1,1.1,0,0,1-1.1-1.1h0A1.1,1.1,0,0,1,118.7,178.5Z"/><path class="ah" d="M118.8,174h0a.5.5,0,0,1,.5.5v2.4a.5.5,0,0,1-.5.5h0a.5.5,0,0,1-.5-.5v-2.4A.5.5,0,0,1,118.8,174Z"/><path class="n" d="M115.3,178.5h0a1.1,1.1,0,0,1,1.2,1.1h0a1.1,1.1,0,0,1-1.2,1.1h0a1.1,1.1,0,0,1-1.1-1.1h0A1.1,1.1,0,0,1,115.3,178.5Z"/><path class="af" d="M115.4,171.1h0a.5.5,0,0,1,.5.5v5.3a.5.5,0,0,1-.5.5h0a.5.5,0,0,1-.5-.5v-5.3A.5.5,0,0,1,115.4,171.1Z"/><path class="aa" d="M111.9,178.5h0a1.1,1.1,0,0,1,1.2,1.1h0a1.1,1.1,0,0,1-1.2,1.1h0a1.1,1.1,0,0,1-1.1-1.1h0A1.1,1.1,0,0,1,111.9,178.5Z"/><path class="aa" d="M112,172.4h0a.5.5,0,0,1,.5.5v4a.5.5,0,0,1-.5.5h0a.5.5,0,0,1-.5-.5v-4A.5.5,0,0,1,112,172.4Z"/><path class="r" d="M108.5,178.5h0a1.1,1.1,0,0,1,1.1,1.1h0a1.1,1.1,0,0,1-1.1,1.1h0a1.1,1.1,0,0,1-1.1-1.1h0A1.1,1.1,0,0,1,108.5,178.5Z"/><path class="r" d="M108.6,174.6h0a.6.6,0,0,1,.5.6v1.7a.5.5,0,0,1-.5.5h0a.5.5,0,0,1-.5-.5v-1.7A.6.6,0,0,1,108.6,174.6Z"/><rect class="p" x="104.8" y="204" width="77.7" height="6.04"/><path class="i" d="M104,187.7h79.5c1.5,0,2.8,1,2.8,2.1V203c0,1.1-1.3,2.1-2.8,2.1H104c-1.5,0-2.8-1-2.8-2.1V189.8C101.2,188.7,102.5,187.7,104,187.7Z"/><path class="u" d="M102.4,187.7h27.5v17.4H102.4a1.2,1.2,0,0,1-1.2-1.3V189A1.2,1.2,0,0,1,102.4,187.7Z"/><path class="z" d="M154.8,193.9h0a.9.9,0,0,1,.9.9h0a.9.9,0,0,1-.9.9h0a.9.9,0,0,1-.9-.9h0A.9.9,0,0,1,154.8,193.9Z"/><path class="r" d="M157,197.5h0a.9.9,0,0,1,.9.9h0a.9.9,0,0,1-.9.9h0a.9.9,0,0,1-.9-.9h0A.9.9,0,0,1,157,197.5Z"/><path class="z" d="M158.4,193.9h0a.9.9,0,0,1,.9.9h0a.9.9,0,0,1-.9.9h0a.9.9,0,0,1-.9-.9h0A.9.9,0,0,1,158.4,193.9Z"/><path class="z" d="M160.6,197.5h0a.9.9,0,0,1,.9.9h0a.9.9,0,0,1-.9.9h0a.9.9,0,0,1-.9-.9h0A.9.9,0,0,1,160.6,197.5Z"/><path class="aa" d="M162,193.9h0a.9.9,0,0,1,.9.9h0a.9.9,0,0,1-.9.9h0a.9.9,0,0,1-.9-.9h0A.9.9,0,0,1,162,193.9Z"/><path class="z" d="M164.2,197.5h0a.9.9,0,0,1,.9.9h0a.9.9,0,0,1-.9.9h0a.9.9,0,0,1-.9-.9h0A.9.9,0,0,1,164.2,197.5Z"/><path class="z" d="M165.6,193.9h0a.9.9,0,0,1,.9.9h0a.9.9,0,0,1-.9.9h0a.9.9,0,0,1-.9-.9h0A.9.9,0,0,1,165.6,193.9Z"/><path class="r" d="M167.8,197.5h0a.9.9,0,0,1,.9.9h0a.9.9,0,0,1-.9.9h0a.9.9,0,0,1-.9-.9h0A.9.9,0,0,1,167.8,197.5Z"/><path class="z" d="M169.2,193.9h0a.9.9,0,0,1,.9.9h0a.9.9,0,0,1-.9.9h0a.9.9,0,0,1-.9-.9h0A.9.9,0,0,1,169.2,193.9Z"/><path class="z" d="M171.4,197.5h0a.9.9,0,0,1,.9.9h0a.9.9,0,0,1-.9.9h0a.9.9,0,0,1-.9-.9h0A.9.9,0,0,1,171.4,197.5Z"/><circle class="ab" cx="177.7" cy="196.5" r="1.5"/><circle class="ac" cx="177.7" cy="196.5" r="1.2"/><path class="z" d="M150.6,193.3h0a.7.7,0,0,1,.7.6V199a.7.7,0,0,1-.7.7h0a.7.7,0,0,1-.7-.7v-5.1A.7.7,0,0,1,150.6,193.3Z"/><path class="z" d="M147.9,193.3h0a.7.7,0,0,1,.7.6V199a.7.7,0,0,1-.7.7h0a.7.7,0,0,1-.7-.7v-5.1A.7.7,0,0,1,147.9,193.3Z"/><rect class="u" x="134.2" y="193.3" width="10.9" height="2.73"/><rect class="u" x="134.2" y="197" width="10.9" height="2.73"/><path class="aa" d="M149.9,194.6h1.4V199a.7.7,0,0,1-.7.7h0a.7.7,0,0,1-.7-.7v-4.4Z"/><path class="r" d="M147.2,197.2h1.4V199a.7.7,0,0,1-.7.7h0a.7.7,0,0,1-.7-.7h0v-1.8Z"/><rect class="ad" x="134.2" y="193.3" width="2.7" height="2.73"/><rect class="ad" x="134.2" y="197" width="2.7" height="2.73"/><rect class="n" x="138.3" y="194.3" width="5.5" height="0.68"/><rect class="n" x="138.3" y="198" width="5.5" height="0.68"/><circle class="ab" cx="177.7" cy="196.5" r="3.2"/><circle class="ae" cx="177.7" cy="196.5" r="2.9"/><path class="n" d="M122.2,199.1h0a1.1,1.1,0,0,1,1.1,1.2h0a1.1,1.1,0,0,1-1.1,1.2h0a1.2,1.2,0,0,1-1.2-1.2h0A1.2,1.2,0,0,1,122.2,199.1Z"/><path class="af" d="M122.2,192.5h0a.6.6,0,0,1,.5.6v4.4a.5.5,0,0,1-.5.5h0a.5.5,0,0,1-.5-.5v-4.4A.6.6,0,0,1,122.2,192.5Z"/><path class="ag" d="M118.7,199.1h0a1.2,1.2,0,0,1,1.2,1.2h0a1.2,1.2,0,0,1-1.2,1.2h0a1.1,1.1,0,0,1-1.1-1.2h0A1.1,1.1,0,0,1,118.7,199.1Z"/><path class="ah" d="M118.8,194.6h0a.5.5,0,0,1,.5.5v2.4a.5.5,0,0,1-.5.5h0a.5.5,0,0,1-.5-.5v-2.4A.5.5,0,0,1,118.8,194.6Z"/><path class="n" d="M115.3,199.1h0a1.2,1.2,0,0,1,1.2,1.2h0a1.2,1.2,0,0,1-1.2,1.2h0a1.1,1.1,0,0,1-1.1-1.2h0A1.1,1.1,0,0,1,115.3,199.1Z"/><path class="af" d="M115.4,191.8h0a.5.5,0,0,1,.5.5v5.2a.5.5,0,0,1-.5.5h0a.5.5,0,0,1-.5-.5v-5.2A.5.5,0,0,1,115.4,191.8Z"/><path class="aa" d="M111.9,199.1h0a1.2,1.2,0,0,1,1.2,1.2h0a1.2,1.2,0,0,1-1.2,1.2h0a1.1,1.1,0,0,1-1.1-1.2h0A1.1,1.1,0,0,1,111.9,199.1Z"/><path class="aa" d="M112,193.1h0a.5.5,0,0,1,.5.5v3.9a.5.5,0,0,1-.5.5h0a.5.5,0,0,1-.5-.5v-3.9A.5.5,0,0,1,112,193.1Z"/><path class="r" d="M108.5,199.1h0a1.1,1.1,0,0,1,1.1,1.2h0a1.1,1.1,0,0,1-1.1,1.2h0a1.1,1.1,0,0,1-1.1-1.2h0A1.1,1.1,0,0,1,108.5,199.1Z"/><path class="r" d="M108.6,195.3h0a.5.5,0,0,1,.5.5v1.7a.5.5,0,0,1-.5.5h0a.5.5,0,0,1-.5-.5v-1.7A.5.5,0,0,1,108.6,195.3Z"/><path class="i" d="M104,208.4h79.5c1.5,0,2.8.9,2.8,2v13.2c0,1.1-1.3,2.1-2.8,2.1H104c-1.5,0-2.8-1-2.8-2.1V210.4C101.2,209.3,102.5,208.4,104,208.4Z"/><path class="u" d="M102.4,208.4h27.5v17.3H102.4a1.2,1.2,0,0,1-1.2-1.3V209.6A1.2,1.2,0,0,1,102.4,208.4Z"/><path class="z" d="M154.8,214.6h0a.9.9,0,0,1,.9.9h0a.9.9,0,0,1-.9.9h0a.9.9,0,0,1-.9-.9h0A.9.9,0,0,1,154.8,214.6Z"/><path class="r" d="M157,218.2h0a.9.9,0,0,1,.9.9h0a.9.9,0,0,1-.9.9h0a.9.9,0,0,1-.9-.9h0A.9.9,0,0,1,157,218.2Z"/><path class="z" d="M158.4,214.6h0a.9.9,0,0,1,.9.9h0a.9.9,0,0,1-.9.9h0a.9.9,0,0,1-.9-.9h0A.9.9,0,0,1,158.4,214.6Z"/><path class="z" d="M160.6,218.2h0a.9.9,0,0,1,.9.9h0a.9.9,0,0,1-.9.9h0a.9.9,0,0,1-.9-.9h0A.9.9,0,0,1,160.6,218.2Z"/><path class="aa" d="M162,214.6h0a.9.9,0,0,1,.9.9h0a.9.9,0,0,1-.9.9h0a.9.9,0,0,1-.9-.9h0A.9.9,0,0,1,162,214.6Z"/><path class="z" d="M164.2,218.2h0a.9.9,0,0,1,.9.9h0a.9.9,0,0,1-.9.9h0a.9.9,0,0,1-.9-.9h0A.9.9,0,0,1,164.2,218.2Z"/><path class="z" d="M165.6,214.6h0a.9.9,0,0,1,.9.9h0a.9.9,0,0,1-.9.9h0a.9.9,0,0,1-.9-.9h0A.9.9,0,0,1,165.6,214.6Z"/><path class="r" d="M167.8,218.2h0a.9.9,0,0,1,.9.9h0a.9.9,0,0,1-.9.9h0a.9.9,0,0,1-.9-.9h0A.9.9,0,0,1,167.8,218.2Z"/><path class="z" d="M169.2,214.6h0a.9.9,0,0,1,.9.9h0a.9.9,0,0,1-.9.9h0a.9.9,0,0,1-.9-.9h0A.9.9,0,0,1,169.2,214.6Z"/><path class="z" d="M171.4,218.2h0a.9.9,0,0,1,.9.9h0a.9.9,0,0,1-.9.9h0a.9.9,0,0,1-.9-.9h0A.9.9,0,0,1,171.4,218.2Z"/><circle class="ab" cx="177.7" cy="217.1" r="1.5"/><circle class="ac" cx="177.7" cy="217.1" r="1.2"/><path class="z" d="M150.6,213.9h0a.7.7,0,0,1,.7.7v5.1a.7.7,0,0,1-.7.6h0a.7.7,0,0,1-.7-.6v-5.1A.7.7,0,0,1,150.6,213.9Z"/><path class="z" d="M147.9,213.9h0a.7.7,0,0,1,.7.7v5.1a.7.7,0,0,1-.7.6h0a.7.7,0,0,1-.7-.6v-5.1A.7.7,0,0,1,147.9,213.9Z"/><rect class="u" x="134.2" y="213.9" width="10.9" height="2.73"/><rect class="u" x="134.2" y="217.6" width="10.9" height="2.73"/><path class="aa" d="M149.9,215.2h1.4v4.5a.7.7,0,0,1-.7.6h0a.7.7,0,0,1-.7-.6v-4.5Z"/><path class="r" d="M147.2,217.8h1.4v1.9a.7.7,0,0,1-.7.6h0a.7.7,0,0,1-.7-.6h0v-1.9Z"/><rect class="ad" x="134.2" y="213.9" width="2.7" height="2.73"/><rect class="ad" x="134.2" y="217.6" width="2.7" height="2.73"/><rect class="n" x="138.3" y="214.9" width="5.5" height="0.68"/><rect class="n" x="138.3" y="218.6" width="5.5" height="0.68"/><circle class="ab" cx="177.7" cy="217.1" r="3.2"/><circle class="ae" cx="177.7" cy="217.1" r="2.9"/><path class="n" d="M122.2,219.4h0a1.1,1.1,0,0,1,1.1,1.2h0a1.1,1.1,0,0,1-1.1,1.1h0a1.1,1.1,0,0,1-1.2-1.1h0A1.2,1.2,0,0,1,122.2,219.4Z"/><path class="af" d="M122.2,212.9h0a.5.5,0,0,1,.5.5v4.4a.5.5,0,0,1-.5.5h0a.5.5,0,0,1-.5-.5v-4.4A.5.5,0,0,1,122.2,212.9Z"/><path class="ag" d="M118.7,219.4h0a1.2,1.2,0,0,1,1.2,1.2h0a1.1,1.1,0,0,1-1.2,1.1h0a1.1,1.1,0,0,1-1.1-1.1h0A1.1,1.1,0,0,1,118.7,219.4Z"/><path class="ah" d="M118.8,214.9h0a.5.5,0,0,1,.5.5v2.4a.5.5,0,0,1-.5.5h0a.5.5,0,0,1-.5-.5v-2.4A.5.5,0,0,1,118.8,214.9Z"/><path class="n" d="M115.3,219.4h0a1.2,1.2,0,0,1,1.2,1.2h0a1.1,1.1,0,0,1-1.2,1.1h0a1.1,1.1,0,0,1-1.1-1.1h0A1.1,1.1,0,0,1,115.3,219.4Z"/><path class="af" d="M115.4,212.1h0a.5.5,0,0,1,.5.5v5.2a.5.5,0,0,1-.5.5h0a.5.5,0,0,1-.5-.5v-5.2A.5.5,0,0,1,115.4,212.1Z"/><path class="aa" d="M111.9,219.4h0a1.2,1.2,0,0,1,1.2,1.2h0a1.1,1.1,0,0,1-1.2,1.1h0a1.1,1.1,0,0,1-1.1-1.1h0A1.1,1.1,0,0,1,111.9,219.4Z"/><path class="aa" d="M112,213.4h0a.5.5,0,0,1,.5.5v3.9a.5.5,0,0,1-.5.5h0a.5.5,0,0,1-.5-.5v-3.9A.5.5,0,0,1,112,213.4Z"/><path class="r" d="M108.5,219.4h0a1.1,1.1,0,0,1,1.1,1.2h0a1.1,1.1,0,0,1-1.1,1.1h0a1.1,1.1,0,0,1-1.1-1.1h0A1.1,1.1,0,0,1,108.5,219.4Z"/><path class="r" d="M108.6,215.6h0a.5.5,0,0,1,.5.5v1.7a.5.5,0,0,1-.5.5h0a.5.5,0,0,1-.5-.5v-1.7A.5.5,0,0,1,108.6,215.6Z"/><path class="ai" d="M82.5,293.4a15.6,15.6,0,0,0,4-4.4,27.4,27.4,0,0,0,1.5-3.8,30.1,30.1,0,0,0,1.7-7.9c.1-2-.3-4,0-6a19.8,19.8,0,0,1,1.8-4.8,21.2,21.2,0,0,0,1.7-6.9,25.2,25.2,0,0,0-.6-4.8,71.2,71.2,0,0,1-.8-12.4,15.9,15.9,0,0,0-.4-5,22.3,22.3,0,0,1-1,4.3,29.4,29.4,0,0,1-3.2,6.4c-2.5,3.8-5.1,7.3-7.4,11.3A36.9,36.9,0,0,0,74.9,273c-.3,2.3-.3,4.6-.8,6.9-1.4,5.9-6.1,10-7,16a22.9,22.9,0,0,0-.1,3.7c0,1.5-.5,7.2.7,6.8s1.8-2,2.4-2.6l2.4-2.3c1.6-1.5,3.3-2.9,5-4.2S81.2,295.1,82.5,293.4Z"/><path class="aj" d="M73,295.4a36.7,36.7,0,0,0,6.4-11.9,69.5,69.5,0,0,0,1.9-6.9c.5-2.3.8-4.7,1.3-7.1s.4-2.5.7-3.7.7-2.4,1-3.6,1.8-4.5,2.7-6.7,1.8-4.4,2.5-6.7a32.3,32.3,0,0,0,1.5-7,30.4,30.4,0,0,1-1,7.2c-.7,2.4-1.5,4.7-2.4,7s-1.7,4.4-2.4,6.7a33.7,33.7,0,0,0-.9,3.4c-.3,1.2-.5,2.3-.7,3.5s-.8,4.8-1.4,7.3-1.3,4.8-2.1,7.1a42.1,42.1,0,0,1-3.1,6.4A25.1,25.1,0,0,1,73,295.4Z"/><path class="ak" d="M93.1,272.4a13,13,0,0,0-4.9,2c-3.8,2.9-4.2,8.6-7,12.5s-5.7,4.6-7.8,7.5a21.1,21.1,0,0,0-2.4,5.3l-2.1,5.8a117.5,117.5,0,0,0,24.2-9A14.4,14.4,0,0,0,97,294c2.1-2.2,2.7-5.4,2.7-8.4s-.2-5.2.6-7.7,5-5.4,7.9-8.1C103.9,269,97.3,271.3,93.1,272.4Z"/><path class="aj" d="M102.6,271.8a44.9,44.9,0,0,0-4.2,2.4,18.2,18.2,0,0,0-3.8,2.9,10.1,10.1,0,0,0-2.5,3.9,35.7,35.7,0,0,0-1.6,4.6,15.5,15.5,0,0,1-.8,2.3,12.7,12.7,0,0,1-1.2,2.3,23,23,0,0,1-3.2,3.8,44.2,44.2,0,0,1-8,5.6l3.8-3a37.3,37.3,0,0,0,3.6-3.2,21.8,21.8,0,0,0,3-3.8,13.6,13.6,0,0,0,1-2.1,19.5,19.5,0,0,0,.8-2.2c.5-1.6,1-3.2,1.6-4.7a12.1,12.1,0,0,1,3-4.1C96.5,274.2,99.6,272.9,102.6,271.8Z"/><path class="al" d="M62.3,278a19.8,19.8,0,0,0-8.9-8.3c-5.3-2.1-11.8-1.2-16.5-4.4-1-.7-1.8-1.5-2.8-2.1s-5-1.4-7.6-1.5a2,2,0,0,0-1.1.2,1.6,1.6,0,0,0-.4.7c-.6,1.6.3,3.3,1.4,4.5s2.7,2.1,3.9,3.2a14.5,14.5,0,0,1,4,7.4,56.6,56.6,0,0,1,1.2,8.4,8.8,8.8,0,0,0,.7,3.2A9,9,0,0,0,40,293a38.3,38.3,0,0,0,7.9,3.8c5.9,2,12.5,2.7,17.1,6.9.5.4.9.9,1.5,1.3a5,5,0,0,0,3.5,1c.5-1.6-.2-3.3-.8-4.8-1.5-4-1.8-8-2.6-12.2A33.6,33.6,0,0,0,62.3,278Z"/><path class="am" d="M64.3,246.7a24.1,24.1,0,0,1,4.9,15.7c-.2,5.1-1.9,10.3-.5,15.2.7,2.4,2.2,4.5,2.5,7,.8,5.8-4.7,10.9-5,16.8-1.1-.2-1.7-1.5-2.2-2.5-1.7-2.7-4.7-4.3-7.2-6.3a20.9,20.9,0,0,1-7.5-14.4c-.6-6.7,2.1-13.4,1.3-20-.2-2.3-.9-4.5-1.3-6.8a30.3,30.3,0,0,1,0-9.5c.4-2.6,1.2-7.2,3.2-8.9C56.1,237.9,60.7,241.8,64.3,246.7Z"/><path class="an" d="M74,259.4a26,26,0,0,0-3,3.6,9,9,0,0,0-1.3,3.9,22.8,22.8,0,0,0-.1,6.9,19.8,19.8,0,0,1,.3,3.5c-.3,4.4-5.2,7.2-5.2,11.6a17.1,17.1,0,0,0,.9,4.5c1.3,4.1,2.7,8.3,4.3,12.3a22.6,22.6,0,0,1,1.7-5.2c.4-1,1.1-2,1.5-3,1.3-3.1,1-6.6.1-9.8a7.3,7.3,0,0,1-.4-2.9,4.2,4.2,0,0,1,.9-1.9c1.4-2,3.2-3.3,4.8-5s2.3-3.9,2.9-6a18.4,18.4,0,0,0,1-5.6,23.5,23.5,0,0,0-.9-5.3c-1.2-4.2-2-8.9-3.7-12.9-.7,1.4-.3,3.5-.7,5.2A14.2,14.2,0,0,1,74,259.4Z"/><path class="aj" d="M53.2,241.6c1.3,4.7,3,9.4,4,14.3a36.4,36.4,0,0,1,.7,7.4c.1,2.5.1,4.9.1,7.4s0,2.4.1,3.6.2,2.4.4,3.6.4,2.4.7,3.5l1.2,3.5a133,133,0,0,0,5.7,13.5,67.7,67.7,0,0,1-7-13c-.4-1.2-.9-2.3-1.3-3.5a24.5,24.5,0,0,1-.8-3.7,38,38,0,0,1-.6-7.5c0-2.5.2-4.9.2-7.4a45.3,45.3,0,0,0-.4-7.3C55.5,251.2,54.1,246.4,53.2,241.6Z"/><path class="aj" d="M31.6,267.2a37,37,0,0,1,10.9,6.6,24.7,24.7,0,0,1,4.2,4.9c1.1,1.8,2,3.8,3,5.6a25.8,25.8,0,0,0,3.2,5.3,22,22,0,0,0,4.4,4.2l5,3.8a24.4,24.4,0,0,1,2.3,2.2,11.5,11.5,0,0,1,1.9,2.6,22.8,22.8,0,0,0-2.2-2.2,19.9,19.9,0,0,0-2.4-1.9l-5.3-3.5-1.4-.9-1.2-1a17.5,17.5,0,0,1-2.3-2.4,31.4,31.4,0,0,1-3.4-5.5l-2.9-5.5a19.6,19.6,0,0,0-3.8-4.8A49.3,49.3,0,0,0,31.6,267.2Z"/><path class="aj" d="M77.6,259.6a39.6,39.6,0,0,1-1.7,10.3c-.9,3.4-2.1,6.6-3.2,9.9s-2,6.6-2.8,10A83.5,83.5,0,0,0,68.3,300a51.5,51.5,0,0,1,.8-10.4,71.3,71.3,0,0,1,2.6-10.1c1.1-3.3,2.3-6.6,3.4-9.8A57.4,57.4,0,0,0,77.6,259.6Z"/><path class="ao" d="M82.6,344.3H57.2a3,3,0,0,1-2.9-3l-5-35.3a2.9,2.9,0,0,1,3-3H87.6a3,3,0,0,1,3,3l-5,35.3A3,3,0,0,1,82.6,344.3Z"/><path class="r" d="M245.1,205.9l7.8-1.3h.1v7.1h-.1l-8,.2h-.1V206h.3Z"/><path class="r" d="M238.2,206.8l5.7-.8h.1v5.8h-6.2v-5h.4Z"/><path class="r" d="M238,212.7h6.1v5.8H244l-6-.7h-.1v-5C237.9,212.7,237.9,212.7,238,212.7Z"/><path class="r" d="M245.2,212.7H253v7a.1.1,0,0,1-.1.1l-8.1-1.1h0v-5.9a.1.1,0,0,1,.1-.1Z"/><path class="ap" d="M245.4,211.9v-6h-.6v5.9h.6Z"/><path class="ap" d="M238.5,212v-5.1h-.6v5h.6Z"/><path class="aq" d="M244,212.7h0Z"/><path class="ap" d="M238.5,217.9v-5.1c0-.1,0-.1.1-.1H238c-.1,0-.1,0-.1.1v5h.6Z"/><path class="ap" d="M245.5,218.8v-6a.1.1,0,0,1,.1-.1h-.6a.1.1,0,0,0-.1.1v5.9h.6Z"/></g></svg>