<svg xmlns="http://www.w3.org/2000/svg" xmlns:xlink="http://www.w3.org/1999/xlink" viewBox="0 0 400 400"><defs><style>.a{fill:url(#a);}.b{fill:#00aeef;}.c,.e{fill:#106a9f;}.c{opacity:0.25;}.d{fill:#fff;}</style><linearGradient id="a" x1="213.18" y1="352.25" x2="164.08" y2="73.8" gradientUnits="userSpaceOnUse"><stop offset="0" stop-color="#c6e6ff"/><stop offset="1" stop-color="#fff"/></linearGradient></defs><title>wp-host</title><path class="a" d="M379,242.2c-6.4-19.5-16.4-25.5-26-38.1-11.6-15.3-19.4-26.4-16.4-46.2,4.9-32.2,7-112.6-70.3-102.1-27.7,3.8-49.6,27.2-65.6,50.6-13.5,19.9-37.9,21.7-57.5,26.3-24.2,5.7-48.7,14.3-71,27-46,26-59.7,63.3-57.8,111.1.5,14.5,2.4,37.2,24.5,63.9,29.8,35.9,73.2,40.7,125.4,24.2,11.9-3.8,23.2-9.7,35-14.2a154.3,154.3,0,0,1,37.8-9c29.9-3.2,61,2.6,89.8-7.3a94,94,0,0,0,40.2-27.5A61,61,0,0,0,379,242.2Z"/><path class="b" d="M349.7,238.1a43.1,43.1,0,0,1-43,43.1H105.5a45.3,45.3,0,0,1-9.8-1.1,46.8,46.8,0,0,1,9.8-92.6,44.9,44.9,0,0,1,15.2,2.6,59.1,59.1,0,0,1,6.7-18.6l.2-.3a58.9,58.9,0,0,1,107.2,11,40.7,40.7,0,0,1,52,17.8,43,43,0,0,1,62.9,38.1Z"/><path class="c" d="M187.1,249.3a66,66,0,0,1-8.4,32.4L156.4,303c-87.3,1.9-95.1-40.3-95.1-63.7a42.3,42.3,0,0,1,56.1-40,53.6,53.6,0,0,1,6.1-16.8A66.8,66.8,0,0,1,187.1,249.3Z"/><circle class="d" cx="111.7" cy="253.3" r="66.8"/><path class="e" d="M112.6,257.6,97.9,300.1a49.6,49.6,0,0,0,30.1-.7,2.5,2.5,0,0,1-.4-.7Z"/><path class="e" d="M62.9,253.3a48.7,48.7,0,0,0,27.5,43.9L67.1,233.4A48.9,48.9,0,0,0,62.9,253.3Z"/><path class="e" d="M144.7,250.8c0-6-2.2-10.2-4-13.5s-4.8-7.4-4.8-11.4,3.4-8.7,8.2-8.7h.6a48.7,48.7,0,0,0-73.8,9.2h3.2c5.1,0,13-.6,13-.6,2.6-.2,2.9,3.7.3,4l-5.6.5,17.8,52.9,10.7-32.1-7.6-20.8-5.2-.5c-2.6-.1-2.3-4.2.4-4,0,0,8,.6,12.8.6s13-.6,13-.6a2,2,0,0,1,.4,4l-5.6.5,17.6,52.5,4.9-16.3C143.1,259.9,144.7,255,144.7,250.8Z"/><path class="e" d="M154.6,229.9a38.4,38.4,0,0,1,.3,5,46.1,46.1,0,0,1-3.7,17.5l-14.9,43.1a48.7,48.7,0,0,0,18.3-65.6Z"/><path class="e" d="M111.7,191.3a62,62,0,1,0,62,62A62,62,0,0,0,111.7,191.3Zm0,116.3a54.3,54.3,0,1,1,54.4-54.3A54.4,54.4,0,0,1,111.7,307.6Z"/></svg>